<?xml version="1.0" encoding="UTF-8" standalone="no"?>
<!DOCTYPE svg PUBLIC "-//W3C//DTD SVG 1.1//EN"
 "http://www.w3.org/Graphics/SVG/1.1/DTD/svg11.dtd">
<!-- Generated by graphviz version 2.38.0 (20140413.2041)
 -->
<!-- Title: DecoupledIBPMSolver Pages: 1 -->
<svg width="124pt" height="140pt"
 viewBox="0.00 0.00 124.00 140.00" xmlns="http://www.w3.org/2000/svg" xmlns:xlink="http://www.w3.org/1999/xlink">
<g id="graph0" class="graph" transform="scale(1 1) rotate(0) translate(4 136)">
<title>DecoupledIBPMSolver</title>
<polygon fill="white" stroke="none" points="-4,4 -4,-136 120,-136 120,4 -4,4"/>
<!-- Node1 -->
<g id="node1" class="node"><title>Node1</title>
<polygon fill="#bfbfbf" stroke="black" points="-7.10543e-15,-56.5 -7.10543e-15,-75.5 116,-75.5 116,-56.5 -7.10543e-15,-56.5"/>
<text text-anchor="middle" x="58" y="-63.5" font-family="Helvetica,sans-Serif" font-size="10.00">DecoupledIBPMSolver</text>
</g>
<!-- Node3 -->
<g id="node3" class="node"><title>Node3</title>
<g id="a_node3"><a xlink:href="../../dc/dbc/class_rigid_kinematics_solver.html" target="_top" xlink:title="Helper class to solve cases with moving rigid bodies using the decoupled IBPM. ">
<polygon fill="white" stroke="black" points="-7.10543e-15,-0.5 -7.10543e-15,-19.5 116,-19.5 116,-0.5 -7.10543e-15,-0.5"/>
<text text-anchor="middle" x="58" y="-7.5" font-family="Helvetica,sans-Serif" font-size="10.00">RigidKinematicsSolver</text>
</a>
</g>
</g>
<!-- Node1&#45;&gt;Node3 -->
<g id="edge2" class="edge"><title>Node1&#45;&gt;Node3</title>
<path fill="none" stroke="darkgreen" d="M58,-45.8045C58,-36.9102 58,-26.7798 58,-19.7511"/>
<polygon fill="darkgreen" stroke="darkgreen" points="54.5001,-46.083 58,-56.083 61.5001,-46.083 54.5001,-46.083"/>
</g>
<!-- Node2 -->
<g id="node2" class="node"><title>Node2</title>
<g id="a_node2"><a xlink:href="../../d4/de8/class_navier_stokes_solver.html" target="_top" xlink:title="Solve the incompressible Navier&#45;Stokes equations with a projection method (Perot 1993). ">
<polygon fill="white" stroke="black" points="6,-112.5 6,-131.5 110,-131.5 110,-112.5 6,-112.5"/>
<text text-anchor="middle" x="58" y="-119.5" font-family="Helvetica,sans-Serif" font-size="10.00">NavierStokesSolver</text>
</a>
</g>
</g>
<!-- Node2&#45;&gt;Node1 -->
<g id="edge1" class="edge"><title>Node2&#45;&gt;Node1</title>
<path fill="none" stroke="darkgreen" d="M58,-101.805C58,-92.9102 58,-82.7798 58,-75.7511"/>
<polygon fill="darkgreen" stroke="darkgreen" points="54.5001,-102.083 58,-112.083 61.5001,-102.083 54.5001,-102.083"/>
</g>
</g>
</svg>
