<?xml version="1.0" encoding="UTF-8" standalone="no"?>
<!DOCTYPE svg PUBLIC "-//W3C//DTD SVG 1.1//EN"
 "http://www.w3.org/Graphics/SVG/1.1/DTD/svg11.dtd">
<!-- Generated by graphviz version 3.0.0 (0)
 -->
<!-- Title: petibm::misc::ProbeBase Pages: 1 -->
<svg width="290pt" height="84pt"
 viewBox="0.00 0.00 290.00 84.00" xmlns="http://www.w3.org/2000/svg" xmlns:xlink="http://www.w3.org/1999/xlink">
<g id="graph0" class="graph" transform="scale(1 1) rotate(0) translate(4 80)">
<title>petibm::misc::ProbeBase</title>
<polygon fill="white" stroke="transparent" points="-4,4 -4,-80 286,-80 286,4 -4,4"/>
<!-- Node1 -->
<g id="node1" class="node">
<title>Node1</title>
<g id="a_node1"><a xlink:title="Abstract Base Class of a probe.">
<polygon fill="#bfbfbf" stroke="black" points="75,-56.5 75,-75.5 202,-75.5 202,-56.5 75,-56.5"/>
<text text-anchor="middle" x="138.5" y="-63.5" font-family="Helvetica,sans-Serif" font-size="10.00">petibm::misc::ProbeBase</text>
</a>
</g>
</g>
<!-- Node2 -->
<g id="node2" class="node">
<title>Node2</title>
<g id="a_node2"><a xlink:href="../../d0/d74/classpetibm_1_1misc_1_1_probe_point.html" target="_top" xlink:title="Probe class to monitor the solution at a single point.">
<polygon fill="white" stroke="black" points="0,-0.5 0,-19.5 127,-19.5 127,-0.5 0,-0.5"/>
<text text-anchor="middle" x="63.5" y="-7.5" font-family="Helvetica,sans-Serif" font-size="10.00">petibm::misc::ProbePoint</text>
</a>
</g>
</g>
<!-- Node1&#45;&gt;Node2 -->
<g id="edge1" class="edge">
<title>Node1&#45;&gt;Node2</title>
<path fill="none" stroke="midnightblue" d="M118.19,-50.38C104.64,-40.62 87.26,-28.11 75.77,-19.83"/>
<polygon fill="midnightblue" stroke="midnightblue" points="116.29,-53.32 126.45,-56.32 120.38,-47.64 116.29,-53.32"/>
</g>
<!-- Node3 -->
<g id="node3" class="node">
<title>Node3</title>
<g id="a_node3"><a xlink:href="../../db/da9/classpetibm_1_1misc_1_1_probe_volume.html" target="_top" xlink:title="Probe class to monitor a volume region of the domain.">
<polygon fill="white" stroke="black" points="145,-0.5 145,-19.5 282,-19.5 282,-0.5 145,-0.5"/>
<text text-anchor="middle" x="213.5" y="-7.5" font-family="Helvetica,sans-Serif" font-size="10.00">petibm::misc::ProbeVolume</text>
</a>
</g>
</g>
<!-- Node1&#45;&gt;Node3 -->
<g id="edge2" class="edge">
<title>Node1&#45;&gt;Node3</title>
<path fill="none" stroke="midnightblue" d="M158.81,-50.38C172.36,-40.62 189.74,-28.11 201.23,-19.83"/>
<polygon fill="midnightblue" stroke="midnightblue" points="156.62,-47.64 150.55,-56.32 160.71,-53.32 156.62,-47.64"/>
</g>
</g>
</svg>
