<?xml version="1.0" encoding="UTF-8" standalone="no"?>
<!DOCTYPE svg PUBLIC "-//W3C//DTD SVG 1.1//EN"
 "http://www.w3.org/Graphics/SVG/1.1/DTD/svg11.dtd">
<!-- Generated by graphviz version 2.38.0 (20140413.2041)
 -->
<!-- Title: applications/decoupledibpm Pages: 1 -->
<svg width="133pt" height="223pt"
 viewBox="0.00 0.00 133.00 223.00" xmlns="http://www.w3.org/2000/svg" xmlns:xlink="http://www.w3.org/1999/xlink">
<g id="graph0" class="graph" transform="scale(1 1) rotate(0) translate(4 219)">
<title>applications/decoupledibpm</title>
<polygon fill="white" stroke="none" points="-4,4 -4,-219 129,-219 129,4 -4,4"/>
<g id="clust1" class="cluster"><title>clusterdir_a6e4fee11f07c3b70486e88fe92cbbdc</title>
<g id="a_clust1"><a xlink:href="dir_a6e4fee11f07c3b70486e88fe92cbbdc.html" target="_top" xlink:title="applications">
<polygon fill="#ddddee" stroke="black" points="19,-136 19,-207 117,-207 117,-136 19,-136"/>
<text text-anchor="middle" x="68" y="-195" font-family="Helvetica,sans-Serif" font-size="10.00">applications</text>
</a>
</g>
</g>
<!-- dir_02799f4d4439ae71e263b5891136b552 -->
<g id="node1" class="node"><title>dir_02799f4d4439ae71e263b5891136b552</title>
<g id="a_node1"><a xlink:href="dir_02799f4d4439ae71e263b5891136b552.html" target="_top" xlink:title="decoupledibpm">
<polygon fill="#eeeeff" stroke="black" points="109,-180 27,-180 27,-144 109,-144 109,-180"/>
<text text-anchor="middle" x="68" y="-159.5" font-family="Helvetica,sans-Serif" font-size="10.00">decoupledibpm</text>
</a>
</g>
</g>
<!-- dir_5a17396c6ee06cf41110d2e7bc9bd347 -->
<g id="node2" class="node"><title>dir_5a17396c6ee06cf41110d2e7bc9bd347</title>
<g id="a_node2"><a xlink:href="dir_5a17396c6ee06cf41110d2e7bc9bd347.html" target="_top" xlink:title="navierstokes">
<polygon fill="none" stroke="black" points="72,-108 0,-108 0,-72 72,-72 72,-108"/>
<text text-anchor="middle" x="36" y="-87.5" font-family="Helvetica,sans-Serif" font-size="10.00">navierstokes</text>
</a>
</g>
</g>
<!-- dir_02799f4d4439ae71e263b5891136b552&#45;&gt;dir_5a17396c6ee06cf41110d2e7bc9bd347 -->
<g id="edge1" class="edge"><title>dir_02799f4d4439ae71e263b5891136b552&#45;&gt;dir_5a17396c6ee06cf41110d2e7bc9bd347</title>
<path fill="none" stroke="black" d="M60.0899,-143.697C56.4473,-135.728 52.0455,-126.1 48.0065,-117.264"/>
<polygon fill="black" stroke="black" points="51.1599,-115.744 43.8191,-108.104 44.7936,-118.654 51.1599,-115.744"/>
<g id="a_edge1&#45;headlabel"><a xlink:href="dir_000002_000004.html" target="_top" xlink:title="1">
<text text-anchor="middle" x="55.2366" y="-115.333" font-family="Helvetica,sans-Serif" font-size="10.00">1</text>
</a>
</g>
</g>
<!-- dir_d44c64559bbebec7f509842c48db8b23 -->
<g id="node3" class="node"><title>dir_d44c64559bbebec7f509842c48db8b23</title>
<g id="a_node3"><a xlink:href="dir_d44c64559bbebec7f509842c48db8b23.html" target="_top" xlink:title="include">
<polygon fill="white" stroke="red" points="95,-36 41,-36 41,-0 95,-0 95,-36"/>
<text text-anchor="middle" x="68" y="-15.5" font-family="Helvetica,sans-Serif" font-size="10.00">include</text>
</a>
</g>
</g>
<!-- dir_02799f4d4439ae71e263b5891136b552&#45;&gt;dir_d44c64559bbebec7f509842c48db8b23 -->
<g id="edge2" class="edge"><title>dir_02799f4d4439ae71e263b5891136b552&#45;&gt;dir_d44c64559bbebec7f509842c48db8b23</title>
<path fill="none" stroke="black" d="M73.4088,-143.529C76.295,-133.289 79.545,-120.039 81,-108 82.9196,-92.1156 82.9196,-87.8844 81,-72 79.977,-63.5349 78.0665,-54.4712 76.0191,-46.2761"/>
<polygon fill="black" stroke="black" points="79.3635,-45.2336 73.4088,-36.4705 72.5991,-47.0344 79.3635,-45.2336"/>
<g id="a_edge2&#45;headlabel"><a xlink:href="dir_000002_000008.html" target="_top" xlink:title="2">
<text text-anchor="middle" x="83.0319" y="-45.4769" font-family="Helvetica,sans-Serif" font-size="10.00">2</text>
</a>
</g>
</g>
<!-- dir_5a17396c6ee06cf41110d2e7bc9bd347&#45;&gt;dir_d44c64559bbebec7f509842c48db8b23 -->
<g id="edge3" class="edge"><title>dir_5a17396c6ee06cf41110d2e7bc9bd347&#45;&gt;dir_d44c64559bbebec7f509842c48db8b23</title>
<path fill="none" stroke="black" d="M43.9101,-71.6966C47.5527,-63.7284 51.9545,-54.0995 55.9935,-45.2641"/>
<polygon fill="black" stroke="black" points="59.2064,-46.6543 60.1809,-36.1043 52.8401,-43.7439 59.2064,-46.6543"/>
<g id="a_edge3&#45;headlabel"><a xlink:href="dir_000004_000008.html" target="_top" xlink:title="7">
<text text-anchor="middle" x="60.2942" y="-48.6039" font-family="Helvetica,sans-Serif" font-size="10.00">7</text>
</a>
</g>
</g>
</g>
</svg>
