<?xml version="1.0" encoding="UTF-8" standalone="no"?>
<!DOCTYPE svg PUBLIC "-//W3C//DTD SVG 1.1//EN"
 "http://www.w3.org/Graphics/SVG/1.1/DTD/svg11.dtd">
<!-- Generated by graphviz version 2.40.1 (20161225.0304)
 -->
<!-- Title: tests Pages: 1 -->
<svg width="462pt" height="132pt"
 viewBox="0.00 0.00 462.00 132.00" xmlns="http://www.w3.org/2000/svg" xmlns:xlink="http://www.w3.org/1999/xlink">
<g id="graph0" class="graph" transform="scale(1 1) rotate(0) translate(4 128)">
<title>tests</title>
<polygon fill="#ffffff" stroke="transparent" points="-4,4 -4,-128 458,-128 458,4 -4,4"/>
<g id="clust1" class="cluster">
<title>clusterdir_59425e443f801f1f2fd8bbe4959a3ccf</title>
<g id="a_clust1"><a xlink:href="dir_59425e443f801f1f2fd8bbe4959a3ccf.html" target="_top">
<polygon fill="#eeeeff" stroke="#000000" points="8,-64 8,-116 446,-116 446,-64 8,-64"/>
</a>
</g>
</g>
<!-- dir_59425e443f801f1f2fd8bbe4959a3ccf -->
<g id="node1" class="node">
<title>dir_59425e443f801f1f2fd8bbe4959a3ccf</title>
<text text-anchor="middle" x="411" y="-87" font-family="Helvetica,sans-Serif" font-size="10.00" fill="#000000">tests</text>
</g>
<!-- dir_126a0924d382dedf73903fd74dfd4e68 -->
<g id="node2" class="node">
<title>dir_126a0924d382dedf73903fd74dfd4e68</title>
<g id="a_node2"><a xlink:href="dir_126a0924d382dedf73903fd74dfd4e68.html" target="_top" xlink:title="body">
<polygon fill="#ffffff" stroke="#000000" points="366,-108 312,-108 312,-72 366,-72 366,-108"/>
<text text-anchor="middle" x="339" y="-87" font-family="Helvetica,sans-Serif" font-size="10.00" fill="#000000">body</text>
</a>
</g>
</g>
<!-- dir_d44c64559bbebec7f509842c48db8b23 -->
<g id="node7" class="node">
<title>dir_d44c64559bbebec7f509842c48db8b23</title>
<g id="a_node7"><a xlink:href="dir_d44c64559bbebec7f509842c48db8b23.html" target="_top" xlink:title="include">
<polygon fill="#ffffff" stroke="#ff0000" points="218,-36 164,-36 164,0 218,0 218,-36"/>
<text text-anchor="middle" x="191" y="-15" font-family="Helvetica,sans-Serif" font-size="10.00" fill="#000000">include</text>
</a>
</g>
</g>
<!-- dir_126a0924d382dedf73903fd74dfd4e68&#45;&gt;dir_d44c64559bbebec7f509842c48db8b23 -->
<g id="edge2" class="edge">
<title>dir_126a0924d382dedf73903fd74dfd4e68&#45;&gt;dir_d44c64559bbebec7f509842c48db8b23</title>
<path fill="none" stroke="#000000" d="M315.5087,-71.8393C311.4427,-69.0465 307.1773,-66.3234 303,-64 278.8367,-50.5602 249.9361,-38.7874 227.5454,-30.5166"/>
<polygon fill="#000000" stroke="#000000" points="228.6634,-27.1991 218.0693,-27.0809 226.2774,-33.7799 228.6634,-27.1991"/>
<g id="a_edge2&#45;headlabel"><a xlink:href="dir_000021_000008.html" target="_top" xlink:title="2">
<text text-anchor="middle" x="233.0105" y="-22.7551" font-family="Helvetica,sans-Serif" font-size="10.00" fill="#000000">2</text>
</a>
</g>
</g>
<!-- dir_8091579afade2b31e281dd516deebd66 -->
<g id="node3" class="node">
<title>dir_8091579afade2b31e281dd516deebd66</title>
<g id="a_node3"><a xlink:href="dir_8091579afade2b31e281dd516deebd66.html" target="_top" xlink:title="boundary">
<polygon fill="#ffffff" stroke="#000000" points="293.7,-108 236.3,-108 236.3,-72 293.7,-72 293.7,-108"/>
<text text-anchor="middle" x="265" y="-87" font-family="Helvetica,sans-Serif" font-size="10.00" fill="#000000">boundary</text>
</a>
</g>
</g>
<!-- dir_8091579afade2b31e281dd516deebd66&#45;&gt;dir_d44c64559bbebec7f509842c48db8b23 -->
<g id="edge3" class="edge">
<title>dir_8091579afade2b31e281dd516deebd66&#45;&gt;dir_d44c64559bbebec7f509842c48db8b23</title>
<path fill="none" stroke="#000000" d="M246.3267,-71.8314C237.4751,-63.219 226.7514,-52.7851 217.1105,-43.4048"/>
<polygon fill="#000000" stroke="#000000" points="219.2754,-40.6279 209.6674,-36.1628 214.3939,-45.645 219.2754,-40.6279"/>
<g id="a_edge3&#45;headlabel"><a xlink:href="dir_000022_000008.html" target="_top" xlink:title="3">
<text text-anchor="middle" x="223.8317" y="-38.0996" font-family="Helvetica,sans-Serif" font-size="10.00" fill="#000000">3</text>
</a>
</g>
</g>
<!-- dir_a6cff43191e172c7de6f1fc67085ec42 -->
<g id="node4" class="node">
<title>dir_a6cff43191e172c7de6f1fc67085ec42</title>
<g id="a_node4"><a xlink:href="dir_a6cff43191e172c7de6f1fc67085ec42.html" target="_top" xlink:title="mesh">
<polygon fill="#ffffff" stroke="#000000" points="218,-108 164,-108 164,-72 218,-72 218,-108"/>
<text text-anchor="middle" x="191" y="-87" font-family="Helvetica,sans-Serif" font-size="10.00" fill="#000000">mesh</text>
</a>
</g>
</g>
<!-- dir_a6cff43191e172c7de6f1fc67085ec42&#45;&gt;dir_d44c64559bbebec7f509842c48db8b23 -->
<g id="edge4" class="edge">
<title>dir_a6cff43191e172c7de6f1fc67085ec42&#45;&gt;dir_d44c64559bbebec7f509842c48db8b23</title>
<path fill="none" stroke="#000000" d="M191,-71.8314C191,-64.131 191,-54.9743 191,-46.4166"/>
<polygon fill="#000000" stroke="#000000" points="194.5001,-46.4132 191,-36.4133 187.5001,-46.4133 194.5001,-46.4132"/>
<g id="a_edge4&#45;headlabel"><a xlink:href="dir_000007_000008.html" target="_top" xlink:title="3">
<text text-anchor="middle" x="197.3393" y="-47.0079" font-family="Helvetica,sans-Serif" font-size="10.00" fill="#000000">3</text>
</a>
</g>
</g>
<!-- dir_977d3371830c4bec444f000fc75dc817 -->
<g id="node5" class="node">
<title>dir_977d3371830c4bec444f000fc75dc817</title>
<g id="a_node5"><a xlink:href="dir_977d3371830c4bec444f000fc75dc817.html" target="_top" xlink:title="misc">
<polygon fill="#ffffff" stroke="#000000" points="146,-108 92,-108 92,-72 146,-72 146,-108"/>
<text text-anchor="middle" x="119" y="-87" font-family="Helvetica,sans-Serif" font-size="10.00" fill="#000000">misc</text>
</a>
</g>
</g>
<!-- dir_977d3371830c4bec444f000fc75dc817&#45;&gt;dir_d44c64559bbebec7f509842c48db8b23 -->
<g id="edge1" class="edge">
<title>dir_977d3371830c4bec444f000fc75dc817&#45;&gt;dir_d44c64559bbebec7f509842c48db8b23</title>
<path fill="none" stroke="#000000" d="M137.1686,-71.8314C145.7152,-63.2848 156.0557,-52.9443 165.3802,-43.6198"/>
<polygon fill="#000000" stroke="#000000" points="167.9905,-45.9592 172.5867,-36.4133 163.0408,-41.0095 167.9905,-45.9592"/>
<g id="a_edge1&#45;headlabel"><a xlink:href="dir_000023_000008.html" target="_top" xlink:title="1">
<text text-anchor="middle" x="167.4564" y="-47.5087" font-family="Helvetica,sans-Serif" font-size="10.00" fill="#000000">1</text>
</a>
</g>
</g>
<!-- dir_f686df415f3d1e8ca1abc85a1698cd1d -->
<g id="node6" class="node">
<title>dir_f686df415f3d1e8ca1abc85a1698cd1d</title>
<g id="a_node6"><a xlink:href="dir_f686df415f3d1e8ca1abc85a1698cd1d.html" target="_top" xlink:title="operators">
<polygon fill="#ffffff" stroke="#000000" points="74.2466,-108 15.7534,-108 15.7534,-72 74.2466,-72 74.2466,-108"/>
<text text-anchor="middle" x="45" y="-87" font-family="Helvetica,sans-Serif" font-size="10.00" fill="#000000">operators</text>
</a>
</g>
</g>
<!-- dir_f686df415f3d1e8ca1abc85a1698cd1d&#45;&gt;dir_d44c64559bbebec7f509842c48db8b23 -->
<g id="edge5" class="edge">
<title>dir_f686df415f3d1e8ca1abc85a1698cd1d&#45;&gt;dir_d44c64559bbebec7f509842c48db8b23</title>
<path fill="none" stroke="#000000" d="M69.9053,-71.9401C74.184,-69.1352 78.6539,-66.3819 83,-64 105.9374,-51.429 133.021,-39.9009 154.3283,-31.5296"/>
<polygon fill="#000000" stroke="#000000" points="155.6126,-34.7856 163.676,-27.9131 153.0868,-28.2572 155.6126,-34.7856"/>
<g id="a_edge5&#45;headlabel"><a xlink:href="dir_000024_000008.html" target="_top" xlink:title="1">
<text text-anchor="middle" x="153.2846" y="-35.7306" font-family="Helvetica,sans-Serif" font-size="10.00" fill="#000000">1</text>
</a>
</g>
</g>
</g>
</svg>
