<?xml version="1.0" encoding="UTF-8" standalone="no"?>
<!DOCTYPE svg PUBLIC "-//W3C//DTD SVG 1.1//EN"
 "http://www.w3.org/Graphics/SVG/1.1/DTD/svg11.dtd">
<!-- Generated by graphviz version 2.40.1 (20161225.0304)
 -->
<!-- Title: src Pages: 1 -->
<svg width="850pt" height="132pt"
 viewBox="0.00 0.00 850.00 132.00" xmlns="http://www.w3.org/2000/svg" xmlns:xlink="http://www.w3.org/1999/xlink">
<g id="graph0" class="graph" transform="scale(1 1) rotate(0) translate(4 128)">
<title>src</title>
<polygon fill="#ffffff" stroke="transparent" points="-4,4 -4,-128 846,-128 846,4 -4,4"/>
<g id="clust1" class="cluster">
<title>clusterdir_68267d1309a1af8e8297ef4c3efbcdba</title>
<g id="a_clust1"><a xlink:href="dir_68267d1309a1af8e8297ef4c3efbcdba.html" target="_top">
<polygon fill="#eeeeff" stroke="#000000" points="8,-64 8,-116 834,-116 834,-64 8,-64"/>
</a>
</g>
</g>
<!-- dir_68267d1309a1af8e8297ef4c3efbcdba -->
<g id="node1" class="node">
<title>dir_68267d1309a1af8e8297ef4c3efbcdba</title>
<text text-anchor="middle" x="799" y="-87" font-family="Helvetica,sans-Serif" font-size="10.00" fill="#000000">src</text>
</g>
<!-- dir_9ac825d0161212ecde96f795c3a0b670 -->
<g id="node2" class="node">
<title>dir_9ac825d0161212ecde96f795c3a0b670</title>
<g id="a_node2"><a xlink:href="dir_9ac825d0161212ecde96f795c3a0b670.html" target="_top" xlink:title="body">
<polygon fill="#ffffff" stroke="#000000" points="754,-108 700,-108 700,-72 754,-72 754,-108"/>
<text text-anchor="middle" x="727" y="-87" font-family="Helvetica,sans-Serif" font-size="10.00" fill="#000000">body</text>
</a>
</g>
</g>
<!-- dir_d44c64559bbebec7f509842c48db8b23 -->
<g id="node12" class="node">
<title>dir_d44c64559bbebec7f509842c48db8b23</title>
<g id="a_node12"><a xlink:href="dir_d44c64559bbebec7f509842c48db8b23.html" target="_top" xlink:title="include">
<polygon fill="#ffffff" stroke="#ff0000" points="426,-36 372,-36 372,0 426,0 426,-36"/>
<text text-anchor="middle" x="399" y="-15" font-family="Helvetica,sans-Serif" font-size="10.00" fill="#000000">include</text>
</a>
</g>
</g>
<!-- dir_9ac825d0161212ecde96f795c3a0b670&#45;&gt;dir_d44c64559bbebec7f509842c48db8b23 -->
<g id="edge1" class="edge">
<title>dir_9ac825d0161212ecde96f795c3a0b670&#45;&gt;dir_d44c64559bbebec7f509842c48db8b23</title>
<path fill="none" stroke="#000000" d="M705.113,-71.7604C700.6592,-68.7681 695.8471,-65.9974 691,-64 645.5101,-45.255 504.3542,-28.7842 436.3581,-21.6966"/>
<polygon fill="#000000" stroke="#000000" points="436.4049,-18.183 426.0991,-20.6408 435.6882,-25.1463 436.4049,-18.183"/>
<g id="a_edge1&#45;headlabel"><a xlink:href="dir_000011_000008.html" target="_top" xlink:title="7">
<text text-anchor="middle" x="440.2713" y="-12.7266" font-family="Helvetica,sans-Serif" font-size="10.00" fill="#000000">7</text>
</a>
</g>
</g>
<!-- dir_2725064ac5d6db7b2425ad4e379e8748 -->
<g id="node3" class="node">
<title>dir_2725064ac5d6db7b2425ad4e379e8748</title>
<g id="a_node3"><a xlink:href="dir_2725064ac5d6db7b2425ad4e379e8748.html" target="_top" xlink:title="boundary">
<polygon fill="#ffffff" stroke="#000000" points="681.7,-108 624.3,-108 624.3,-72 681.7,-72 681.7,-108"/>
<text text-anchor="middle" x="653" y="-87" font-family="Helvetica,sans-Serif" font-size="10.00" fill="#000000">boundary</text>
</a>
</g>
</g>
<!-- dir_2725064ac5d6db7b2425ad4e379e8748&#45;&gt;dir_d44c64559bbebec7f509842c48db8b23 -->
<g id="edge6" class="edge">
<title>dir_2725064ac5d6db7b2425ad4e379e8748&#45;&gt;dir_d44c64559bbebec7f509842c48db8b23</title>
<path fill="none" stroke="#000000" d="M629.7024,-71.9936C625.0191,-68.9797 619.9961,-66.1415 615,-64 555.4599,-38.4795 480.4264,-26.6086 436.2842,-21.4865"/>
<polygon fill="#000000" stroke="#000000" points="436.6114,-18.0014 426.2873,-20.3812 435.8421,-24.959 436.6114,-18.0014"/>
<g id="a_edge6&#45;headlabel"><a xlink:href="dir_000012_000008.html" target="_top" xlink:title="15">
<text text-anchor="middle" x="440.4962" y="-12.5743" font-family="Helvetica,sans-Serif" font-size="10.00" fill="#000000">15</text>
</a>
</g>
</g>
<!-- dir_c184e51c84f2c3f0345bbc8a0d75d3e1 -->
<g id="node4" class="node">
<title>dir_c184e51c84f2c3f0345bbc8a0d75d3e1</title>
<g id="a_node4"><a xlink:href="dir_c184e51c84f2c3f0345bbc8a0d75d3e1.html" target="_top" xlink:title="io">
<polygon fill="#ffffff" stroke="#000000" points="606,-108 552,-108 552,-72 606,-72 606,-108"/>
<text text-anchor="middle" x="579" y="-87" font-family="Helvetica,sans-Serif" font-size="10.00" fill="#000000">io</text>
</a>
</g>
</g>
<!-- dir_c184e51c84f2c3f0345bbc8a0d75d3e1&#45;&gt;dir_d44c64559bbebec7f509842c48db8b23 -->
<g id="edge7" class="edge">
<title>dir_c184e51c84f2c3f0345bbc8a0d75d3e1&#45;&gt;dir_d44c64559bbebec7f509842c48db8b23</title>
<path fill="none" stroke="#000000" d="M556.0585,-71.8136C551.8576,-68.9594 547.405,-66.2229 543,-64 508.5222,-46.6016 466.1026,-34.0061 436.2627,-26.4405"/>
<polygon fill="#000000" stroke="#000000" points="436.8135,-22.9715 426.2662,-23.9746 435.1369,-29.7678 436.8135,-22.9715"/>
<g id="a_edge7&#45;headlabel"><a xlink:href="dir_000013_000008.html" target="_top" xlink:title="1">
<text text-anchor="middle" x="440.9835" y="-18.0757" font-family="Helvetica,sans-Serif" font-size="10.00" fill="#000000">1</text>
</a>
</g>
</g>
<!-- dir_d4bb18432c0036d821398b3b49668d45 -->
<g id="node5" class="node">
<title>dir_d4bb18432c0036d821398b3b49668d45</title>
<g id="a_node5"><a xlink:href="dir_d4bb18432c0036d821398b3b49668d45.html" target="_top" xlink:title="linsolver">
<polygon fill="#ffffff" stroke="#000000" points="534,-108 480,-108 480,-72 534,-72 534,-108"/>
<text text-anchor="middle" x="507" y="-87" font-family="Helvetica,sans-Serif" font-size="10.00" fill="#000000">linsolver</text>
</a>
</g>
</g>
<!-- dir_d4bb18432c0036d821398b3b49668d45&#45;&gt;dir_d44c64559bbebec7f509842c48db8b23 -->
<g id="edge9" class="edge">
<title>dir_d4bb18432c0036d821398b3b49668d45&#45;&gt;dir_d44c64559bbebec7f509842c48db8b23</title>
<path fill="none" stroke="#000000" d="M482.343,-71.9103C478.5684,-69.2231 474.6981,-66.5138 471,-64 459.3669,-56.0924 446.4729,-47.7314 434.8482,-40.3378"/>
<polygon fill="#000000" stroke="#000000" points="436.5699,-37.2855 426.2481,-34.896 432.827,-43.2007 436.5699,-37.2855"/>
<g id="a_edge9&#45;headlabel"><a xlink:href="dir_000014_000008.html" target="_top" xlink:title="4">
<text text-anchor="middle" x="441.1257" y="-33.8082" font-family="Helvetica,sans-Serif" font-size="10.00" fill="#000000">4</text>
</a>
</g>
</g>
<!-- dir_7be0d8c199b9408ae01f5d77515b8def -->
<g id="node6" class="node">
<title>dir_7be0d8c199b9408ae01f5d77515b8def</title>
<g id="a_node6"><a xlink:href="dir_7be0d8c199b9408ae01f5d77515b8def.html" target="_top" xlink:title="mesh">
<polygon fill="#ffffff" stroke="#000000" points="462,-108 408,-108 408,-72 462,-72 462,-108"/>
<text text-anchor="middle" x="435" y="-87" font-family="Helvetica,sans-Serif" font-size="10.00" fill="#000000">mesh</text>
</a>
</g>
</g>
<!-- dir_7be0d8c199b9408ae01f5d77515b8def&#45;&gt;dir_d44c64559bbebec7f509842c48db8b23 -->
<g id="edge5" class="edge">
<title>dir_7be0d8c199b9408ae01f5d77515b8def&#45;&gt;dir_d44c64559bbebec7f509842c48db8b23</title>
<path fill="none" stroke="#000000" d="M425.9157,-71.8314C421.9385,-63.8771 417.1845,-54.369 412.7861,-45.5723"/>
<polygon fill="#000000" stroke="#000000" points="415.8093,-43.7923 408.2066,-36.4133 409.5483,-46.9228 415.8093,-43.7923"/>
<g id="a_edge5&#45;headlabel"><a xlink:href="dir_000015_000008.html" target="_top" xlink:title="7">
<text text-anchor="middle" x="419.9563" y="-42.7377" font-family="Helvetica,sans-Serif" font-size="10.00" fill="#000000">7</text>
</a>
</g>
</g>
<!-- dir_88826aa2a10e1882b573f502bc7f4b55 -->
<g id="node7" class="node">
<title>dir_88826aa2a10e1882b573f502bc7f4b55</title>
<g id="a_node7"><a xlink:href="dir_88826aa2a10e1882b573f502bc7f4b55.html" target="_top" xlink:title="misc">
<polygon fill="#ffffff" stroke="#000000" points="390,-108 336,-108 336,-72 390,-72 390,-108"/>
<text text-anchor="middle" x="363" y="-87" font-family="Helvetica,sans-Serif" font-size="10.00" fill="#000000">misc</text>
</a>
</g>
</g>
<!-- dir_88826aa2a10e1882b573f502bc7f4b55&#45;&gt;dir_d44c64559bbebec7f509842c48db8b23 -->
<g id="edge10" class="edge">
<title>dir_88826aa2a10e1882b573f502bc7f4b55&#45;&gt;dir_d44c64559bbebec7f509842c48db8b23</title>
<path fill="none" stroke="#000000" d="M372.0843,-71.8314C376.0615,-63.8771 380.8155,-54.369 385.2139,-45.5723"/>
<polygon fill="#000000" stroke="#000000" points="388.4517,-46.9228 389.7934,-36.4133 382.1907,-43.7923 388.4517,-46.9228"/>
<g id="a_edge10&#45;headlabel"><a xlink:href="dir_000016_000008.html" target="_top" xlink:title="4">
<text text-anchor="middle" x="389.3837" y="-48.4077" font-family="Helvetica,sans-Serif" font-size="10.00" fill="#000000">4</text>
</a>
</g>
</g>
<!-- dir_82efe83b87803b3f04ecf90d1f66df00 -->
<g id="node8" class="node">
<title>dir_82efe83b87803b3f04ecf90d1f66df00</title>
<g id="a_node8"><a xlink:href="dir_82efe83b87803b3f04ecf90d1f66df00.html" target="_top" xlink:title="operators">
<polygon fill="#ffffff" stroke="#000000" points="318.2466,-108 259.7534,-108 259.7534,-72 318.2466,-72 318.2466,-108"/>
<text text-anchor="middle" x="289" y="-87" font-family="Helvetica,sans-Serif" font-size="10.00" fill="#000000">operators</text>
</a>
</g>
</g>
<!-- dir_82efe83b87803b3f04ecf90d1f66df00&#45;&gt;dir_d44c64559bbebec7f509842c48db8b23 -->
<g id="edge2" class="edge">
<title>dir_82efe83b87803b3f04ecf90d1f66df00&#45;&gt;dir_d44c64559bbebec7f509842c48db8b23</title>
<path fill="none" stroke="#000000" d="M315.0921,-71.9886C319.0674,-69.2906 323.1328,-66.5574 327,-64 338.7327,-56.241 351.6526,-47.9185 363.2703,-40.5145"/>
<polygon fill="#000000" stroke="#000000" points="365.2966,-43.3737 371.8593,-35.0562 361.5421,-37.4658 365.2966,-43.3737"/>
<g id="a_edge2&#45;headlabel"><a xlink:href="dir_000017_000008.html" target="_top" xlink:title="18">
<text text-anchor="middle" x="363.7856" y="-44.698" font-family="Helvetica,sans-Serif" font-size="10.00" fill="#000000">18</text>
</a>
</g>
</g>
<!-- dir_6cd8491d143eb218b70983dbdb3c58bc -->
<g id="node9" class="node">
<title>dir_6cd8491d143eb218b70983dbdb3c58bc</title>
<g id="a_node9"><a xlink:href="dir_6cd8491d143eb218b70983dbdb3c58bc.html" target="_top" xlink:title="parser">
<polygon fill="#ffffff" stroke="#000000" points="242,-108 188,-108 188,-72 242,-72 242,-108"/>
<text text-anchor="middle" x="215" y="-87" font-family="Helvetica,sans-Serif" font-size="10.00" fill="#000000">parser</text>
</a>
</g>
</g>
<!-- dir_6cd8491d143eb218b70983dbdb3c58bc&#45;&gt;dir_d44c64559bbebec7f509842c48db8b23 -->
<g id="edge8" class="edge">
<title>dir_6cd8491d143eb218b70983dbdb3c58bc&#45;&gt;dir_d44c64559bbebec7f509842c48db8b23</title>
<path fill="none" stroke="#000000" d="M237.9268,-71.7844C242.1294,-68.9334 246.5863,-66.2056 251,-64 286.8968,-46.062 331.1992,-33.4123 361.93,-25.9773"/>
<polygon fill="#000000" stroke="#000000" points="362.8669,-29.3525 371.7998,-23.6556 361.264,-22.5385 362.8669,-29.3525"/>
<g id="a_edge8&#45;headlabel"><a xlink:href="dir_000018_000008.html" target="_top" xlink:title="5">
<text text-anchor="middle" x="360.0179" y="-29.9394" font-family="Helvetica,sans-Serif" font-size="10.00" fill="#000000">5</text>
</a>
</g>
</g>
<!-- dir_d87c8f45e11152a06ed0fc5dbd24c5a6 -->
<g id="node10" class="node">
<title>dir_d87c8f45e11152a06ed0fc5dbd24c5a6</title>
<g id="a_node10"><a xlink:href="dir_d87c8f45e11152a06ed0fc5dbd24c5a6.html" target="_top" xlink:title="solution">
<polygon fill="#ffffff" stroke="#000000" points="170,-108 116,-108 116,-72 170,-72 170,-108"/>
<text text-anchor="middle" x="143" y="-87" font-family="Helvetica,sans-Serif" font-size="10.00" fill="#000000">solution</text>
</a>
</g>
</g>
<!-- dir_d87c8f45e11152a06ed0fc5dbd24c5a6&#45;&gt;dir_d44c64559bbebec7f509842c48db8b23 -->
<g id="edge3" class="edge">
<title>dir_d87c8f45e11152a06ed0fc5dbd24c5a6&#45;&gt;dir_d44c64559bbebec7f509842c48db8b23</title>
<path fill="none" stroke="#000000" d="M164.97,-71.9549C169.4161,-68.9447 174.2042,-66.1176 179,-64 239.64,-37.2245 316.6784,-25.7287 361.6478,-21.0243"/>
<polygon fill="#000000" stroke="#000000" points="362.2125,-24.4857 371.8199,-20.0195 361.5243,-17.5196 362.2125,-24.4857"/>
<g id="a_edge3&#45;headlabel"><a xlink:href="dir_000019_000008.html" target="_top" xlink:title="6">
<text text-anchor="middle" x="358.9144" y="-24.6645" font-family="Helvetica,sans-Serif" font-size="10.00" fill="#000000">6</text>
</a>
</g>
</g>
<!-- dir_14fb37849f68930df67749c85234df30 -->
<g id="node11" class="node">
<title>dir_14fb37849f68930df67749c85234df30</title>
<g id="a_node11"><a xlink:href="dir_14fb37849f68930df67749c85234df30.html" target="_top" xlink:title="timeintegration">
<polygon fill="#ffffff" stroke="#000000" points="97.5918,-108 16.4082,-108 16.4082,-72 97.5918,-72 97.5918,-108"/>
<text text-anchor="middle" x="57" y="-87" font-family="Helvetica,sans-Serif" font-size="10.00" fill="#000000">timeintegration</text>
</a>
</g>
</g>
<!-- dir_14fb37849f68930df67749c85234df30&#45;&gt;dir_d44c64559bbebec7f509842c48db8b23 -->
<g id="edge4" class="edge">
<title>dir_14fb37849f68930df67749c85234df30&#45;&gt;dir_d44c64559bbebec7f509842c48db8b23</title>
<path fill="none" stroke="#000000" d="M88.0657,-71.8933C94.1899,-68.8887 100.6802,-66.0795 107,-64 195.388,-34.9165 305.0491,-23.9553 361.5114,-20.035"/>
<polygon fill="#000000" stroke="#000000" points="361.9967,-23.5107 371.7454,-19.3618 361.5372,-16.5258 361.9967,-23.5107"/>
<g id="a_edge4&#45;headlabel"><a xlink:href="dir_000020_000008.html" target="_top" xlink:title="1">
<text text-anchor="middle" x="358.5962" y="-23.5797" font-family="Helvetica,sans-Serif" font-size="10.00" fill="#000000">1</text>
</a>
</g>
</g>
</g>
</svg>
