<?xml version="1.0" encoding="UTF-8" standalone="no"?>
<!DOCTYPE svg PUBLIC "-//W3C//DTD SVG 1.1//EN"
 "http://www.w3.org/Graphics/SVG/1.1/DTD/svg11.dtd">
<!-- Generated by graphviz version 2.38.0 (20140413.2041)
 -->
<!-- Title: src Pages: 1 -->
<svg width="846pt" height="132pt"
 viewBox="0.00 0.00 846.00 132.00" xmlns="http://www.w3.org/2000/svg" xmlns:xlink="http://www.w3.org/1999/xlink">
<g id="graph0" class="graph" transform="scale(1 1) rotate(0) translate(4 128)">
<title>src</title>
<polygon fill="white" stroke="none" points="-4,4 -4,-128 842,-128 842,4 -4,4"/>
<g id="clust1" class="cluster"><title>clusterdir_68267d1309a1af8e8297ef4c3efbcdba</title>
<g id="a_clust1"><a xlink:href="dir_68267d1309a1af8e8297ef4c3efbcdba.html" target="_top">
<polygon fill="#eeeeff" stroke="black" points="8,-64 8,-116 830,-116 830,-64 8,-64"/>
</a>
</g>
</g>
<!-- dir_68267d1309a1af8e8297ef4c3efbcdba -->
<g id="node1" class="node"><title>dir_68267d1309a1af8e8297ef4c3efbcdba</title>
<text text-anchor="middle" x="795" y="-87.5" font-family="Helvetica,sans-Serif" font-size="10.00">src</text>
</g>
<!-- dir_9ac825d0161212ecde96f795c3a0b670 -->
<g id="node2" class="node"><title>dir_9ac825d0161212ecde96f795c3a0b670</title>
<g id="a_node2"><a xlink:href="dir_9ac825d0161212ecde96f795c3a0b670.html" target="_top" xlink:title="body">
<polygon fill="white" stroke="black" points="750,-108 696,-108 696,-72 750,-72 750,-108"/>
<text text-anchor="middle" x="723" y="-87.5" font-family="Helvetica,sans-Serif" font-size="10.00">body</text>
</a>
</g>
</g>
<!-- dir_d44c64559bbebec7f509842c48db8b23 -->
<g id="node12" class="node"><title>dir_d44c64559bbebec7f509842c48db8b23</title>
<g id="a_node12"><a xlink:href="dir_d44c64559bbebec7f509842c48db8b23.html" target="_top" xlink:title="include">
<polygon fill="white" stroke="red" points="424,-36 370,-36 370,-0 424,-0 424,-36"/>
<text text-anchor="middle" x="397" y="-15.5" font-family="Helvetica,sans-Serif" font-size="10.00">include</text>
</a>
</g>
</g>
<!-- dir_9ac825d0161212ecde96f795c3a0b670&#45;&gt;dir_d44c64559bbebec7f509842c48db8b23 -->
<g id="edge1" class="edge"><title>dir_9ac825d0161212ecde96f795c3a0b670&#45;&gt;dir_d44c64559bbebec7f509842c48db8b23</title>
<path fill="none" stroke="black" d="M701.825,-71.9734C697.16,-68.9022 692.087,-66.0345 687,-64 601.004,-29.6058 490.911,-21.3673 434.305,-19.4812"/>
<polygon fill="black" stroke="black" points="434.143,-15.9753 424.048,-19.1904 433.944,-22.9725 434.143,-15.9753"/>
<g id="a_edge1&#45;headlabel"><a xlink:href="dir_000011_000008.html" target="_top" xlink:title="7">
<text text-anchor="middle" x="437.816" y="-10.739" font-family="Helvetica,sans-Serif" font-size="10.00">7</text>
</a>
</g>
</g>
<!-- dir_2725064ac5d6db7b2425ad4e379e8748 -->
<g id="node3" class="node"><title>dir_2725064ac5d6db7b2425ad4e379e8748</title>
<g id="a_node3"><a xlink:href="dir_2725064ac5d6db7b2425ad4e379e8748.html" target="_top" xlink:title="boundary">
<polygon fill="white" stroke="black" points="678,-108 622,-108 622,-72 678,-72 678,-108"/>
<text text-anchor="middle" x="650" y="-87.5" font-family="Helvetica,sans-Serif" font-size="10.00">boundary</text>
</a>
</g>
</g>
<!-- dir_2725064ac5d6db7b2425ad4e379e8748&#45;&gt;dir_d44c64559bbebec7f509842c48db8b23 -->
<g id="edge6" class="edge"><title>dir_2725064ac5d6db7b2425ad4e379e8748&#45;&gt;dir_d44c64559bbebec7f509842c48db8b23</title>
<path fill="none" stroke="black" d="M627.703,-71.9306C623.03,-68.9386 617.999,-66.1123 613,-64 553.385,-38.8091 478.376,-27.2683 434.258,-22.3326"/>
<polygon fill="black" stroke="black" points="434.582,-18.8473 424.267,-21.2692 433.841,-25.808 434.582,-18.8473"/>
<g id="a_edge6&#45;headlabel"><a xlink:href="dir_000012_000008.html" target="_top" xlink:title="15">
<text text-anchor="middle" x="438.457" y="-13.9043" font-family="Helvetica,sans-Serif" font-size="10.00">15</text>
</a>
</g>
</g>
<!-- dir_c184e51c84f2c3f0345bbc8a0d75d3e1 -->
<g id="node4" class="node"><title>dir_c184e51c84f2c3f0345bbc8a0d75d3e1</title>
<g id="a_node4"><a xlink:href="dir_c184e51c84f2c3f0345bbc8a0d75d3e1.html" target="_top" xlink:title="io">
<polygon fill="white" stroke="black" points="604,-108 550,-108 550,-72 604,-72 604,-108"/>
<text text-anchor="middle" x="577" y="-87.5" font-family="Helvetica,sans-Serif" font-size="10.00">io</text>
</a>
</g>
</g>
<!-- dir_c184e51c84f2c3f0345bbc8a0d75d3e1&#45;&gt;dir_d44c64559bbebec7f509842c48db8b23 -->
<g id="edge7" class="edge"><title>dir_c184e51c84f2c3f0345bbc8a0d75d3e1&#45;&gt;dir_d44c64559bbebec7f509842c48db8b23</title>
<path fill="none" stroke="black" d="M554.4,-71.7749C550.089,-68.9373 545.511,-66.2067 541,-64 506.378,-47.0644 463.98,-34.7301 434.185,-27.3029"/>
<polygon fill="black" stroke="black" points="434.748,-23.8381 424.205,-24.881 433.097,-30.6407 434.748,-23.8381"/>
<g id="a_edge7&#45;headlabel"><a xlink:href="dir_000013_000008.html" target="_top" xlink:title="1">
<text text-anchor="middle" x="438.911" y="-19.4266" font-family="Helvetica,sans-Serif" font-size="10.00">1</text>
</a>
</g>
</g>
<!-- dir_d4bb18432c0036d821398b3b49668d45 -->
<g id="node5" class="node"><title>dir_d4bb18432c0036d821398b3b49668d45</title>
<g id="a_node5"><a xlink:href="dir_d4bb18432c0036d821398b3b49668d45.html" target="_top" xlink:title="linsolver">
<polygon fill="white" stroke="black" points="532,-108 478,-108 478,-72 532,-72 532,-108"/>
<text text-anchor="middle" x="505" y="-87.5" font-family="Helvetica,sans-Serif" font-size="10.00">linsolver</text>
</a>
</g>
</g>
<!-- dir_d4bb18432c0036d821398b3b49668d45&#45;&gt;dir_d44c64559bbebec7f509842c48db8b23 -->
<g id="edge9" class="edge"><title>dir_d4bb18432c0036d821398b3b49668d45&#45;&gt;dir_d44c64559bbebec7f509842c48db8b23</title>
<path fill="none" stroke="black" d="M480.709,-71.8948C476.815,-69.2208 472.812,-66.5127 469,-64 457.329,-56.307 444.425,-48.1387 432.803,-40.9029"/>
<polygon fill="black" stroke="black" points="434.551,-37.8683 424.207,-35.5746 430.863,-43.818 434.551,-37.8683"/>
<g id="a_edge9&#45;headlabel"><a xlink:href="dir_000014_000008.html" target="_top" xlink:title="4">
<text text-anchor="middle" x="439.102" y="-34.8488" font-family="Helvetica,sans-Serif" font-size="10.00">4</text>
</a>
</g>
</g>
<!-- dir_7be0d8c199b9408ae01f5d77515b8def -->
<g id="node6" class="node"><title>dir_7be0d8c199b9408ae01f5d77515b8def</title>
<g id="a_node6"><a xlink:href="dir_7be0d8c199b9408ae01f5d77515b8def.html" target="_top" xlink:title="mesh">
<polygon fill="white" stroke="black" points="460,-108 406,-108 406,-72 460,-72 460,-108"/>
<text text-anchor="middle" x="433" y="-87.5" font-family="Helvetica,sans-Serif" font-size="10.00">mesh</text>
</a>
</g>
</g>
<!-- dir_7be0d8c199b9408ae01f5d77515b8def&#45;&gt;dir_d44c64559bbebec7f509842c48db8b23 -->
<g id="edge5" class="edge"><title>dir_7be0d8c199b9408ae01f5d77515b8def&#45;&gt;dir_d44c64559bbebec7f509842c48db8b23</title>
<path fill="none" stroke="black" d="M424.101,-71.6966C420.003,-63.7284 415.051,-54.0995 410.507,-45.2641"/>
<polygon fill="black" stroke="black" points="413.483,-43.3965 405.797,-36.1043 407.258,-46.598 413.483,-43.3965"/>
<g id="a_edge5&#45;headlabel"><a xlink:href="dir_000015_000008.html" target="_top" xlink:title="7">
<text text-anchor="middle" x="417.651" y="-42.7946" font-family="Helvetica,sans-Serif" font-size="10.00">7</text>
</a>
</g>
</g>
<!-- dir_88826aa2a10e1882b573f502bc7f4b55 -->
<g id="node7" class="node"><title>dir_88826aa2a10e1882b573f502bc7f4b55</title>
<g id="a_node7"><a xlink:href="dir_88826aa2a10e1882b573f502bc7f4b55.html" target="_top" xlink:title="misc">
<polygon fill="white" stroke="black" points="388,-108 334,-108 334,-72 388,-72 388,-108"/>
<text text-anchor="middle" x="361" y="-87.5" font-family="Helvetica,sans-Serif" font-size="10.00">misc</text>
</a>
</g>
</g>
<!-- dir_88826aa2a10e1882b573f502bc7f4b55&#45;&gt;dir_d44c64559bbebec7f509842c48db8b23 -->
<g id="edge10" class="edge"><title>dir_88826aa2a10e1882b573f502bc7f4b55&#45;&gt;dir_d44c64559bbebec7f509842c48db8b23</title>
<path fill="none" stroke="black" d="M369.899,-71.6966C373.997,-63.7284 378.949,-54.0995 383.493,-45.2641"/>
<polygon fill="black" stroke="black" points="386.742,-46.598 388.203,-36.1043 380.517,-43.3965 386.742,-46.598"/>
<g id="a_edge10&#45;headlabel"><a xlink:href="dir_000016_000008.html" target="_top" xlink:title="4">
<text text-anchor="middle" x="387.623" y="-48.5931" font-family="Helvetica,sans-Serif" font-size="10.00">4</text>
</a>
</g>
</g>
<!-- dir_82efe83b87803b3f04ecf90d1f66df00 -->
<g id="node8" class="node"><title>dir_82efe83b87803b3f04ecf90d1f66df00</title>
<g id="a_node8"><a xlink:href="dir_82efe83b87803b3f04ecf90d1f66df00.html" target="_top" xlink:title="operators">
<polygon fill="white" stroke="black" points="315.5,-108 258.5,-108 258.5,-72 315.5,-72 315.5,-108"/>
<text text-anchor="middle" x="287" y="-87.5" font-family="Helvetica,sans-Serif" font-size="10.00">operators</text>
</a>
</g>
</g>
<!-- dir_82efe83b87803b3f04ecf90d1f66df00&#45;&gt;dir_d44c64559bbebec7f509842c48db8b23 -->
<g id="edge2" class="edge"><title>dir_82efe83b87803b3f04ecf90d1f66df00&#45;&gt;dir_d44c64559bbebec7f509842c48db8b23</title>
<path fill="none" stroke="black" d="M312.702,-71.9743C316.805,-69.29 321.012,-66.5579 325,-64 336.766,-56.4539 349.695,-48.3238 361.31,-41.0776"/>
<polygon fill="black" stroke="black" points="363.256,-43.9893 369.896,-35.7331 359.557,-38.0467 363.256,-43.9893"/>
<g id="a_edge2&#45;headlabel"><a xlink:href="dir_000017_000008.html" target="_top" xlink:title="18">
<text text-anchor="middle" x="361.705" y="-45.7993" font-family="Helvetica,sans-Serif" font-size="10.00">18</text>
</a>
</g>
</g>
<!-- dir_6cd8491d143eb218b70983dbdb3c58bc -->
<g id="node9" class="node"><title>dir_6cd8491d143eb218b70983dbdb3c58bc</title>
<g id="a_node9"><a xlink:href="dir_6cd8491d143eb218b70983dbdb3c58bc.html" target="_top" xlink:title="parser">
<polygon fill="white" stroke="black" points="240,-108 186,-108 186,-72 240,-72 240,-108"/>
<text text-anchor="middle" x="213" y="-87.5" font-family="Helvetica,sans-Serif" font-size="10.00">parser</text>
</a>
</g>
</g>
<!-- dir_6cd8491d143eb218b70983dbdb3c58bc&#45;&gt;dir_d44c64559bbebec7f509842c48db8b23 -->
<g id="edge8" class="edge"><title>dir_6cd8491d143eb218b70983dbdb3c58bc&#45;&gt;dir_d44c64559bbebec7f509842c48db8b23</title>
<path fill="none" stroke="black" d="M236.261,-71.7728C240.687,-68.9354 245.383,-66.2054 250,-64 285.81,-46.8942 329.613,-34.4782 360.043,-27.0749"/>
<polygon fill="black" stroke="black" points="360.896,-30.4697 369.819,-24.7569 359.281,-23.6585 360.896,-30.4697"/>
<g id="a_edge8&#45;headlabel"><a xlink:href="dir_000018_000008.html" target="_top" xlink:title="2">
<text text-anchor="middle" x="358.054" y="-31.5616" font-family="Helvetica,sans-Serif" font-size="10.00">2</text>
</a>
</g>
</g>
<!-- dir_d87c8f45e11152a06ed0fc5dbd24c5a6 -->
<g id="node10" class="node"><title>dir_d87c8f45e11152a06ed0fc5dbd24c5a6</title>
<g id="a_node10"><a xlink:href="dir_d87c8f45e11152a06ed0fc5dbd24c5a6.html" target="_top" xlink:title="solution">
<polygon fill="white" stroke="black" points="168,-108 114,-108 114,-72 168,-72 168,-108"/>
<text text-anchor="middle" x="141" y="-87.5" font-family="Helvetica,sans-Serif" font-size="10.00">solution</text>
</a>
</g>
</g>
<!-- dir_d87c8f45e11152a06ed0fc5dbd24c5a6&#45;&gt;dir_d44c64559bbebec7f509842c48db8b23 -->
<g id="edge3" class="edge"><title>dir_d87c8f45e11152a06ed0fc5dbd24c5a6&#45;&gt;dir_d44c64559bbebec7f509842c48db8b23</title>
<path fill="none" stroke="black" d="M162.642,-71.9043C167.193,-68.9145 172.103,-66.0957 177,-64 237.887,-37.9428 314.845,-26.6523 359.732,-22.0048"/>
<polygon fill="black" stroke="black" points="360.273,-25.4687 369.884,-21.011 359.591,-18.502 360.273,-25.4687"/>
<g id="a_edge3&#45;headlabel"><a xlink:href="dir_000019_000008.html" target="_top" xlink:title="6">
<text text-anchor="middle" x="356.972" y="-26.1446" font-family="Helvetica,sans-Serif" font-size="10.00">6</text>
</a>
</g>
</g>
<!-- dir_14fb37849f68930df67749c85234df30 -->
<g id="node11" class="node"><title>dir_14fb37849f68930df67749c85234df30</title>
<g id="a_node11"><a xlink:href="dir_14fb37849f68930df67749c85234df30.html" target="_top" xlink:title="timeintegration">
<polygon fill="white" stroke="black" points="96,-108 16,-108 16,-72 96,-72 96,-108"/>
<text text-anchor="middle" x="56" y="-87.5" font-family="Helvetica,sans-Serif" font-size="10.00">timeintegration</text>
</a>
</g>
</g>
<!-- dir_14fb37849f68930df67749c85234df30&#45;&gt;dir_d44c64559bbebec7f509842c48db8b23 -->
<g id="edge4" class="edge"><title>dir_14fb37849f68930df67749c85234df30&#45;&gt;dir_d44c64559bbebec7f509842c48db8b23</title>
<path fill="none" stroke="black" d="M85.6743,-71.9667C91.905,-68.9345 98.5474,-66.0836 105,-64 193.502,-35.4217 303.115,-24.7517 359.54,-20.9583"/>
<polygon fill="black" stroke="black" points="360.01,-24.4356 369.767,-20.3076 359.565,-17.4498 360.01,-24.4356"/>
<g id="a_edge4&#45;headlabel"><a xlink:href="dir_000020_000008.html" target="_top" xlink:title="1">
<text text-anchor="middle" x="356.603" y="-24.9973" font-family="Helvetica,sans-Serif" font-size="10.00">1</text>
</a>
</g>
</g>
</g>
</svg>
