<?xml version="1.0" encoding="UTF-8" standalone="no"?>
<!DOCTYPE svg PUBLIC "-//W3C//DTD SVG 1.1//EN"
 "http://www.w3.org/Graphics/SVG/1.1/DTD/svg11.dtd">
<!-- Generated by graphviz version 2.38.0 (20140413.2041)
 -->
<!-- Title: applications/rigidkinematics Pages: 1 -->
<svg width="122pt" height="151pt"
 viewBox="0.00 0.00 122.00 151.00" xmlns="http://www.w3.org/2000/svg" xmlns:xlink="http://www.w3.org/1999/xlink">
<g id="graph0" class="graph" transform="scale(1 1) rotate(0) translate(4 147)">
<title>applications/rigidkinematics</title>
<polygon fill="white" stroke="none" points="-4,4 -4,-147 118,-147 118,4 -4,4"/>
<g id="clust1" class="cluster"><title>clusterdir_a6e4fee11f07c3b70486e88fe92cbbdc</title>
<g id="a_clust1"><a xlink:href="dir_a6e4fee11f07c3b70486e88fe92cbbdc.html" target="_top" xlink:title="applications">
<polygon fill="#ddddee" stroke="black" points="8,-64 8,-135 106,-135 106,-64 8,-64"/>
<text text-anchor="middle" x="57" y="-123" font-family="Helvetica,sans-Serif" font-size="10.00">applications</text>
</a>
</g>
</g>
<!-- dir_923af7a52dca6932eb1eb9b66eb6d618 -->
<g id="node1" class="node"><title>dir_923af7a52dca6932eb1eb9b66eb6d618</title>
<g id="a_node1"><a xlink:href="dir_923af7a52dca6932eb1eb9b66eb6d618.html" target="_top" xlink:title="rigidkinematics">
<polygon fill="#eeeeff" stroke="black" points="98,-108 16,-108 16,-72 98,-72 98,-108"/>
<text text-anchor="middle" x="57" y="-87.5" font-family="Helvetica,sans-Serif" font-size="10.00">rigidkinematics</text>
</a>
</g>
</g>
<!-- dir_02799f4d4439ae71e263b5891136b552 -->
<g id="node2" class="node"><title>dir_02799f4d4439ae71e263b5891136b552</title>
<g id="a_node2"><a xlink:href="dir_02799f4d4439ae71e263b5891136b552.html" target="_top" xlink:title="decoupledibpm">
<polygon fill="none" stroke="black" points="98,-36 16,-36 16,-0 98,-0 98,-36"/>
<text text-anchor="middle" x="57" y="-15.5" font-family="Helvetica,sans-Serif" font-size="10.00">decoupledibpm</text>
</a>
</g>
</g>
<!-- dir_923af7a52dca6932eb1eb9b66eb6d618&#45;&gt;dir_02799f4d4439ae71e263b5891136b552 -->
<g id="edge1" class="edge"><title>dir_923af7a52dca6932eb1eb9b66eb6d618&#45;&gt;dir_02799f4d4439ae71e263b5891136b552</title>
<path fill="none" stroke="black" d="M57,-71.6966C57,-63.9827 57,-54.7125 57,-46.1124"/>
<polygon fill="black" stroke="black" points="60.5001,-46.1043 57,-36.1043 53.5001,-46.1044 60.5001,-46.1043"/>
<g id="a_edge1&#45;headlabel"><a xlink:href="dir_000009_000002.html" target="_top" xlink:title="1">
<text text-anchor="middle" x="63.3393" y="-47.199" font-family="Helvetica,sans-Serif" font-size="10.00">1</text>
</a>
</g>
</g>
</g>
</svg>
