<?xml version="1.0" encoding="UTF-8" standalone="no"?>
<!DOCTYPE svg PUBLIC "-//W3C//DTD SVG 1.1//EN"
 "http://www.w3.org/Graphics/SVG/1.1/DTD/svg11.dtd">
<!-- Generated by graphviz version 3.0.0 (0)
 -->
<!-- Title: applications Pages: 1 -->
<svg width="444pt" height="276pt"
 viewBox="0.00 0.00 444.00 276.00" xmlns="http://www.w3.org/2000/svg" xmlns:xlink="http://www.w3.org/1999/xlink">
<g id="graph0" class="graph" transform="scale(1 1) rotate(0) translate(4 272)">
<title>applications</title>
<polygon fill="white" stroke="transparent" points="-4,4 -4,-272 440,-272 440,4 -4,4"/>
<g id="clust1" class="cluster">
<title>clusterdir_a6e4fee11f07c3b70486e88fe92cbbdc</title>
<g id="a_clust1"><a xlink:href="dir_a6e4fee11f07c3b70486e88fe92cbbdc.html" target="_top">
<polygon fill="#edf0f7" stroke="#404040" stroke-width="2" points="8,-64 8,-260 428,-260 428,-64 8,-64"/>
</a>
</g>
</g>
<!-- dir_a6e4fee11f07c3b70486e88fe92cbbdc -->
<g id="node1" class="node">
<title>dir_a6e4fee11f07c3b70486e88fe92cbbdc</title>
<text text-anchor="middle" x="386" y="-231.5" font-family="Helvetica,sans-Serif" font-size="10.00">applications</text>
</g>
<!-- dir_52b06b12098494e939aa8d0b4132bf3d -->
<g id="node2" class="node">
<title>dir_52b06b12098494e939aa8d0b4132bf3d</title>
<g id="a_node2"><a xlink:href="dir_52b06b12098494e939aa8d0b4132bf3d.html" target="_top" xlink:title="createxdmf">
<polygon fill="#a2b4d6" stroke="#404040" points="181.5,-252 116.5,-252 116.5,-216 181.5,-216 181.5,-252"/>
<text text-anchor="middle" x="149" y="-231.5" font-family="Helvetica,sans-Serif" font-size="10.00">createxdmf</text>
</a>
</g>
</g>
<!-- dir_d44c64559bbebec7f509842c48db8b23 -->
<g id="node9" class="node">
<title>dir_d44c64559bbebec7f509842c48db8b23</title>
<g id="a_node9"><a xlink:href="dir_d44c64559bbebec7f509842c48db8b23.html" target="_top" xlink:title="include">
<polygon fill="none" stroke="red" points="206,-36 152,-36 152,0 206,0 206,-36"/>
<text text-anchor="middle" x="179" y="-15.5" font-family="Helvetica,sans-Serif" font-size="10.00">include</text>
</a>
</g>
</g>
<!-- dir_52b06b12098494e939aa8d0b4132bf3d&#45;&gt;dir_d44c64559bbebec7f509842c48db8b23 -->
<g id="edge1" class="edge">
<title>dir_52b06b12098494e939aa8d0b4132bf3d&#45;&gt;dir_d44c64559bbebec7f509842c48db8b23</title>
<path fill="none" stroke="black" d="M161.73,-215.85C168.29,-205.92 175.61,-192.88 179,-180 191.02,-134.35 187.18,-78.85 183.18,-46.37"/>
<polygon fill="black" stroke="black" points="186.62,-45.74 181.83,-36.29 179.68,-46.66 186.62,-45.74"/>
<g id="a_edge1&#45;headlabel"><a xlink:href="dir_000005_000009.html" target="_top" xlink:title="3">
<text text-anchor="middle" x="189.91" y="-46.43" font-family="Helvetica,sans-Serif" font-size="10.00">3</text>
</a>
</g>
</g>
<!-- dir_02799f4d4439ae71e263b5891136b552 -->
<g id="node3" class="node">
<title>dir_02799f4d4439ae71e263b5891136b552</title>
<g id="a_node3"><a xlink:href="dir_02799f4d4439ae71e263b5891136b552.html" target="_top" xlink:title="decoupledibpm">
<polygon fill="#a2b4d6" stroke="#404040" points="98,-180 16,-180 16,-144 98,-144 98,-180"/>
<text text-anchor="middle" x="57" y="-159.5" font-family="Helvetica,sans-Serif" font-size="10.00">decoupledibpm</text>
</a>
</g>
</g>
<!-- dir_5a17396c6ee06cf41110d2e7bc9bd347 -->
<g id="node5" class="node">
<title>dir_5a17396c6ee06cf41110d2e7bc9bd347</title>
<g id="a_node5"><a xlink:href="dir_5a17396c6ee06cf41110d2e7bc9bd347.html" target="_top" xlink:title="navierstokes">
<polygon fill="#a2b4d6" stroke="#404040" points="94,-108 22,-108 22,-72 94,-72 94,-108"/>
<text text-anchor="middle" x="58" y="-87.5" font-family="Helvetica,sans-Serif" font-size="10.00">navierstokes</text>
</a>
</g>
</g>
<!-- dir_02799f4d4439ae71e263b5891136b552&#45;&gt;dir_5a17396c6ee06cf41110d2e7bc9bd347 -->
<g id="edge2" class="edge">
<title>dir_02799f4d4439ae71e263b5891136b552&#45;&gt;dir_5a17396c6ee06cf41110d2e7bc9bd347</title>
<path fill="none" stroke="black" d="M57.25,-143.7C57.36,-135.98 57.49,-126.71 57.61,-118.11"/>
<polygon fill="black" stroke="black" points="61.11,-118.15 57.76,-108.1 54.11,-118.05 61.11,-118.15"/>
<g id="a_edge2&#45;headlabel"><a xlink:href="dir_000006_000017.html" target="_top" xlink:title="1">
<text text-anchor="middle" x="63.9" y="-119.29" font-family="Helvetica,sans-Serif" font-size="10.00">1</text>
</a>
</g>
</g>
<!-- dir_02799f4d4439ae71e263b5891136b552&#45;&gt;dir_d44c64559bbebec7f509842c48db8b23 -->
<g id="edge3" class="edge">
<title>dir_02799f4d4439ae71e263b5891136b552&#45;&gt;dir_d44c64559bbebec7f509842c48db8b23</title>
<path fill="none" stroke="black" d="M71.95,-143.84C80.97,-133.48 92.67,-120 103,-108 121.62,-86.37 142.69,-61.68 157.92,-43.8"/>
<polygon fill="black" stroke="black" points="160.65,-45.98 164.47,-36.1 155.32,-41.44 160.65,-45.98"/>
<g id="a_edge3&#45;headlabel"><a xlink:href="dir_000006_000009.html" target="_top" xlink:title="3">
<text text-anchor="middle" x="160.49" y="-48.06" font-family="Helvetica,sans-Serif" font-size="10.00">3</text>
</a>
</g>
</g>
<!-- dir_d6d107984486c79e0c1e0c38780e7601 -->
<g id="node4" class="node">
<title>dir_d6d107984486c79e0c1e0c38780e7601</title>
<g id="a_node4"><a xlink:href="dir_d6d107984486c79e0c1e0c38780e7601.html" target="_top" xlink:title="ibpm">
<polygon fill="#a2b4d6" stroke="#404040" points="170,-180 116,-180 116,-144 170,-144 170,-180"/>
<text text-anchor="middle" x="143" y="-159.5" font-family="Helvetica,sans-Serif" font-size="10.00">ibpm</text>
</a>
</g>
</g>
<!-- dir_d6d107984486c79e0c1e0c38780e7601&#45;&gt;dir_5a17396c6ee06cf41110d2e7bc9bd347 -->
<g id="edge4" class="edge">
<title>dir_d6d107984486c79e0c1e0c38780e7601&#45;&gt;dir_5a17396c6ee06cf41110d2e7bc9bd347</title>
<path fill="none" stroke="black" d="M121.99,-143.7C111.28,-134.88 98.11,-124.03 86.5,-114.47"/>
<polygon fill="black" stroke="black" points="88.71,-111.76 78.77,-108.1 84.26,-117.16 88.71,-111.76"/>
<g id="a_edge4&#45;headlabel"><a xlink:href="dir_000008_000017.html" target="_top" xlink:title="1">
<text text-anchor="middle" x="93.29" y="-109.35" font-family="Helvetica,sans-Serif" font-size="10.00">1</text>
</a>
</g>
</g>
<!-- dir_d6d107984486c79e0c1e0c38780e7601&#45;&gt;dir_d44c64559bbebec7f509842c48db8b23 -->
<g id="edge5" class="edge">
<title>dir_d6d107984486c79e0c1e0c38780e7601&#45;&gt;dir_d44c64559bbebec7f509842c48db8b23</title>
<path fill="none" stroke="black" d="M147.34,-143.87C153.5,-119.56 164.85,-74.82 172.15,-46.01"/>
<polygon fill="black" stroke="black" points="175.58,-46.74 174.64,-36.19 168.79,-45.02 175.58,-46.74"/>
<g id="a_edge5&#45;headlabel"><a xlink:href="dir_000008_000009.html" target="_top" xlink:title="4">
<text text-anchor="middle" x="177.45" y="-48.42" font-family="Helvetica,sans-Serif" font-size="10.00">4</text>
</a>
</g>
</g>
<!-- dir_5a17396c6ee06cf41110d2e7bc9bd347&#45;&gt;dir_d44c64559bbebec7f509842c48db8b23 -->
<g id="edge6" class="edge">
<title>dir_5a17396c6ee06cf41110d2e7bc9bd347&#45;&gt;dir_d44c64559bbebec7f509842c48db8b23</title>
<path fill="none" stroke="black" d="M87.6,-71.88C104.28,-62.23 125.25,-50.1 142.89,-39.89"/>
<polygon fill="black" stroke="black" points="144.87,-42.79 151.77,-34.75 141.37,-36.73 144.87,-42.79"/>
<g id="a_edge6&#45;headlabel"><a xlink:href="dir_000017_000009.html" target="_top" xlink:title="9">
<text text-anchor="middle" x="143.18" y="-44.55" font-family="Helvetica,sans-Serif" font-size="10.00">9</text>
</a>
</g>
</g>
<!-- dir_923af7a52dca6932eb1eb9b66eb6d618 -->
<g id="node6" class="node">
<title>dir_923af7a52dca6932eb1eb9b66eb6d618</title>
<g id="a_node6"><a xlink:href="dir_923af7a52dca6932eb1eb9b66eb6d618.html" target="_top" xlink:title="rigidkinematics">
<polygon fill="#a2b4d6" stroke="#404040" points="98,-252 16,-252 16,-216 98,-216 98,-252"/>
<text text-anchor="middle" x="57" y="-231.5" font-family="Helvetica,sans-Serif" font-size="10.00">rigidkinematics</text>
</a>
</g>
</g>
<!-- dir_923af7a52dca6932eb1eb9b66eb6d618&#45;&gt;dir_02799f4d4439ae71e263b5891136b552 -->
<g id="edge7" class="edge">
<title>dir_923af7a52dca6932eb1eb9b66eb6d618&#45;&gt;dir_02799f4d4439ae71e263b5891136b552</title>
<path fill="none" stroke="black" d="M57,-215.7C57,-207.98 57,-198.71 57,-190.11"/>
<polygon fill="black" stroke="black" points="60.5,-190.1 57,-180.1 53.5,-190.1 60.5,-190.1"/>
<g id="a_edge7&#45;headlabel"><a xlink:href="dir_000022_000006.html" target="_top" xlink:title="1">
<text text-anchor="middle" x="63.34" y="-191.2" font-family="Helvetica,sans-Serif" font-size="10.00">1</text>
</a>
</g>
</g>
<!-- dir_06ecf09adf175a7d29131d5569c50439 -->
<g id="node7" class="node">
<title>dir_06ecf09adf175a7d29131d5569c50439</title>
<g id="a_node7"><a xlink:href="dir_06ecf09adf175a7d29131d5569c50439.html" target="_top" xlink:title="vorticity">
<polygon fill="#a2b4d6" stroke="#404040" points="254,-252 200,-252 200,-216 254,-216 254,-252"/>
<text text-anchor="middle" x="227" y="-231.5" font-family="Helvetica,sans-Serif" font-size="10.00">vorticity</text>
</a>
</g>
</g>
<!-- dir_06ecf09adf175a7d29131d5569c50439&#45;&gt;dir_d44c64559bbebec7f509842c48db8b23 -->
<g id="edge8" class="edge">
<title>dir_06ecf09adf175a7d29131d5569c50439&#45;&gt;dir_d44c64559bbebec7f509842c48db8b23</title>
<path fill="none" stroke="black" d="M226.07,-215.83C224.02,-184.84 217.87,-117.82 201,-64 199.02,-57.68 196.27,-51.14 193.39,-45.07"/>
<polygon fill="black" stroke="black" points="196.46,-43.38 188.84,-36.02 190.2,-46.52 196.46,-43.38"/>
<g id="a_edge8&#45;headlabel"><a xlink:href="dir_000027_000009.html" target="_top" xlink:title="6">
<text text-anchor="middle" x="200.61" y="-42.82" font-family="Helvetica,sans-Serif" font-size="10.00">6</text>
</a>
</g>
</g>
<!-- dir_c2d09c1acb9fdd94adeea58e00561584 -->
<g id="node8" class="node">
<title>dir_c2d09c1acb9fdd94adeea58e00561584</title>
<g id="a_node8"><a xlink:href="dir_c2d09c1acb9fdd94adeea58e00561584.html" target="_top" xlink:title="writemesh">
<polygon fill="#a2b4d6" stroke="#404040" points="334,-252 272,-252 272,-216 334,-216 334,-252"/>
<text text-anchor="middle" x="303" y="-231.5" font-family="Helvetica,sans-Serif" font-size="10.00">writemesh</text>
</a>
</g>
</g>
<!-- dir_c2d09c1acb9fdd94adeea58e00561584&#45;&gt;dir_d44c64559bbebec7f509842c48db8b23 -->
<g id="edge9" class="edge">
<title>dir_c2d09c1acb9fdd94adeea58e00561584&#45;&gt;dir_d44c64559bbebec7f509842c48db8b23</title>
<path fill="none" stroke="black" d="M296.64,-215.78C284.54,-184.16 256.24,-115.36 221,-64 216.24,-57.06 210.43,-50.13 204.67,-43.86"/>
<polygon fill="black" stroke="black" points="206.92,-41.15 197.49,-36.33 201.86,-45.98 206.92,-41.15"/>
<g id="a_edge9&#45;headlabel"><a xlink:href="dir_000028_000009.html" target="_top" xlink:title="2">
<text text-anchor="middle" x="211.46" y="-39.29" font-family="Helvetica,sans-Serif" font-size="10.00">2</text>
</a>
</g>
</g>
</g>
</svg>
