<?xml version="1.0" encoding="UTF-8" standalone="no"?>
<!DOCTYPE svg PUBLIC "-//W3C//DTD SVG 1.1//EN"
 "http://www.w3.org/Graphics/SVG/1.1/DTD/svg11.dtd">
<!-- Generated by graphviz version 2.40.1 (20161225.0304)
 -->
<!-- Title: applications Pages: 1 -->
<svg width="456pt" height="204pt"
 viewBox="0.00 0.00 456.00 204.00" xmlns="http://www.w3.org/2000/svg" xmlns:xlink="http://www.w3.org/1999/xlink">
<g id="graph0" class="graph" transform="scale(1 1) rotate(0) translate(4 200)">
<title>applications</title>
<polygon fill="#ffffff" stroke="transparent" points="-4,4 -4,-200 452,-200 452,4 -4,4"/>
<g id="clust1" class="cluster">
<title>clusterdir_a6e4fee11f07c3b70486e88fe92cbbdc</title>
<g id="a_clust1"><a xlink:href="dir_a6e4fee11f07c3b70486e88fe92cbbdc.html" target="_top">
<polygon fill="#eeeeff" stroke="#000000" points="8,-64 8,-188 440,-188 440,-64 8,-64"/>
</a>
</g>
</g>
<!-- dir_a6e4fee11f07c3b70486e88fe92cbbdc -->
<g id="node1" class="node">
<title>dir_a6e4fee11f07c3b70486e88fe92cbbdc</title>
<text text-anchor="middle" x="398" y="-159" font-family="Helvetica,sans-Serif" font-size="10.00" fill="#000000">applications</text>
</g>
<!-- dir_52b06b12098494e939aa8d0b4132bf3d -->
<g id="node2" class="node">
<title>dir_52b06b12098494e939aa8d0b4132bf3d</title>
<g id="a_node2"><a xlink:href="dir_52b06b12098494e939aa8d0b4132bf3d.html" target="_top" xlink:title="createxdmf">
<polygon fill="#ffffff" stroke="#000000" points="273.9645,-180 208.0355,-180 208.0355,-144 273.9645,-144 273.9645,-180"/>
<text text-anchor="middle" x="241" y="-159" font-family="Helvetica,sans-Serif" font-size="10.00" fill="#000000">createxdmf</text>
</a>
</g>
</g>
<!-- dir_d44c64559bbebec7f509842c48db8b23 -->
<g id="node7" class="node">
<title>dir_d44c64559bbebec7f509842c48db8b23</title>
<g id="a_node7"><a xlink:href="dir_d44c64559bbebec7f509842c48db8b23.html" target="_top" xlink:title="include">
<polygon fill="#ffffff" stroke="#ff0000" points="198,-36 144,-36 144,0 198,0 198,-36"/>
<text text-anchor="middle" x="171" y="-15" font-family="Helvetica,sans-Serif" font-size="10.00" fill="#000000">include</text>
</a>
</g>
</g>
<!-- dir_52b06b12098494e939aa8d0b4132bf3d&#45;&gt;dir_d44c64559bbebec7f509842c48db8b23 -->
<g id="edge7" class="edge">
<title>dir_52b06b12098494e939aa8d0b4132bf3d&#45;&gt;dir_d44c64559bbebec7f509842c48db8b23</title>
<path fill="none" stroke="#000000" d="M232.1345,-143.7623C220.0372,-118.8764 198.2622,-74.0822 184.2302,-45.2165"/>
<polygon fill="#000000" stroke="#000000" points="187.3133,-43.5531 179.7936,-36.0896 181.0178,-46.6135 187.3133,-43.5531"/>
<g id="a_edge7&#45;headlabel"><a xlink:href="dir_000001_000008.html" target="_top" xlink:title="3">
<text text-anchor="middle" x="191.4384" y="-42.5447" font-family="Helvetica,sans-Serif" font-size="10.00" fill="#000000">3</text>
</a>
</g>
</g>
<!-- dir_02799f4d4439ae71e263b5891136b552 -->
<g id="node3" class="node">
<title>dir_02799f4d4439ae71e263b5891136b552</title>
<g id="a_node3"><a xlink:href="dir_02799f4d4439ae71e263b5891136b552.html" target="_top" xlink:title="decoupledibpm">
<polygon fill="#ffffff" stroke="#000000" points="99.8273,-180 16.1727,-180 16.1727,-144 99.8273,-144 99.8273,-180"/>
<text text-anchor="middle" x="58" y="-159" font-family="Helvetica,sans-Serif" font-size="10.00" fill="#000000">decoupledibpm</text>
</a>
</g>
</g>
<!-- dir_5a17396c6ee06cf41110d2e7bc9bd347 -->
<g id="node4" class="node">
<title>dir_5a17396c6ee06cf41110d2e7bc9bd347</title>
<g id="a_node4"><a xlink:href="dir_5a17396c6ee06cf41110d2e7bc9bd347.html" target="_top" xlink:title="navierstokes">
<polygon fill="#ffffff" stroke="#000000" points="105.1378,-108 32.8622,-108 32.8622,-72 105.1378,-72 105.1378,-108"/>
<text text-anchor="middle" x="69" y="-87" font-family="Helvetica,sans-Serif" font-size="10.00" fill="#000000">navierstokes</text>
</a>
</g>
</g>
<!-- dir_02799f4d4439ae71e263b5891136b552&#45;&gt;dir_5a17396c6ee06cf41110d2e7bc9bd347 -->
<g id="edge1" class="edge">
<title>dir_02799f4d4439ae71e263b5891136b552&#45;&gt;dir_5a17396c6ee06cf41110d2e7bc9bd347</title>
<path fill="none" stroke="#000000" d="M60.7758,-143.8314C61.9522,-136.131 63.3511,-126.9743 64.6586,-118.4166"/>
<polygon fill="#000000" stroke="#000000" points="68.1364,-118.8272 66.1869,-108.4133 61.2167,-117.7699 68.1364,-118.8272"/>
<g id="a_edge1&#45;headlabel"><a xlink:href="dir_000002_000003.html" target="_top" xlink:title="1">
<text text-anchor="middle" x="70.4003" y="-119.8093" font-family="Helvetica,sans-Serif" font-size="10.00" fill="#000000">1</text>
</a>
</g>
</g>
<!-- dir_02799f4d4439ae71e263b5891136b552&#45;&gt;dir_d44c64559bbebec7f509842c48db8b23 -->
<g id="edge2" class="edge">
<title>dir_02799f4d4439ae71e263b5891136b552&#45;&gt;dir_d44c64559bbebec7f509842c48db8b23</title>
<path fill="none" stroke="#000000" d="M79.1389,-143.8439C90.164,-133.8435 103.5017,-120.8747 114,-108 130.198,-88.1354 145.5629,-63.4027 156.2497,-44.8942"/>
<polygon fill="#000000" stroke="#000000" points="159.3496,-46.5232 161.2471,-36.0997 153.2635,-43.0648 159.3496,-46.5232"/>
<g id="a_edge2&#45;headlabel"><a xlink:href="dir_000002_000008.html" target="_top" xlink:title="2">
<text text-anchor="middle" x="160.0423" y="-48.0512" font-family="Helvetica,sans-Serif" font-size="10.00" fill="#000000">2</text>
</a>
</g>
</g>
<!-- dir_5a17396c6ee06cf41110d2e7bc9bd347&#45;&gt;dir_d44c64559bbebec7f509842c48db8b23 -->
<g id="edge3" class="edge">
<title>dir_5a17396c6ee06cf41110d2e7bc9bd347&#45;&gt;dir_d44c64559bbebec7f509842c48db8b23</title>
<path fill="none" stroke="#000000" d="M94.7389,-71.8314C107.5437,-62.7927 123.1909,-51.7476 136.9719,-42.0198"/>
<polygon fill="#000000" stroke="#000000" points="139.118,-44.7891 145.2693,-36.1628 135.0812,-39.0703 139.118,-44.7891"/>
<g id="a_edge3&#45;headlabel"><a xlink:href="dir_000003_000008.html" target="_top" xlink:title="7">
<text text-anchor="middle" x="137.8187" y="-46.1816" font-family="Helvetica,sans-Serif" font-size="10.00" fill="#000000">7</text>
</a>
</g>
</g>
<!-- dir_953622b4cb238e58a254835668ef4655 -->
<g id="node5" class="node">
<title>dir_953622b4cb238e58a254835668ef4655</title>
<g id="a_node5"><a xlink:href="dir_953622b4cb238e58a254835668ef4655.html" target="_top" xlink:title="tairacolonius">
<polygon fill="#ffffff" stroke="#000000" points="190.1427,-180 117.8573,-180 117.8573,-144 190.1427,-144 190.1427,-180"/>
<text text-anchor="middle" x="154" y="-159" font-family="Helvetica,sans-Serif" font-size="10.00" fill="#000000">tairacolonius</text>
</a>
</g>
</g>
<!-- dir_953622b4cb238e58a254835668ef4655&#45;&gt;dir_5a17396c6ee06cf41110d2e7bc9bd347 -->
<g id="edge4" class="edge">
<title>dir_953622b4cb238e58a254835668ef4655&#45;&gt;dir_5a17396c6ee06cf41110d2e7bc9bd347</title>
<path fill="none" stroke="#000000" d="M132.5509,-143.8314C122.1822,-135.0485 109.5771,-124.3712 98.3354,-114.8489"/>
<polygon fill="#000000" stroke="#000000" points="100.3349,-111.9556 90.4422,-108.1628 95.8105,-117.297 100.3349,-111.9556"/>
<g id="a_edge4&#45;headlabel"><a xlink:href="dir_000004_000003.html" target="_top" xlink:title="1">
<text text-anchor="middle" x="104.9129" y="-109.1125" font-family="Helvetica,sans-Serif" font-size="10.00" fill="#000000">1</text>
</a>
</g>
</g>
<!-- dir_953622b4cb238e58a254835668ef4655&#45;&gt;dir_d44c64559bbebec7f509842c48db8b23 -->
<g id="edge5" class="edge">
<title>dir_953622b4cb238e58a254835668ef4655&#45;&gt;dir_d44c64559bbebec7f509842c48db8b23</title>
<path fill="none" stroke="#000000" d="M156.1531,-143.7623C159.0527,-119.201 164.2416,-75.2474 167.6526,-46.3541"/>
<polygon fill="#000000" stroke="#000000" points="171.1678,-46.431 168.8644,-36.0896 164.2161,-45.6103 171.1678,-46.431"/>
<g id="a_edge5&#45;headlabel"><a xlink:href="dir_000004_000008.html" target="_top" xlink:title="3">
<text text-anchor="middle" x="173.5661" y="-47.3337" font-family="Helvetica,sans-Serif" font-size="10.00" fill="#000000">3</text>
</a>
</g>
</g>
<!-- dir_06ecf09adf175a7d29131d5569c50439 -->
<g id="node6" class="node">
<title>dir_06ecf09adf175a7d29131d5569c50439</title>
<g id="a_node6"><a xlink:href="dir_06ecf09adf175a7d29131d5569c50439.html" target="_top" xlink:title="vorticity">
<polygon fill="#ffffff" stroke="#000000" points="346,-180 292,-180 292,-144 346,-144 346,-180"/>
<text text-anchor="middle" x="319" y="-159" font-family="Helvetica,sans-Serif" font-size="10.00" fill="#000000">vorticity</text>
</a>
</g>
</g>
<!-- dir_06ecf09adf175a7d29131d5569c50439&#45;&gt;dir_d44c64559bbebec7f509842c48db8b23 -->
<g id="edge6" class="edge">
<title>dir_06ecf09adf175a7d29131d5569c50439&#45;&gt;dir_d44c64559bbebec7f509842c48db8b23</title>
<path fill="none" stroke="#000000" d="M300.2557,-143.7623C274.1225,-118.3354 226.6287,-72.1253 197.0612,-43.3569"/>
<polygon fill="#000000" stroke="#000000" points="199.2001,-40.5546 189.5921,-36.0896 194.3186,-45.5717 199.2001,-40.5546"/>
<g id="a_edge6&#45;headlabel"><a xlink:href="dir_000005_000008.html" target="_top" xlink:title="6">
<text text-anchor="middle" x="203.7564" y="-38.0264" font-family="Helvetica,sans-Serif" font-size="10.00" fill="#000000">6</text>
</a>
</g>
</g>
</g>
</svg>
