<?xml version="1.0" encoding="UTF-8" standalone="no"?>
<!DOCTYPE svg PUBLIC "-//W3C//DTD SVG 1.1//EN"
 "http://www.w3.org/Graphics/SVG/1.1/DTD/svg11.dtd">
<!-- Generated by graphviz version 2.40.1 (20161225.0304)
 -->
<!-- Title: applications/tairacolonius Pages: 1 -->
<svg width="128pt" height="222pt"
 viewBox="0.00 0.00 128.07 222.00" xmlns="http://www.w3.org/2000/svg" xmlns:xlink="http://www.w3.org/1999/xlink">
<g id="graph0" class="graph" transform="scale(1 1) rotate(0) translate(4 218)">
<title>applications/tairacolonius</title>
<polygon fill="#ffffff" stroke="transparent" points="-4,4 -4,-218 124.0688,-218 124.0688,4 -4,4"/>
<g id="clust1" class="cluster">
<title>clusterdir_a6e4fee11f07c3b70486e88fe92cbbdc</title>
<g id="a_clust1"><a xlink:href="dir_a6e4fee11f07c3b70486e88fe92cbbdc.html" target="_top" xlink:title="applications">
<polygon fill="#ddddee" stroke="#000000" points="24.0688,-136 24.0688,-206 112.0688,-206 112.0688,-136 24.0688,-136"/>
<text text-anchor="middle" x="68.0688" y="-194" font-family="Helvetica,sans-Serif" font-size="10.00" fill="#000000">applications</text>
</a>
</g>
</g>
<!-- dir_953622b4cb238e58a254835668ef4655 -->
<g id="node1" class="node">
<title>dir_953622b4cb238e58a254835668ef4655</title>
<g id="a_node1"><a xlink:href="dir_953622b4cb238e58a254835668ef4655.html" target="_top" xlink:title="tairacolonius">
<polygon fill="#eeeeff" stroke="#000000" points="104.2116,-180 31.9261,-180 31.9261,-144 104.2116,-144 104.2116,-180"/>
<text text-anchor="middle" x="68.0688" y="-159" font-family="Helvetica,sans-Serif" font-size="10.00" fill="#000000">tairacolonius</text>
</a>
</g>
</g>
<!-- dir_5a17396c6ee06cf41110d2e7bc9bd347 -->
<g id="node2" class="node">
<title>dir_5a17396c6ee06cf41110d2e7bc9bd347</title>
<g id="a_node2"><a xlink:href="dir_5a17396c6ee06cf41110d2e7bc9bd347.html" target="_top" xlink:title="navierstokes">
<polygon fill="none" stroke="#000000" points="72.2067,-108 -.069,-108 -.069,-72 72.2067,-72 72.2067,-108"/>
<text text-anchor="middle" x="36.0688" y="-87" font-family="Helvetica,sans-Serif" font-size="10.00" fill="#000000">navierstokes</text>
</a>
</g>
</g>
<!-- dir_953622b4cb238e58a254835668ef4655&#45;&gt;dir_5a17396c6ee06cf41110d2e7bc9bd347 -->
<g id="edge2" class="edge">
<title>dir_953622b4cb238e58a254835668ef4655&#45;&gt;dir_5a17396c6ee06cf41110d2e7bc9bd347</title>
<path fill="none" stroke="#000000" d="M59.9939,-143.8314C56.4587,-135.8771 52.2329,-126.369 48.3232,-117.5723"/>
<polygon fill="#000000" stroke="#000000" points="51.5123,-116.1299 44.2525,-108.4133 45.1156,-118.9729 51.5123,-116.1299"/>
<g id="a_edge2&#45;headlabel"><a xlink:href="dir_000004_000003.html" target="_top" xlink:title="1">
<text text-anchor="middle" x="55.5667" y="-115.2616" font-family="Helvetica,sans-Serif" font-size="10.00" fill="#000000">1</text>
</a>
</g>
</g>
<!-- dir_d44c64559bbebec7f509842c48db8b23 -->
<g id="node3" class="node">
<title>dir_d44c64559bbebec7f509842c48db8b23</title>
<g id="a_node3"><a xlink:href="dir_d44c64559bbebec7f509842c48db8b23.html" target="_top" xlink:title="include">
<polygon fill="#ffffff" stroke="#ff0000" points="95.0688,-36 41.0688,-36 41.0688,0 95.0688,0 95.0688,-36"/>
<text text-anchor="middle" x="68.0688" y="-15" font-family="Helvetica,sans-Serif" font-size="10.00" fill="#000000">include</text>
</a>
</g>
</g>
<!-- dir_953622b4cb238e58a254835668ef4655&#45;&gt;dir_d44c64559bbebec7f509842c48db8b23 -->
<g id="edge3" class="edge">
<title>dir_953622b4cb238e58a254835668ef4655&#45;&gt;dir_d44c64559bbebec7f509842c48db8b23</title>
<path fill="none" stroke="#000000" d="M73.6135,-143.7012C76.4654,-133.3353 79.637,-120.0653 81.0688,-108 82.9544,-92.1115 82.9544,-87.8885 81.0688,-72 80.0621,-63.5166 78.1952,-54.4376 76.1841,-46.1913"/>
<polygon fill="#000000" stroke="#000000" points="79.5161,-45.0971 73.6135,-36.2988 72.7411,-46.8576 79.5161,-45.0971"/>
<g id="a_edge3&#45;headlabel"><a xlink:href="dir_000004_000008.html" target="_top" xlink:title="3">
<text text-anchor="middle" x="83.1681" y="-44.8621" font-family="Helvetica,sans-Serif" font-size="10.00" fill="#000000">3</text>
</a>
</g>
</g>
<!-- dir_5a17396c6ee06cf41110d2e7bc9bd347&#45;&gt;dir_d44c64559bbebec7f509842c48db8b23 -->
<g id="edge1" class="edge">
<title>dir_5a17396c6ee06cf41110d2e7bc9bd347&#45;&gt;dir_d44c64559bbebec7f509842c48db8b23</title>
<path fill="none" stroke="#000000" d="M44.1438,-71.8314C47.679,-63.8771 51.9048,-54.369 55.8145,-45.5723"/>
<polygon fill="#000000" stroke="#000000" points="59.0221,-46.9729 59.8852,-36.4133 52.6254,-44.1299 59.0221,-46.9729"/>
<g id="a_edge1&#45;headlabel"><a xlink:href="dir_000003_000008.html" target="_top" xlink:title="7">
<text text-anchor="middle" x="60.1568" y="-48.4108" font-family="Helvetica,sans-Serif" font-size="10.00" fill="#000000">7</text>
</a>
</g>
</g>
</g>
</svg>
