<?xml version="1.0" encoding="UTF-8" standalone="no"?>
<!DOCTYPE svg PUBLIC "-//W3C//DTD SVG 1.1//EN"
 "http://www.w3.org/Graphics/SVG/1.1/DTD/svg11.dtd">
<!-- Generated by graphviz version 3.0.0 (0)
 -->
<!-- Title: tests Pages: 1 -->
<svg width="460pt" height="132pt"
 viewBox="0.00 0.00 460.00 132.00" xmlns="http://www.w3.org/2000/svg" xmlns:xlink="http://www.w3.org/1999/xlink">
<g id="graph0" class="graph" transform="scale(1 1) rotate(0) translate(4 128)">
<title>tests</title>
<polygon fill="white" stroke="transparent" points="-4,4 -4,-128 456,-128 456,4 -4,4"/>
<g id="clust1" class="cluster">
<title>clusterdir_59425e443f801f1f2fd8bbe4959a3ccf</title>
<g id="a_clust1"><a xlink:href="dir_59425e443f801f1f2fd8bbe4959a3ccf.html" target="_top">
<polygon fill="#edf0f7" stroke="#404040" stroke-width="2" points="8,-64 8,-116 444,-116 444,-64 8,-64"/>
</a>
</g>
</g>
<!-- dir_59425e443f801f1f2fd8bbe4959a3ccf -->
<g id="node1" class="node">
<title>dir_59425e443f801f1f2fd8bbe4959a3ccf</title>
<text text-anchor="middle" x="409" y="-87.5" font-family="Helvetica,sans-Serif" font-size="10.00">tests</text>
</g>
<!-- dir_126a0924d382dedf73903fd74dfd4e68 -->
<g id="node2" class="node">
<title>dir_126a0924d382dedf73903fd74dfd4e68</title>
<g id="a_node2"><a xlink:href="dir_126a0924d382dedf73903fd74dfd4e68.html" target="_top" xlink:title="body">
<polygon fill="#a2b4d6" stroke="#404040" points="364,-108 310,-108 310,-72 364,-72 364,-108"/>
<text text-anchor="middle" x="337" y="-87.5" font-family="Helvetica,sans-Serif" font-size="10.00">body</text>
</a>
</g>
</g>
<!-- dir_d44c64559bbebec7f509842c48db8b23 -->
<g id="node7" class="node">
<title>dir_d44c64559bbebec7f509842c48db8b23</title>
<g id="a_node7"><a xlink:href="dir_d44c64559bbebec7f509842c48db8b23.html" target="_top" xlink:title="include">
<polygon fill="none" stroke="red" points="218,-36 164,-36 164,0 218,0 218,-36"/>
<text text-anchor="middle" x="191" y="-15.5" font-family="Helvetica,sans-Serif" font-size="10.00">include</text>
</a>
</g>
</g>
<!-- dir_126a0924d382dedf73903fd74dfd4e68&#45;&gt;dir_d44c64559bbebec7f509842c48db8b23 -->
<g id="edge1" class="edge">
<title>dir_126a0924d382dedf73903fd74dfd4e68&#45;&gt;dir_d44c64559bbebec7f509842c48db8b23</title>
<path fill="none" stroke="black" d="M313.85,-71.83C309.67,-69.05 305.28,-66.32 301,-64 277.57,-51.27 249.77,-39.93 227.98,-31.82"/>
<polygon fill="black" stroke="black" points="229.02,-28.47 218.43,-28.32 226.62,-35.04 229.02,-28.47"/>
<g id="a_edge1&#45;headlabel"><a xlink:href="dir_000002_000009.html" target="_top" xlink:title="2">
<text text-anchor="middle" x="233.37" y="-24.54" font-family="Helvetica,sans-Serif" font-size="10.00">2</text>
</a>
</g>
</g>
<!-- dir_8091579afade2b31e281dd516deebd66 -->
<g id="node3" class="node">
<title>dir_8091579afade2b31e281dd516deebd66</title>
<g id="a_node3"><a xlink:href="dir_8091579afade2b31e281dd516deebd66.html" target="_top" xlink:title="boundary">
<polygon fill="#a2b4d6" stroke="#404040" points="292,-108 236,-108 236,-72 292,-72 292,-108"/>
<text text-anchor="middle" x="264" y="-87.5" font-family="Helvetica,sans-Serif" font-size="10.00">boundary</text>
</a>
</g>
</g>
<!-- dir_8091579afade2b31e281dd516deebd66&#45;&gt;dir_d44c64559bbebec7f509842c48db8b23 -->
<g id="edge2" class="edge">
<title>dir_8091579afade2b31e281dd516deebd66&#45;&gt;dir_d44c64559bbebec7f509842c48db8b23</title>
<path fill="none" stroke="black" d="M245.96,-71.7C236.94,-63.05 225.88,-52.45 216.06,-43.03"/>
<polygon fill="black" stroke="black" points="218.48,-40.5 208.84,-36.1 213.63,-45.55 218.48,-40.5"/>
<g id="a_edge2&#45;headlabel"><a xlink:href="dir_000004_000009.html" target="_top" xlink:title="3">
<text text-anchor="middle" x="223.04" y="-38.44" font-family="Helvetica,sans-Serif" font-size="10.00">3</text>
</a>
</g>
</g>
<!-- dir_a6cff43191e172c7de6f1fc67085ec42 -->
<g id="node4" class="node">
<title>dir_a6cff43191e172c7de6f1fc67085ec42</title>
<g id="a_node4"><a xlink:href="dir_a6cff43191e172c7de6f1fc67085ec42.html" target="_top" xlink:title="mesh">
<polygon fill="#a2b4d6" stroke="#404040" points="218,-108 164,-108 164,-72 218,-72 218,-108"/>
<text text-anchor="middle" x="191" y="-87.5" font-family="Helvetica,sans-Serif" font-size="10.00">mesh</text>
</a>
</g>
</g>
<!-- dir_a6cff43191e172c7de6f1fc67085ec42&#45;&gt;dir_d44c64559bbebec7f509842c48db8b23 -->
<g id="edge3" class="edge">
<title>dir_a6cff43191e172c7de6f1fc67085ec42&#45;&gt;dir_d44c64559bbebec7f509842c48db8b23</title>
<path fill="none" stroke="black" d="M191,-71.7C191,-63.98 191,-54.71 191,-46.11"/>
<polygon fill="black" stroke="black" points="194.5,-46.1 191,-36.1 187.5,-46.1 194.5,-46.1"/>
<g id="a_edge3&#45;headlabel"><a xlink:href="dir_000014_000009.html" target="_top" xlink:title="3">
<text text-anchor="middle" x="197.34" y="-47.2" font-family="Helvetica,sans-Serif" font-size="10.00">3</text>
</a>
</g>
</g>
<!-- dir_977d3371830c4bec444f000fc75dc817 -->
<g id="node5" class="node">
<title>dir_977d3371830c4bec444f000fc75dc817</title>
<g id="a_node5"><a xlink:href="dir_977d3371830c4bec444f000fc75dc817.html" target="_top" xlink:title="misc">
<polygon fill="#a2b4d6" stroke="#404040" points="146,-108 92,-108 92,-72 146,-72 146,-108"/>
<text text-anchor="middle" x="119" y="-87.5" font-family="Helvetica,sans-Serif" font-size="10.00">misc</text>
</a>
</g>
</g>
<!-- dir_977d3371830c4bec444f000fc75dc817&#45;&gt;dir_d44c64559bbebec7f509842c48db8b23 -->
<g id="edge4" class="edge">
<title>dir_977d3371830c4bec444f000fc75dc817&#45;&gt;dir_d44c64559bbebec7f509842c48db8b23</title>
<path fill="none" stroke="black" d="M136.8,-71.7C145.6,-63.14 156.38,-52.66 166,-43.3"/>
<polygon fill="black" stroke="black" points="168.68,-45.58 173.41,-36.1 163.8,-40.57 168.68,-45.58"/>
<g id="a_edge4&#45;headlabel"><a xlink:href="dir_000016_000009.html" target="_top" xlink:title="1">
<text text-anchor="middle" x="168.08" y="-47.63" font-family="Helvetica,sans-Serif" font-size="10.00">1</text>
</a>
</g>
</g>
<!-- dir_f686df415f3d1e8ca1abc85a1698cd1d -->
<g id="node6" class="node">
<title>dir_f686df415f3d1e8ca1abc85a1698cd1d</title>
<g id="a_node6"><a xlink:href="dir_f686df415f3d1e8ca1abc85a1698cd1d.html" target="_top" xlink:title="operators">
<polygon fill="#a2b4d6" stroke="#404040" points="73.5,-108 16.5,-108 16.5,-72 73.5,-72 73.5,-108"/>
<text text-anchor="middle" x="45" y="-87.5" font-family="Helvetica,sans-Serif" font-size="10.00">operators</text>
</a>
</g>
</g>
<!-- dir_f686df415f3d1e8ca1abc85a1698cd1d&#45;&gt;dir_d44c64559bbebec7f509842c48db8b23 -->
<g id="edge5" class="edge">
<title>dir_f686df415f3d1e8ca1abc85a1698cd1d&#45;&gt;dir_d44c64559bbebec7f509842c48db8b23</title>
<path fill="none" stroke="black" d="M69.53,-71.91C73.93,-69.12 78.54,-66.37 83,-64 105.92,-51.82 132.86,-40.59 154.1,-32.4"/>
<polygon fill="black" stroke="black" points="155.62,-35.56 163.73,-28.74 153.14,-29.02 155.62,-35.56"/>
<g id="a_edge5&#45;headlabel"><a xlink:href="dir_000019_000009.html" target="_top" xlink:title="1">
<text text-anchor="middle" x="153.27" y="-36.99" font-family="Helvetica,sans-Serif" font-size="10.00">1</text>
</a>
</g>
</g>
</g>
</svg>
