<?xml version="1.0" encoding="UTF-8" standalone="no"?>
<!DOCTYPE svg PUBLIC "-//W3C//DTD SVG 1.1//EN"
 "http://www.w3.org/Graphics/SVG/1.1/DTD/svg11.dtd">
<!-- Generated by graphviz version 2.38.0 (20140413.2041)
 -->
<!-- Title: tests Pages: 1 -->
<svg width="460pt" height="132pt"
 viewBox="0.00 0.00 460.00 132.00" xmlns="http://www.w3.org/2000/svg" xmlns:xlink="http://www.w3.org/1999/xlink">
<g id="graph0" class="graph" transform="scale(1 1) rotate(0) translate(4 128)">
<title>tests</title>
<polygon fill="white" stroke="none" points="-4,4 -4,-128 456,-128 456,4 -4,4"/>
<g id="clust1" class="cluster"><title>clusterdir_59425e443f801f1f2fd8bbe4959a3ccf</title>
<g id="a_clust1"><a xlink:href="dir_59425e443f801f1f2fd8bbe4959a3ccf.html" target="_top">
<polygon fill="#eeeeff" stroke="black" points="8,-64 8,-116 444,-116 444,-64 8,-64"/>
</a>
</g>
</g>
<!-- dir_59425e443f801f1f2fd8bbe4959a3ccf -->
<g id="node1" class="node"><title>dir_59425e443f801f1f2fd8bbe4959a3ccf</title>
<text text-anchor="middle" x="409" y="-87.5" font-family="Helvetica,sans-Serif" font-size="10.00">tests</text>
</g>
<!-- dir_126a0924d382dedf73903fd74dfd4e68 -->
<g id="node2" class="node"><title>dir_126a0924d382dedf73903fd74dfd4e68</title>
<g id="a_node2"><a xlink:href="dir_126a0924d382dedf73903fd74dfd4e68.html" target="_top" xlink:title="body">
<polygon fill="white" stroke="black" points="364,-108 310,-108 310,-72 364,-72 364,-108"/>
<text text-anchor="middle" x="337" y="-87.5" font-family="Helvetica,sans-Serif" font-size="10.00">body</text>
</a>
</g>
</g>
<!-- dir_d44c64559bbebec7f509842c48db8b23 -->
<g id="node7" class="node"><title>dir_d44c64559bbebec7f509842c48db8b23</title>
<g id="a_node7"><a xlink:href="dir_d44c64559bbebec7f509842c48db8b23.html" target="_top" xlink:title="include">
<polygon fill="white" stroke="red" points="218,-36 164,-36 164,-0 218,-0 218,-36"/>
<text text-anchor="middle" x="191" y="-15.5" font-family="Helvetica,sans-Serif" font-size="10.00">include</text>
</a>
</g>
</g>
<!-- dir_126a0924d382dedf73903fd74dfd4e68&#45;&gt;dir_d44c64559bbebec7f509842c48db8b23 -->
<g id="edge2" class="edge"><title>dir_126a0924d382dedf73903fd74dfd4e68&#45;&gt;dir_d44c64559bbebec7f509842c48db8b23</title>
<path fill="none" stroke="black" d="M313.846,-71.8292C309.669,-69.0496 305.279,-66.3247 301,-64 277.573,-51.2731 249.772,-39.9297 227.98,-31.8153"/>
<polygon fill="black" stroke="black" points="229.022,-28.4696 218.428,-28.321 226.617,-35.0435 229.022,-28.4696"/>
<g id="a_edge2&#45;headlabel"><a xlink:href="dir_000023_000010.html" target="_top" xlink:title="2">
<text text-anchor="middle" x="233.373" y="-24.538" font-family="Helvetica,sans-Serif" font-size="10.00">2</text>
</a>
</g>
</g>
<!-- dir_8091579afade2b31e281dd516deebd66 -->
<g id="node3" class="node"><title>dir_8091579afade2b31e281dd516deebd66</title>
<g id="a_node3"><a xlink:href="dir_8091579afade2b31e281dd516deebd66.html" target="_top" xlink:title="boundary">
<polygon fill="white" stroke="black" points="292,-108 236,-108 236,-72 292,-72 292,-108"/>
<text text-anchor="middle" x="264" y="-87.5" font-family="Helvetica,sans-Serif" font-size="10.00">boundary</text>
</a>
</g>
</g>
<!-- dir_8091579afade2b31e281dd516deebd66&#45;&gt;dir_d44c64559bbebec7f509842c48db8b23 -->
<g id="edge3" class="edge"><title>dir_8091579afade2b31e281dd516deebd66&#45;&gt;dir_d44c64559bbebec7f509842c48db8b23</title>
<path fill="none" stroke="black" d="M245.955,-71.6966C236.938,-63.0503 225.882,-52.4486 216.057,-43.027"/>
<polygon fill="black" stroke="black" points="218.478,-40.4993 208.837,-36.1043 213.633,-45.5518 218.478,-40.4993"/>
<g id="a_edge3&#45;headlabel"><a xlink:href="dir_000024_000010.html" target="_top" xlink:title="3">
<text text-anchor="middle" x="223.037" y="-38.4379" font-family="Helvetica,sans-Serif" font-size="10.00">3</text>
</a>
</g>
</g>
<!-- dir_a6cff43191e172c7de6f1fc67085ec42 -->
<g id="node4" class="node"><title>dir_a6cff43191e172c7de6f1fc67085ec42</title>
<g id="a_node4"><a xlink:href="dir_a6cff43191e172c7de6f1fc67085ec42.html" target="_top" xlink:title="mesh">
<polygon fill="white" stroke="black" points="218,-108 164,-108 164,-72 218,-72 218,-108"/>
<text text-anchor="middle" x="191" y="-87.5" font-family="Helvetica,sans-Serif" font-size="10.00">mesh</text>
</a>
</g>
</g>
<!-- dir_a6cff43191e172c7de6f1fc67085ec42&#45;&gt;dir_d44c64559bbebec7f509842c48db8b23 -->
<g id="edge4" class="edge"><title>dir_a6cff43191e172c7de6f1fc67085ec42&#45;&gt;dir_d44c64559bbebec7f509842c48db8b23</title>
<path fill="none" stroke="black" d="M191,-71.6966C191,-63.9827 191,-54.7125 191,-46.1124"/>
<polygon fill="black" stroke="black" points="194.5,-46.1043 191,-36.1043 187.5,-46.1044 194.5,-46.1043"/>
<g id="a_edge4&#45;headlabel"><a xlink:href="dir_000008_000010.html" target="_top" xlink:title="3">
<text text-anchor="middle" x="197.339" y="-47.199" font-family="Helvetica,sans-Serif" font-size="10.00">3</text>
</a>
</g>
</g>
<!-- dir_977d3371830c4bec444f000fc75dc817 -->
<g id="node5" class="node"><title>dir_977d3371830c4bec444f000fc75dc817</title>
<g id="a_node5"><a xlink:href="dir_977d3371830c4bec444f000fc75dc817.html" target="_top" xlink:title="misc">
<polygon fill="white" stroke="black" points="146,-108 92,-108 92,-72 146,-72 146,-108"/>
<text text-anchor="middle" x="119" y="-87.5" font-family="Helvetica,sans-Serif" font-size="10.00">misc</text>
</a>
</g>
</g>
<!-- dir_977d3371830c4bec444f000fc75dc817&#45;&gt;dir_d44c64559bbebec7f509842c48db8b23 -->
<g id="edge1" class="edge"><title>dir_977d3371830c4bec444f000fc75dc817&#45;&gt;dir_d44c64559bbebec7f509842c48db8b23</title>
<path fill="none" stroke="black" d="M136.798,-71.6966C145.604,-63.135 156.382,-52.6562 166.001,-43.3045"/>
<polygon fill="black" stroke="black" points="168.677,-45.5846 173.407,-36.1043 163.797,-40.5657 168.677,-45.5846"/>
<g id="a_edge1&#45;headlabel"><a xlink:href="dir_000025_000010.html" target="_top" xlink:title="1">
<text text-anchor="middle" x="168.079" y="-47.6261" font-family="Helvetica,sans-Serif" font-size="10.00">1</text>
</a>
</g>
</g>
<!-- dir_f686df415f3d1e8ca1abc85a1698cd1d -->
<g id="node6" class="node"><title>dir_f686df415f3d1e8ca1abc85a1698cd1d</title>
<g id="a_node6"><a xlink:href="dir_f686df415f3d1e8ca1abc85a1698cd1d.html" target="_top" xlink:title="operators">
<polygon fill="white" stroke="black" points="73.5,-108 16.5,-108 16.5,-72 73.5,-72 73.5,-108"/>
<text text-anchor="middle" x="45" y="-87.5" font-family="Helvetica,sans-Serif" font-size="10.00">operators</text>
</a>
</g>
</g>
<!-- dir_f686df415f3d1e8ca1abc85a1698cd1d&#45;&gt;dir_d44c64559bbebec7f509842c48db8b23 -->
<g id="edge5" class="edge"><title>dir_f686df415f3d1e8ca1abc85a1698cd1d&#45;&gt;dir_d44c64559bbebec7f509842c48db8b23</title>
<path fill="none" stroke="black" d="M69.5308,-71.9076C73.9301,-69.1193 78.5367,-66.3712 83,-64 105.919,-51.824 132.862,-40.5928 154.104,-32.3963"/>
<polygon fill="black" stroke="black" points="155.624,-35.5629 163.728,-28.7387 153.137,-29.0194 155.624,-35.5629"/>
<g id="a_edge5&#45;headlabel"><a xlink:href="dir_000026_000010.html" target="_top" xlink:title="1">
<text text-anchor="middle" x="153.272" y="-36.9938" font-family="Helvetica,sans-Serif" font-size="10.00">1</text>
</a>
</g>
</g>
</g>
</svg>
