<?xml version="1.0" encoding="UTF-8" standalone="no"?>
<!DOCTYPE svg PUBLIC "-//W3C//DTD SVG 1.1//EN"
 "http://www.w3.org/Graphics/SVG/1.1/DTD/svg11.dtd">
<!-- Generated by graphviz version 2.38.0 (20140413.2041)
 -->
<!-- Title: applications Pages: 1 -->
<svg width="444pt" height="276pt"
 viewBox="0.00 0.00 444.00 276.00" xmlns="http://www.w3.org/2000/svg" xmlns:xlink="http://www.w3.org/1999/xlink">
<g id="graph0" class="graph" transform="scale(1 1) rotate(0) translate(4 272)">
<title>applications</title>
<polygon fill="white" stroke="none" points="-4,4 -4,-272 440,-272 440,4 -4,4"/>
<g id="clust1" class="cluster"><title>clusterdir_a6e4fee11f07c3b70486e88fe92cbbdc</title>
<g id="a_clust1"><a xlink:href="dir_a6e4fee11f07c3b70486e88fe92cbbdc.html" target="_top">
<polygon fill="#eeeeff" stroke="black" points="8,-64 8,-260 428,-260 428,-64 8,-64"/>
</a>
</g>
</g>
<!-- dir_a6e4fee11f07c3b70486e88fe92cbbdc -->
<g id="node1" class="node"><title>dir_a6e4fee11f07c3b70486e88fe92cbbdc</title>
<text text-anchor="middle" x="386" y="-231.5" font-family="Helvetica,sans-Serif" font-size="10.00">applications</text>
</g>
<!-- dir_52b06b12098494e939aa8d0b4132bf3d -->
<g id="node2" class="node"><title>dir_52b06b12098494e939aa8d0b4132bf3d</title>
<g id="a_node2"><a xlink:href="dir_52b06b12098494e939aa8d0b4132bf3d.html" target="_top" xlink:title="createxdmf">
<polygon fill="white" stroke="black" points="181.5,-252 116.5,-252 116.5,-216 181.5,-216 181.5,-252"/>
<text text-anchor="middle" x="149" y="-231.5" font-family="Helvetica,sans-Serif" font-size="10.00">createxdmf</text>
</a>
</g>
</g>
<!-- dir_d44c64559bbebec7f509842c48db8b23 -->
<g id="node9" class="node"><title>dir_d44c64559bbebec7f509842c48db8b23</title>
<g id="a_node9"><a xlink:href="dir_d44c64559bbebec7f509842c48db8b23.html" target="_top" xlink:title="include">
<polygon fill="white" stroke="red" points="206,-36 152,-36 152,-0 206,-0 206,-36"/>
<text text-anchor="middle" x="179" y="-15.5" font-family="Helvetica,sans-Serif" font-size="10.00">include</text>
</a>
</g>
</g>
<!-- dir_52b06b12098494e939aa8d0b4132bf3d&#45;&gt;dir_d44c64559bbebec7f509842c48db8b23 -->
<g id="edge9" class="edge"><title>dir_52b06b12098494e939aa8d0b4132bf3d&#45;&gt;dir_d44c64559bbebec7f509842c48db8b23</title>
<path fill="none" stroke="black" d="M161.727,-215.845C168.286,-205.923 175.607,-192.883 179,-180 191.025,-134.345 187.182,-78.8487 183.175,-46.3718"/>
<polygon fill="black" stroke="black" points="186.622,-45.7386 181.833,-36.2879 179.683,-46.6624 186.622,-45.7386"/>
<g id="a_edge9&#45;headlabel"><a xlink:href="dir_000001_000010.html" target="_top" xlink:title="3">
<text text-anchor="middle" x="189.911" y="-46.4272" font-family="Helvetica,sans-Serif" font-size="10.00">3</text>
</a>
</g>
</g>
<!-- dir_02799f4d4439ae71e263b5891136b552 -->
<g id="node3" class="node"><title>dir_02799f4d4439ae71e263b5891136b552</title>
<g id="a_node3"><a xlink:href="dir_02799f4d4439ae71e263b5891136b552.html" target="_top" xlink:title="decoupledibpm">
<polygon fill="white" stroke="black" points="98,-180 16,-180 16,-144 98,-144 98,-180"/>
<text text-anchor="middle" x="57" y="-159.5" font-family="Helvetica,sans-Serif" font-size="10.00">decoupledibpm</text>
</a>
</g>
</g>
<!-- dir_5a17396c6ee06cf41110d2e7bc9bd347 -->
<g id="node5" class="node"><title>dir_5a17396c6ee06cf41110d2e7bc9bd347</title>
<g id="a_node5"><a xlink:href="dir_5a17396c6ee06cf41110d2e7bc9bd347.html" target="_top" xlink:title="navierstokes">
<polygon fill="white" stroke="black" points="94,-108 22,-108 22,-72 94,-72 94,-108"/>
<text text-anchor="middle" x="58" y="-87.5" font-family="Helvetica,sans-Serif" font-size="10.00">navierstokes</text>
</a>
</g>
</g>
<!-- dir_02799f4d4439ae71e263b5891136b552&#45;&gt;dir_5a17396c6ee06cf41110d2e7bc9bd347 -->
<g id="edge1" class="edge"><title>dir_02799f4d4439ae71e263b5891136b552&#45;&gt;dir_5a17396c6ee06cf41110d2e7bc9bd347</title>
<path fill="none" stroke="black" d="M57.2472,-143.697C57.3574,-135.983 57.4898,-126.712 57.6127,-118.112"/>
<polygon fill="black" stroke="black" points="61.1124,-118.153 57.7557,-108.104 54.1131,-118.053 61.1124,-118.153"/>
<g id="a_edge1&#45;headlabel"><a xlink:href="dir_000002_000004.html" target="_top" xlink:title="1">
<text text-anchor="middle" x="63.9001" y="-119.288" font-family="Helvetica,sans-Serif" font-size="10.00">1</text>
</a>
</g>
</g>
<!-- dir_02799f4d4439ae71e263b5891136b552&#45;&gt;dir_d44c64559bbebec7f509842c48db8b23 -->
<g id="edge2" class="edge"><title>dir_02799f4d4439ae71e263b5891136b552&#45;&gt;dir_d44c64559bbebec7f509842c48db8b23</title>
<path fill="none" stroke="black" d="M71.9509,-143.844C80.9655,-133.483 92.6662,-120.003 103,-108 121.623,-86.3679 142.694,-61.6758 157.917,-43.7966"/>
<polygon fill="black" stroke="black" points="160.655,-45.9805 164.471,-36.0967 155.324,-41.4435 160.655,-45.9805"/>
<g id="a_edge2&#45;headlabel"><a xlink:href="dir_000002_000010.html" target="_top" xlink:title="3">
<text text-anchor="middle" x="160.487" y="-48.0581" font-family="Helvetica,sans-Serif" font-size="10.00">3</text>
</a>
</g>
</g>
<!-- dir_d6d107984486c79e0c1e0c38780e7601 -->
<g id="node4" class="node"><title>dir_d6d107984486c79e0c1e0c38780e7601</title>
<g id="a_node4"><a xlink:href="dir_d6d107984486c79e0c1e0c38780e7601.html" target="_top" xlink:title="ibpm">
<polygon fill="white" stroke="black" points="170,-180 116,-180 116,-144 170,-144 170,-180"/>
<text text-anchor="middle" x="143" y="-159.5" font-family="Helvetica,sans-Serif" font-size="10.00">ibpm</text>
</a>
</g>
</g>
<!-- dir_d6d107984486c79e0c1e0c38780e7601&#45;&gt;dir_5a17396c6ee06cf41110d2e7bc9bd347 -->
<g id="edge7" class="edge"><title>dir_d6d107984486c79e0c1e0c38780e7601&#45;&gt;dir_5a17396c6ee06cf41110d2e7bc9bd347</title>
<path fill="none" stroke="black" d="M121.989,-143.697C111.284,-134.881 98.1103,-124.032 86.5044,-114.474"/>
<polygon fill="black" stroke="black" points="88.7139,-111.76 78.7695,-108.104 84.2639,-117.163 88.7139,-111.76"/>
<g id="a_edge7&#45;headlabel"><a xlink:href="dir_000003_000004.html" target="_top" xlink:title="1">
<text text-anchor="middle" x="93.2936" y="-109.353" font-family="Helvetica,sans-Serif" font-size="10.00">1</text>
</a>
</g>
</g>
<!-- dir_d6d107984486c79e0c1e0c38780e7601&#45;&gt;dir_d44c64559bbebec7f509842c48db8b23 -->
<g id="edge8" class="edge"><title>dir_d6d107984486c79e0c1e0c38780e7601&#45;&gt;dir_d44c64559bbebec7f509842c48db8b23</title>
<path fill="none" stroke="black" d="M147.342,-143.871C153.505,-119.564 164.849,-74.8187 172.152,-46.0132"/>
<polygon fill="black" stroke="black" points="175.577,-46.7427 174.642,-36.1893 168.792,-45.0225 175.577,-46.7427"/>
<g id="a_edge8&#45;headlabel"><a xlink:href="dir_000003_000010.html" target="_top" xlink:title="4">
<text text-anchor="middle" x="177.446" y="-48.4248" font-family="Helvetica,sans-Serif" font-size="10.00">4</text>
</a>
</g>
</g>
<!-- dir_5a17396c6ee06cf41110d2e7bc9bd347&#45;&gt;dir_d44c64559bbebec7f509842c48db8b23 -->
<g id="edge3" class="edge"><title>dir_5a17396c6ee06cf41110d2e7bc9bd347&#45;&gt;dir_d44c64559bbebec7f509842c48db8b23</title>
<path fill="none" stroke="black" d="M87.5999,-71.8761C104.282,-62.2252 125.249,-50.0956 142.892,-39.8891"/>
<polygon fill="black" stroke="black" points="144.871,-42.7874 151.775,-34.7503 141.366,-36.7283 144.871,-42.7874"/>
<g id="a_edge3&#45;headlabel"><a xlink:href="dir_000004_000010.html" target="_top" xlink:title="9">
<text text-anchor="middle" x="143.182" y="-44.545" font-family="Helvetica,sans-Serif" font-size="10.00">9</text>
</a>
</g>
</g>
<!-- dir_923af7a52dca6932eb1eb9b66eb6d618 -->
<g id="node6" class="node"><title>dir_923af7a52dca6932eb1eb9b66eb6d618</title>
<g id="a_node6"><a xlink:href="dir_923af7a52dca6932eb1eb9b66eb6d618.html" target="_top" xlink:title="rigidkinematics">
<polygon fill="white" stroke="black" points="98,-252 16,-252 16,-216 98,-216 98,-252"/>
<text text-anchor="middle" x="57" y="-231.5" font-family="Helvetica,sans-Serif" font-size="10.00">rigidkinematics</text>
</a>
</g>
</g>
<!-- dir_923af7a52dca6932eb1eb9b66eb6d618&#45;&gt;dir_02799f4d4439ae71e263b5891136b552 -->
<g id="edge6" class="edge"><title>dir_923af7a52dca6932eb1eb9b66eb6d618&#45;&gt;dir_02799f4d4439ae71e263b5891136b552</title>
<path fill="none" stroke="black" d="M57,-215.697C57,-207.983 57,-198.712 57,-190.112"/>
<polygon fill="black" stroke="black" points="60.5001,-190.104 57,-180.104 53.5001,-190.104 60.5001,-190.104"/>
<g id="a_edge6&#45;headlabel"><a xlink:href="dir_000009_000002.html" target="_top" xlink:title="1">
<text text-anchor="middle" x="63.3393" y="-191.199" font-family="Helvetica,sans-Serif" font-size="10.00">1</text>
</a>
</g>
</g>
<!-- dir_06ecf09adf175a7d29131d5569c50439 -->
<g id="node7" class="node"><title>dir_06ecf09adf175a7d29131d5569c50439</title>
<g id="a_node7"><a xlink:href="dir_06ecf09adf175a7d29131d5569c50439.html" target="_top" xlink:title="vorticity">
<polygon fill="white" stroke="black" points="254,-252 200,-252 200,-216 254,-216 254,-252"/>
<text text-anchor="middle" x="227" y="-231.5" font-family="Helvetica,sans-Serif" font-size="10.00">vorticity</text>
</a>
</g>
</g>
<!-- dir_06ecf09adf175a7d29131d5569c50439&#45;&gt;dir_d44c64559bbebec7f509842c48db8b23 -->
<g id="edge4" class="edge"><title>dir_06ecf09adf175a7d29131d5569c50439&#45;&gt;dir_d44c64559bbebec7f509842c48db8b23</title>
<path fill="none" stroke="black" d="M226.07,-215.825C224.019,-184.844 217.866,-117.821 201,-64 199.02,-57.683 196.273,-51.1437 193.389,-45.073"/>
<polygon fill="black" stroke="black" points="196.455,-43.38 188.836,-36.0182 190.201,-46.5247 196.455,-43.38"/>
<g id="a_edge4&#45;headlabel"><a xlink:href="dir_000005_000010.html" target="_top" xlink:title="6">
<text text-anchor="middle" x="200.607" y="-42.816" font-family="Helvetica,sans-Serif" font-size="10.00">6</text>
</a>
</g>
</g>
<!-- dir_c2d09c1acb9fdd94adeea58e00561584 -->
<g id="node8" class="node"><title>dir_c2d09c1acb9fdd94adeea58e00561584</title>
<g id="a_node8"><a xlink:href="dir_c2d09c1acb9fdd94adeea58e00561584.html" target="_top" xlink:title="writemesh">
<polygon fill="white" stroke="black" points="334,-252 272,-252 272,-216 334,-216 334,-252"/>
<text text-anchor="middle" x="303" y="-231.5" font-family="Helvetica,sans-Serif" font-size="10.00">writemesh</text>
</a>
</g>
</g>
<!-- dir_c2d09c1acb9fdd94adeea58e00561584&#45;&gt;dir_d44c64559bbebec7f509842c48db8b23 -->
<g id="edge5" class="edge"><title>dir_c2d09c1acb9fdd94adeea58e00561584&#45;&gt;dir_d44c64559bbebec7f509842c48db8b23</title>
<path fill="none" stroke="black" d="M296.641,-215.781C284.541,-184.157 256.239,-115.362 221,-64 216.239,-57.0606 210.433,-50.1323 204.675,-43.8649"/>
<polygon fill="black" stroke="black" points="206.923,-41.1511 197.489,-36.3286 201.857,-45.9814 206.923,-41.1511"/>
<g id="a_edge5&#45;headlabel"><a xlink:href="dir_000006_000010.html" target="_top" xlink:title="2">
<text text-anchor="middle" x="211.459" y="-39.2935" font-family="Helvetica,sans-Serif" font-size="10.00">2</text>
</a>
</g>
</g>
</g>
</svg>
