<?xml version="1.0" encoding="UTF-8" standalone="no"?>
<!DOCTYPE svg PUBLIC "-//W3C//DTD SVG 1.1//EN"
 "http://www.w3.org/Graphics/SVG/1.1/DTD/svg11.dtd">
<!-- Generated by graphviz version 3.0.0 (0)
 -->
<!-- Title: applications/ibpm Pages: 1 -->
<svg width="168pt" height="167pt"
 viewBox="0.00 0.00 168.00 167.00" xmlns="http://www.w3.org/2000/svg" xmlns:xlink="http://www.w3.org/1999/xlink">
<g id="graph0" class="graph" transform="scale(1 1) rotate(0) translate(4 163)">
<title>applications/ibpm</title>
<polygon fill="white" stroke="transparent" points="-4,4 -4,-163 164,-163 164,4 -4,4"/>
<g id="clust1" class="cluster">
<title>clusterdir_a6e4fee11f07c3b70486e88fe92cbbdc</title>
<g id="a_clust1"><a xlink:href="dir_a6e4fee11f07c3b70486e88fe92cbbdc.html" target="_top" xlink:title="applications">
<polygon fill="#edf0f7" stroke="#404040" stroke-dasharray="5,2" points="8,-8 8,-151 96,-151 96,-8 8,-8"/>
<text text-anchor="middle" x="52" y="-139" font-family="Helvetica,sans-Serif" font-size="10.00">applications</text>
</a>
</g>
</g>
<!-- dir_5a17396c6ee06cf41110d2e7bc9bd347 -->
<g id="node1" class="node">
<title>dir_5a17396c6ee06cf41110d2e7bc9bd347</title>
<g id="a_node1"><a xlink:href="dir_5a17396c6ee06cf41110d2e7bc9bd347.html" target="_top" xlink:title="navierstokes">
<polygon fill="#a2b4d6" stroke="#404040" points="88,-52 16,-52 16,-16 88,-16 88,-52"/>
<text text-anchor="middle" x="52" y="-31.5" font-family="Helvetica,sans-Serif" font-size="10.00">navierstokes</text>
</a>
</g>
</g>
<!-- dir_d6d107984486c79e0c1e0c38780e7601 -->
<g id="node2" class="node">
<title>dir_d6d107984486c79e0c1e0c38780e7601</title>
<g id="a_node2"><a xlink:href="dir_d6d107984486c79e0c1e0c38780e7601.html" target="_top" xlink:title="ibpm">
<polygon fill="#edf0f7" stroke="#404040" stroke-width="2" points="83,-124 29,-124 29,-88 83,-88 83,-124"/>
<text text-anchor="middle" x="56" y="-103.5" font-family="Helvetica,sans-Serif" font-size="10.00">ibpm</text>
</a>
</g>
</g>
<!-- dir_d6d107984486c79e0c1e0c38780e7601&#45;&gt;dir_5a17396c6ee06cf41110d2e7bc9bd347 -->
<g id="edge1" class="edge">
<title>dir_d6d107984486c79e0c1e0c38780e7601&#45;&gt;dir_5a17396c6ee06cf41110d2e7bc9bd347</title>
<path fill="none" stroke="black" d="M55.01,-87.7C54.57,-79.98 54.04,-70.71 53.55,-62.11"/>
<polygon fill="black" stroke="black" points="57.04,-61.89 52.98,-52.1 50.05,-62.29 57.04,-61.89"/>
<g id="a_edge1&#45;headlabel"><a xlink:href="dir_000008_000017.html" target="_top" xlink:title="1">
<text text-anchor="middle" x="60.08" y="-62.82" font-family="Helvetica,sans-Serif" font-size="10.00">1</text>
</a>
</g>
</g>
<!-- dir_d44c64559bbebec7f509842c48db8b23 -->
<g id="node3" class="node">
<title>dir_d44c64559bbebec7f509842c48db8b23</title>
<g id="a_node3"><a xlink:href="dir_d44c64559bbebec7f509842c48db8b23.html" target="_top" xlink:title="include">
<polygon fill="none" stroke="red" points="160,-52 106,-52 106,-16 160,-16 160,-52"/>
<text text-anchor="middle" x="133" y="-31.5" font-family="Helvetica,sans-Serif" font-size="10.00">include</text>
</a>
</g>
</g>
<!-- dir_d6d107984486c79e0c1e0c38780e7601&#45;&gt;dir_d44c64559bbebec7f509842c48db8b23 -->
<g id="edge2" class="edge">
<title>dir_d6d107984486c79e0c1e0c38780e7601&#45;&gt;dir_d44c64559bbebec7f509842c48db8b23</title>
<path fill="none" stroke="black" d="M75.03,-87.7C84.54,-79.05 96.21,-68.45 106.57,-59.03"/>
<polygon fill="black" stroke="black" points="109.14,-61.42 114.19,-52.1 104.43,-56.24 109.14,-61.42"/>
<g id="a_edge2&#45;headlabel"><a xlink:href="dir_000008_000009.html" target="_top" xlink:title="4">
<text text-anchor="middle" x="108.39" y="-63.44" font-family="Helvetica,sans-Serif" font-size="10.00">4</text>
</a>
</g>
</g>
</g>
</svg>
