<?xml version="1.0" encoding="UTF-8" standalone="no"?>
<!DOCTYPE svg PUBLIC "-//W3C//DTD SVG 1.1//EN"
 "http://www.w3.org/Graphics/SVG/1.1/DTD/svg11.dtd">
<!-- Generated by graphviz version 3.0.0 (0)
 -->
<!-- Title: applications/rigidkinematics Pages: 1 -->
<svg width="122pt" height="167pt"
 viewBox="0.00 0.00 122.00 167.00" xmlns="http://www.w3.org/2000/svg" xmlns:xlink="http://www.w3.org/1999/xlink">
<g id="graph0" class="graph" transform="scale(1 1) rotate(0) translate(4 163)">
<title>applications/rigidkinematics</title>
<polygon fill="white" stroke="transparent" points="-4,4 -4,-163 118,-163 118,4 -4,4"/>
<g id="clust1" class="cluster">
<title>clusterdir_a6e4fee11f07c3b70486e88fe92cbbdc</title>
<g id="a_clust1"><a xlink:href="dir_a6e4fee11f07c3b70486e88fe92cbbdc.html" target="_top" xlink:title="applications">
<polygon fill="#edf0f7" stroke="#404040" stroke-dasharray="5,2" points="8,-8 8,-151 106,-151 106,-8 8,-8"/>
<text text-anchor="middle" x="57" y="-139" font-family="Helvetica,sans-Serif" font-size="10.00">applications</text>
</a>
</g>
</g>
<!-- dir_02799f4d4439ae71e263b5891136b552 -->
<g id="node1" class="node">
<title>dir_02799f4d4439ae71e263b5891136b552</title>
<g id="a_node1"><a xlink:href="dir_02799f4d4439ae71e263b5891136b552.html" target="_top" xlink:title="decoupledibpm">
<polygon fill="#a2b4d6" stroke="#404040" points="98,-52 16,-52 16,-16 98,-16 98,-52"/>
<text text-anchor="middle" x="57" y="-31.5" font-family="Helvetica,sans-Serif" font-size="10.00">decoupledibpm</text>
</a>
</g>
</g>
<!-- dir_923af7a52dca6932eb1eb9b66eb6d618 -->
<g id="node2" class="node">
<title>dir_923af7a52dca6932eb1eb9b66eb6d618</title>
<g id="a_node2"><a xlink:href="dir_923af7a52dca6932eb1eb9b66eb6d618.html" target="_top" xlink:title="rigidkinematics">
<polygon fill="#edf0f7" stroke="#404040" stroke-width="2" points="98,-124 16,-124 16,-88 98,-88 98,-124"/>
<text text-anchor="middle" x="57" y="-103.5" font-family="Helvetica,sans-Serif" font-size="10.00">rigidkinematics</text>
</a>
</g>
</g>
<!-- dir_923af7a52dca6932eb1eb9b66eb6d618&#45;&gt;dir_02799f4d4439ae71e263b5891136b552 -->
<g id="edge1" class="edge">
<title>dir_923af7a52dca6932eb1eb9b66eb6d618&#45;&gt;dir_02799f4d4439ae71e263b5891136b552</title>
<path fill="none" stroke="black" d="M57,-87.7C57,-79.98 57,-70.71 57,-62.11"/>
<polygon fill="black" stroke="black" points="60.5,-62.1 57,-52.1 53.5,-62.1 60.5,-62.1"/>
<g id="a_edge1&#45;headlabel"><a xlink:href="dir_000022_000006.html" target="_top" xlink:title="1">
<text text-anchor="middle" x="63.34" y="-63.2" font-family="Helvetica,sans-Serif" font-size="10.00">1</text>
</a>
</g>
</g>
</g>
</svg>
