<?xml version="1.0" encoding="UTF-8" standalone="no"?>
<!DOCTYPE svg PUBLIC "-//W3C//DTD SVG 1.1//EN"
 "http://www.w3.org/Graphics/SVG/1.1/DTD/svg11.dtd">
<!-- Generated by graphviz version 3.0.0 (0)
 -->
<!-- Title: tests/boundary Pages: 1 -->
<svg width="96pt" height="151pt"
 viewBox="0.00 0.00 96.00 151.00" xmlns="http://www.w3.org/2000/svg" xmlns:xlink="http://www.w3.org/1999/xlink">
<g id="graph0" class="graph" transform="scale(1 1) rotate(0) translate(4 147)">
<title>tests/boundary</title>
<polygon fill="white" stroke="transparent" points="-4,4 -4,-147 92,-147 92,4 -4,4"/>
<g id="clust1" class="cluster">
<title>clusterdir_59425e443f801f1f2fd8bbe4959a3ccf</title>
<g id="a_clust1"><a xlink:href="dir_59425e443f801f1f2fd8bbe4959a3ccf.html" target="_top" xlink:title="tests">
<polygon fill="#edf0f7" stroke="#404040" stroke-dasharray="5,2" points="8,-64 8,-135 80,-135 80,-64 8,-64"/>
<text text-anchor="middle" x="44" y="-123" font-family="Helvetica,sans-Serif" font-size="10.00">tests</text>
</a>
</g>
</g>
<!-- dir_8091579afade2b31e281dd516deebd66 -->
<g id="node1" class="node">
<title>dir_8091579afade2b31e281dd516deebd66</title>
<g id="a_node1"><a xlink:href="dir_8091579afade2b31e281dd516deebd66.html" target="_top" xlink:title="boundary">
<polygon fill="#edf0f7" stroke="#404040" stroke-width="2" points="72,-108 16,-108 16,-72 72,-72 72,-108"/>
<text text-anchor="middle" x="44" y="-87.5" font-family="Helvetica,sans-Serif" font-size="10.00">boundary</text>
</a>
</g>
</g>
<!-- dir_d44c64559bbebec7f509842c48db8b23 -->
<g id="node2" class="node">
<title>dir_d44c64559bbebec7f509842c48db8b23</title>
<g id="a_node2"><a xlink:href="dir_d44c64559bbebec7f509842c48db8b23.html" target="_top" xlink:title="include">
<polygon fill="none" stroke="red" points="71,-36 17,-36 17,0 71,0 71,-36"/>
<text text-anchor="middle" x="44" y="-15.5" font-family="Helvetica,sans-Serif" font-size="10.00">include</text>
</a>
</g>
</g>
<!-- dir_8091579afade2b31e281dd516deebd66&#45;&gt;dir_d44c64559bbebec7f509842c48db8b23 -->
<g id="edge1" class="edge">
<title>dir_8091579afade2b31e281dd516deebd66&#45;&gt;dir_d44c64559bbebec7f509842c48db8b23</title>
<path fill="none" stroke="black" d="M44,-71.7C44,-63.98 44,-54.71 44,-46.11"/>
<polygon fill="black" stroke="black" points="47.5,-46.1 44,-36.1 40.5,-46.1 47.5,-46.1"/>
<g id="a_edge1&#45;headlabel"><a xlink:href="dir_000004_000009.html" target="_top" xlink:title="3">
<text text-anchor="middle" x="50.34" y="-47.2" font-family="Helvetica,sans-Serif" font-size="10.00">3</text>
</a>
</g>
</g>
</g>
</svg>
