<?xml version="1.0" encoding="UTF-8" standalone="no"?>
<!DOCTYPE svg PUBLIC "-//W3C//DTD SVG 1.1//EN"
 "http://www.w3.org/Graphics/SVG/1.1/DTD/svg11.dtd">
<!-- Generated by graphviz version 3.0.0 (0)
 -->
<!-- Title: src Pages: 1 -->
<svg width="846pt" height="132pt"
 viewBox="0.00 0.00 846.00 132.00" xmlns="http://www.w3.org/2000/svg" xmlns:xlink="http://www.w3.org/1999/xlink">
<g id="graph0" class="graph" transform="scale(1 1) rotate(0) translate(4 128)">
<title>src</title>
<polygon fill="white" stroke="transparent" points="-4,4 -4,-128 842,-128 842,4 -4,4"/>
<g id="clust1" class="cluster">
<title>clusterdir_68267d1309a1af8e8297ef4c3efbcdba</title>
<g id="a_clust1"><a xlink:href="dir_68267d1309a1af8e8297ef4c3efbcdba.html" target="_top">
<polygon fill="#edf0f7" stroke="#404040" stroke-width="2" points="8,-64 8,-116 830,-116 830,-64 8,-64"/>
</a>
</g>
</g>
<!-- dir_68267d1309a1af8e8297ef4c3efbcdba -->
<g id="node1" class="node">
<title>dir_68267d1309a1af8e8297ef4c3efbcdba</title>
<text text-anchor="middle" x="795" y="-87.5" font-family="Helvetica,sans-Serif" font-size="10.00">src</text>
</g>
<!-- dir_9ac825d0161212ecde96f795c3a0b670 -->
<g id="node2" class="node">
<title>dir_9ac825d0161212ecde96f795c3a0b670</title>
<g id="a_node2"><a xlink:href="dir_9ac825d0161212ecde96f795c3a0b670.html" target="_top" xlink:title="body">
<polygon fill="#a2b4d6" stroke="#404040" points="750,-108 696,-108 696,-72 750,-72 750,-108"/>
<text text-anchor="middle" x="723" y="-87.5" font-family="Helvetica,sans-Serif" font-size="10.00">body</text>
</a>
</g>
</g>
<!-- dir_d44c64559bbebec7f509842c48db8b23 -->
<g id="node12" class="node">
<title>dir_d44c64559bbebec7f509842c48db8b23</title>
<g id="a_node12"><a xlink:href="dir_d44c64559bbebec7f509842c48db8b23.html" target="_top" xlink:title="include">
<polygon fill="none" stroke="red" points="424,-36 370,-36 370,0 424,0 424,-36"/>
<text text-anchor="middle" x="397" y="-15.5" font-family="Helvetica,sans-Serif" font-size="10.00">include</text>
</a>
</g>
</g>
<!-- dir_9ac825d0161212ecde96f795c3a0b670&#45;&gt;dir_d44c64559bbebec7f509842c48db8b23 -->
<g id="edge1" class="edge">
<title>dir_9ac825d0161212ecde96f795c3a0b670&#45;&gt;dir_d44c64559bbebec7f509842c48db8b23</title>
<path fill="none" stroke="black" d="M701.82,-71.97C697.16,-68.9 692.09,-66.03 687,-64 601,-29.61 490.91,-21.37 434.3,-19.48"/>
<polygon fill="black" stroke="black" points="434.14,-15.98 424.05,-19.19 433.94,-22.97 434.14,-15.98"/>
<g id="a_edge1&#45;headlabel"><a xlink:href="dir_000001_000009.html" target="_top" xlink:title="7">
<text text-anchor="middle" x="437.82" y="-10.74" font-family="Helvetica,sans-Serif" font-size="10.00">7</text>
</a>
</g>
</g>
<!-- dir_2725064ac5d6db7b2425ad4e379e8748 -->
<g id="node3" class="node">
<title>dir_2725064ac5d6db7b2425ad4e379e8748</title>
<g id="a_node3"><a xlink:href="dir_2725064ac5d6db7b2425ad4e379e8748.html" target="_top" xlink:title="boundary">
<polygon fill="#a2b4d6" stroke="#404040" points="678,-108 622,-108 622,-72 678,-72 678,-108"/>
<text text-anchor="middle" x="650" y="-87.5" font-family="Helvetica,sans-Serif" font-size="10.00">boundary</text>
</a>
</g>
</g>
<!-- dir_2725064ac5d6db7b2425ad4e379e8748&#45;&gt;dir_d44c64559bbebec7f509842c48db8b23 -->
<g id="edge2" class="edge">
<title>dir_2725064ac5d6db7b2425ad4e379e8748&#45;&gt;dir_d44c64559bbebec7f509842c48db8b23</title>
<path fill="none" stroke="black" d="M627.7,-71.93C623.03,-68.94 618,-66.11 613,-64 553.39,-38.81 478.38,-27.27 434.26,-22.33"/>
<polygon fill="black" stroke="black" points="434.58,-18.85 424.27,-21.27 433.84,-25.81 434.58,-18.85"/>
<g id="a_edge2&#45;headlabel"><a xlink:href="dir_000003_000009.html" target="_top" xlink:title="15">
<text text-anchor="middle" x="438.46" y="-13.9" font-family="Helvetica,sans-Serif" font-size="10.00">15</text>
</a>
</g>
</g>
<!-- dir_c184e51c84f2c3f0345bbc8a0d75d3e1 -->
<g id="node4" class="node">
<title>dir_c184e51c84f2c3f0345bbc8a0d75d3e1</title>
<g id="a_node4"><a xlink:href="dir_c184e51c84f2c3f0345bbc8a0d75d3e1.html" target="_top" xlink:title="io">
<polygon fill="#a2b4d6" stroke="#404040" points="604,-108 550,-108 550,-72 604,-72 604,-108"/>
<text text-anchor="middle" x="577" y="-87.5" font-family="Helvetica,sans-Serif" font-size="10.00">io</text>
</a>
</g>
</g>
<!-- dir_c184e51c84f2c3f0345bbc8a0d75d3e1&#45;&gt;dir_d44c64559bbebec7f509842c48db8b23 -->
<g id="edge3" class="edge">
<title>dir_c184e51c84f2c3f0345bbc8a0d75d3e1&#45;&gt;dir_d44c64559bbebec7f509842c48db8b23</title>
<path fill="none" stroke="black" d="M554.4,-71.77C550.09,-68.94 545.51,-66.21 541,-64 506.38,-47.06 463.98,-34.73 434.18,-27.3"/>
<polygon fill="black" stroke="black" points="434.75,-23.84 424.2,-24.88 433.1,-30.64 434.75,-23.84"/>
<g id="a_edge3&#45;headlabel"><a xlink:href="dir_000010_000009.html" target="_top" xlink:title="1">
<text text-anchor="middle" x="438.91" y="-19.43" font-family="Helvetica,sans-Serif" font-size="10.00">1</text>
</a>
</g>
</g>
<!-- dir_d4bb18432c0036d821398b3b49668d45 -->
<g id="node5" class="node">
<title>dir_d4bb18432c0036d821398b3b49668d45</title>
<g id="a_node5"><a xlink:href="dir_d4bb18432c0036d821398b3b49668d45.html" target="_top" xlink:title="linsolver">
<polygon fill="#a2b4d6" stroke="#404040" points="532,-108 478,-108 478,-72 532,-72 532,-108"/>
<text text-anchor="middle" x="505" y="-87.5" font-family="Helvetica,sans-Serif" font-size="10.00">linsolver</text>
</a>
</g>
</g>
<!-- dir_d4bb18432c0036d821398b3b49668d45&#45;&gt;dir_d44c64559bbebec7f509842c48db8b23 -->
<g id="edge4" class="edge">
<title>dir_d4bb18432c0036d821398b3b49668d45&#45;&gt;dir_d44c64559bbebec7f509842c48db8b23</title>
<path fill="none" stroke="black" d="M480.71,-71.89C476.81,-69.22 472.81,-66.51 469,-64 457.33,-56.31 444.43,-48.14 432.8,-40.9"/>
<polygon fill="black" stroke="black" points="434.55,-37.87 424.21,-35.57 430.86,-43.82 434.55,-37.87"/>
<g id="a_edge4&#45;headlabel"><a xlink:href="dir_000011_000009.html" target="_top" xlink:title="4">
<text text-anchor="middle" x="439.1" y="-34.85" font-family="Helvetica,sans-Serif" font-size="10.00">4</text>
</a>
</g>
</g>
<!-- dir_7be0d8c199b9408ae01f5d77515b8def -->
<g id="node6" class="node">
<title>dir_7be0d8c199b9408ae01f5d77515b8def</title>
<g id="a_node6"><a xlink:href="dir_7be0d8c199b9408ae01f5d77515b8def.html" target="_top" xlink:title="mesh">
<polygon fill="#a2b4d6" stroke="#404040" points="460,-108 406,-108 406,-72 460,-72 460,-108"/>
<text text-anchor="middle" x="433" y="-87.5" font-family="Helvetica,sans-Serif" font-size="10.00">mesh</text>
</a>
</g>
</g>
<!-- dir_7be0d8c199b9408ae01f5d77515b8def&#45;&gt;dir_d44c64559bbebec7f509842c48db8b23 -->
<g id="edge5" class="edge">
<title>dir_7be0d8c199b9408ae01f5d77515b8def&#45;&gt;dir_d44c64559bbebec7f509842c48db8b23</title>
<path fill="none" stroke="black" d="M424.1,-71.7C420,-63.73 415.05,-54.1 410.51,-45.26"/>
<polygon fill="black" stroke="black" points="413.48,-43.4 405.8,-36.1 407.26,-46.6 413.48,-43.4"/>
<g id="a_edge5&#45;headlabel"><a xlink:href="dir_000013_000009.html" target="_top" xlink:title="7">
<text text-anchor="middle" x="417.65" y="-42.79" font-family="Helvetica,sans-Serif" font-size="10.00">7</text>
</a>
</g>
</g>
<!-- dir_88826aa2a10e1882b573f502bc7f4b55 -->
<g id="node7" class="node">
<title>dir_88826aa2a10e1882b573f502bc7f4b55</title>
<g id="a_node7"><a xlink:href="dir_88826aa2a10e1882b573f502bc7f4b55.html" target="_top" xlink:title="misc">
<polygon fill="#a2b4d6" stroke="#404040" points="388,-108 334,-108 334,-72 388,-72 388,-108"/>
<text text-anchor="middle" x="361" y="-87.5" font-family="Helvetica,sans-Serif" font-size="10.00">misc</text>
</a>
</g>
</g>
<!-- dir_88826aa2a10e1882b573f502bc7f4b55&#45;&gt;dir_d44c64559bbebec7f509842c48db8b23 -->
<g id="edge6" class="edge">
<title>dir_88826aa2a10e1882b573f502bc7f4b55&#45;&gt;dir_d44c64559bbebec7f509842c48db8b23</title>
<path fill="none" stroke="black" d="M369.9,-71.7C374,-63.73 378.95,-54.1 383.49,-45.26"/>
<polygon fill="black" stroke="black" points="386.74,-46.6 388.2,-36.1 380.52,-43.4 386.74,-46.6"/>
<g id="a_edge6&#45;headlabel"><a xlink:href="dir_000015_000009.html" target="_top" xlink:title="6">
<text text-anchor="middle" x="387.62" y="-48.59" font-family="Helvetica,sans-Serif" font-size="10.00">6</text>
</a>
</g>
</g>
<!-- dir_82efe83b87803b3f04ecf90d1f66df00 -->
<g id="node8" class="node">
<title>dir_82efe83b87803b3f04ecf90d1f66df00</title>
<g id="a_node8"><a xlink:href="dir_82efe83b87803b3f04ecf90d1f66df00.html" target="_top" xlink:title="operators">
<polygon fill="#a2b4d6" stroke="#404040" points="315.5,-108 258.5,-108 258.5,-72 315.5,-72 315.5,-108"/>
<text text-anchor="middle" x="287" y="-87.5" font-family="Helvetica,sans-Serif" font-size="10.00">operators</text>
</a>
</g>
</g>
<!-- dir_82efe83b87803b3f04ecf90d1f66df00&#45;&gt;dir_d44c64559bbebec7f509842c48db8b23 -->
<g id="edge7" class="edge">
<title>dir_82efe83b87803b3f04ecf90d1f66df00&#45;&gt;dir_d44c64559bbebec7f509842c48db8b23</title>
<path fill="none" stroke="black" d="M312.7,-71.97C316.81,-69.29 321.01,-66.56 325,-64 336.77,-56.45 349.7,-48.32 361.31,-41.08"/>
<polygon fill="black" stroke="black" points="363.26,-43.99 369.9,-35.73 359.56,-38.05 363.26,-43.99"/>
<g id="a_edge7&#45;headlabel"><a xlink:href="dir_000018_000009.html" target="_top" xlink:title="18">
<text text-anchor="middle" x="361.7" y="-45.8" font-family="Helvetica,sans-Serif" font-size="10.00">18</text>
</a>
</g>
</g>
<!-- dir_6cd8491d143eb218b70983dbdb3c58bc -->
<g id="node9" class="node">
<title>dir_6cd8491d143eb218b70983dbdb3c58bc</title>
<g id="a_node9"><a xlink:href="dir_6cd8491d143eb218b70983dbdb3c58bc.html" target="_top" xlink:title="parser">
<polygon fill="#a2b4d6" stroke="#404040" points="240,-108 186,-108 186,-72 240,-72 240,-108"/>
<text text-anchor="middle" x="213" y="-87.5" font-family="Helvetica,sans-Serif" font-size="10.00">parser</text>
</a>
</g>
</g>
<!-- dir_6cd8491d143eb218b70983dbdb3c58bc&#45;&gt;dir_d44c64559bbebec7f509842c48db8b23 -->
<g id="edge8" class="edge">
<title>dir_6cd8491d143eb218b70983dbdb3c58bc&#45;&gt;dir_d44c64559bbebec7f509842c48db8b23</title>
<path fill="none" stroke="black" d="M236.26,-71.77C240.69,-68.94 245.38,-66.21 250,-64 285.81,-46.89 329.61,-34.48 360.04,-27.07"/>
<polygon fill="black" stroke="black" points="360.9,-30.47 369.82,-24.76 359.28,-23.66 360.9,-30.47"/>
<g id="a_edge8&#45;headlabel"><a xlink:href="dir_000020_000009.html" target="_top" xlink:title="2">
<text text-anchor="middle" x="358.05" y="-31.56" font-family="Helvetica,sans-Serif" font-size="10.00">2</text>
</a>
</g>
</g>
<!-- dir_d87c8f45e11152a06ed0fc5dbd24c5a6 -->
<g id="node10" class="node">
<title>dir_d87c8f45e11152a06ed0fc5dbd24c5a6</title>
<g id="a_node10"><a xlink:href="dir_d87c8f45e11152a06ed0fc5dbd24c5a6.html" target="_top" xlink:title="solution">
<polygon fill="#a2b4d6" stroke="#404040" points="168,-108 114,-108 114,-72 168,-72 168,-108"/>
<text text-anchor="middle" x="141" y="-87.5" font-family="Helvetica,sans-Serif" font-size="10.00">solution</text>
</a>
</g>
</g>
<!-- dir_d87c8f45e11152a06ed0fc5dbd24c5a6&#45;&gt;dir_d44c64559bbebec7f509842c48db8b23 -->
<g id="edge9" class="edge">
<title>dir_d87c8f45e11152a06ed0fc5dbd24c5a6&#45;&gt;dir_d44c64559bbebec7f509842c48db8b23</title>
<path fill="none" stroke="black" d="M162.64,-71.9C167.19,-68.91 172.1,-66.1 177,-64 237.89,-37.94 314.84,-26.65 359.73,-22"/>
<polygon fill="black" stroke="black" points="360.27,-25.47 369.88,-21.01 359.59,-18.5 360.27,-25.47"/>
<g id="a_edge9&#45;headlabel"><a xlink:href="dir_000023_000009.html" target="_top" xlink:title="6">
<text text-anchor="middle" x="356.97" y="-26.14" font-family="Helvetica,sans-Serif" font-size="10.00">6</text>
</a>
</g>
</g>
<!-- dir_14fb37849f68930df67749c85234df30 -->
<g id="node11" class="node">
<title>dir_14fb37849f68930df67749c85234df30</title>
<g id="a_node11"><a xlink:href="dir_14fb37849f68930df67749c85234df30.html" target="_top" xlink:title="timeintegration">
<polygon fill="#a2b4d6" stroke="#404040" points="96,-108 16,-108 16,-72 96,-72 96,-108"/>
<text text-anchor="middle" x="56" y="-87.5" font-family="Helvetica,sans-Serif" font-size="10.00">timeintegration</text>
</a>
</g>
</g>
<!-- dir_14fb37849f68930df67749c85234df30&#45;&gt;dir_d44c64559bbebec7f509842c48db8b23 -->
<g id="edge10" class="edge">
<title>dir_14fb37849f68930df67749c85234df30&#45;&gt;dir_d44c64559bbebec7f509842c48db8b23</title>
<path fill="none" stroke="black" d="M85.67,-71.97C91.9,-68.93 98.55,-66.08 105,-64 193.5,-35.42 303.12,-24.75 359.54,-20.96"/>
<polygon fill="black" stroke="black" points="360.01,-24.44 369.77,-20.31 359.57,-17.45 360.01,-24.44"/>
<g id="a_edge10&#45;headlabel"><a xlink:href="dir_000026_000009.html" target="_top" xlink:title="1">
<text text-anchor="middle" x="356.6" y="-25" font-family="Helvetica,sans-Serif" font-size="10.00">1</text>
</a>
</g>
</g>
</g>
</svg>
