<?xml version="1.0" encoding="UTF-8" standalone="no"?>
<!DOCTYPE svg PUBLIC "-//W3C//DTD SVG 1.1//EN"
 "http://www.w3.org/Graphics/SVG/1.1/DTD/svg11.dtd">
<!-- Generated by graphviz version 2.38.0 (20140413.2041)
 -->
<!-- Title: applications Pages: 1 -->
<svg width="436pt" height="204pt"
 viewBox="0.00 0.00 436.00 204.00" xmlns="http://www.w3.org/2000/svg" xmlns:xlink="http://www.w3.org/1999/xlink">
<g id="graph0" class="graph" transform="scale(1 1) rotate(0) translate(4 200)">
<title>applications</title>
<polygon fill="white" stroke="none" points="-4,4 -4,-200 432,-200 432,4 -4,4"/>
<g id="clust1" class="cluster"><title>clusterdir_a6e4fee11f07c3b70486e88fe92cbbdc</title>
<g id="a_clust1"><a xlink:href="dir_a6e4fee11f07c3b70486e88fe92cbbdc.html" target="_top">
<polygon fill="#eeeeff" stroke="black" points="8,-64 8,-188 420,-188 420,-64 8,-64"/>
</a>
</g>
</g>
<!-- dir_a6e4fee11f07c3b70486e88fe92cbbdc -->
<g id="node1" class="node"><title>dir_a6e4fee11f07c3b70486e88fe92cbbdc</title>
<text text-anchor="middle" x="378" y="-159.5" font-family="Helvetica,sans-Serif" font-size="10.00">applications</text>
</g>
<!-- dir_52b06b12098494e939aa8d0b4132bf3d -->
<g id="node2" class="node"><title>dir_52b06b12098494e939aa8d0b4132bf3d</title>
<g id="a_node2"><a xlink:href="dir_52b06b12098494e939aa8d0b4132bf3d.html" target="_top" xlink:title="createxdmf">
<polygon fill="white" stroke="black" points="253.5,-180 188.5,-180 188.5,-144 253.5,-144 253.5,-180"/>
<text text-anchor="middle" x="221" y="-159.5" font-family="Helvetica,sans-Serif" font-size="10.00">createxdmf</text>
</a>
</g>
</g>
<!-- dir_d44c64559bbebec7f509842c48db8b23 -->
<g id="node7" class="node"><title>dir_d44c64559bbebec7f509842c48db8b23</title>
<g id="a_node7"><a xlink:href="dir_d44c64559bbebec7f509842c48db8b23.html" target="_top" xlink:title="include">
<polygon fill="white" stroke="red" points="192,-36 138,-36 138,-0 192,-0 192,-36"/>
<text text-anchor="middle" x="165" y="-15.5" font-family="Helvetica,sans-Serif" font-size="10.00">include</text>
</a>
</g>
</g>
<!-- dir_52b06b12098494e939aa8d0b4132bf3d&#45;&gt;dir_d44c64559bbebec7f509842c48db8b23 -->
<g id="edge7" class="edge"><title>dir_52b06b12098494e939aa8d0b4132bf3d&#45;&gt;dir_d44c64559bbebec7f509842c48db8b23</title>
<path fill="none" stroke="black" d="M214.245,-143.871C204.617,-119.457 186.858,-74.4258 175.504,-45.6351"/>
<polygon fill="black" stroke="black" points="178.704,-44.2079 171.779,-36.1893 172.192,-46.7761 178.704,-44.2079"/>
<g id="a_edge7&#45;headlabel"><a xlink:href="dir_000001_000008.html" target="_top" xlink:title="3">
<text text-anchor="middle" x="182.664" y="-44.0103" font-family="Helvetica,sans-Serif" font-size="10.00">3</text>
</a>
</g>
</g>
<!-- dir_02799f4d4439ae71e263b5891136b552 -->
<g id="node3" class="node"><title>dir_02799f4d4439ae71e263b5891136b552</title>
<g id="a_node3"><a xlink:href="dir_02799f4d4439ae71e263b5891136b552.html" target="_top" xlink:title="decoupledibpm">
<polygon fill="white" stroke="black" points="98,-180 16,-180 16,-144 98,-144 98,-180"/>
<text text-anchor="middle" x="57" y="-159.5" font-family="Helvetica,sans-Serif" font-size="10.00">decoupledibpm</text>
</a>
</g>
</g>
<!-- dir_5a17396c6ee06cf41110d2e7bc9bd347 -->
<g id="node5" class="node"><title>dir_5a17396c6ee06cf41110d2e7bc9bd347</title>
<g id="a_node5"><a xlink:href="dir_5a17396c6ee06cf41110d2e7bc9bd347.html" target="_top" xlink:title="navierstokes">
<polygon fill="white" stroke="black" points="99,-108 27,-108 27,-72 99,-72 99,-108"/>
<text text-anchor="middle" x="63" y="-87.5" font-family="Helvetica,sans-Serif" font-size="10.00">navierstokes</text>
</a>
</g>
</g>
<!-- dir_02799f4d4439ae71e263b5891136b552&#45;&gt;dir_5a17396c6ee06cf41110d2e7bc9bd347 -->
<g id="edge1" class="edge"><title>dir_02799f4d4439ae71e263b5891136b552&#45;&gt;dir_5a17396c6ee06cf41110d2e7bc9bd347</title>
<path fill="none" stroke="black" d="M58.4831,-143.697C59.1443,-135.983 59.9389,-126.712 60.6761,-118.112"/>
<polygon fill="black" stroke="black" points="64.167,-118.367 61.5339,-108.104 57.1926,-117.769 64.167,-118.367"/>
<g id="a_edge1&#45;headlabel"><a xlink:href="dir_000002_000004.html" target="_top" xlink:title="1">
<text text-anchor="middle" x="66.689" y="-119.691" font-family="Helvetica,sans-Serif" font-size="10.00">1</text>
</a>
</g>
</g>
<!-- dir_02799f4d4439ae71e263b5891136b552&#45;&gt;dir_d44c64559bbebec7f509842c48db8b23 -->
<g id="edge2" class="edge"><title>dir_02799f4d4439ae71e263b5891136b552&#45;&gt;dir_d44c64559bbebec7f509842c48db8b23</title>
<path fill="none" stroke="black" d="M75.3885,-143.652C85.5247,-133.669 98.035,-120.632 108,-108 123.943,-87.7889 139.531,-63.0001 150.365,-44.7214"/>
<polygon fill="black" stroke="black" points="153.399,-46.4665 155.427,-36.0677 147.357,-42.9318 153.399,-46.4665"/>
<g id="a_edge2&#45;headlabel"><a xlink:href="dir_000002_000008.html" target="_top" xlink:title="2">
<text text-anchor="middle" x="154.034" y="-48.5029" font-family="Helvetica,sans-Serif" font-size="10.00">2</text>
</a>
</g>
</g>
<!-- dir_d6d107984486c79e0c1e0c38780e7601 -->
<g id="node4" class="node"><title>dir_d6d107984486c79e0c1e0c38780e7601</title>
<g id="a_node4"><a xlink:href="dir_d6d107984486c79e0c1e0c38780e7601.html" target="_top" xlink:title="ibpm">
<polygon fill="white" stroke="black" points="170,-180 116,-180 116,-144 170,-144 170,-180"/>
<text text-anchor="middle" x="143" y="-159.5" font-family="Helvetica,sans-Serif" font-size="10.00">ibpm</text>
</a>
</g>
</g>
<!-- dir_d6d107984486c79e0c1e0c38780e7601&#45;&gt;dir_5a17396c6ee06cf41110d2e7bc9bd347 -->
<g id="edge5" class="edge"><title>dir_d6d107984486c79e0c1e0c38780e7601&#45;&gt;dir_5a17396c6ee06cf41110d2e7bc9bd347</title>
<path fill="none" stroke="black" d="M123.225,-143.697C113.246,-134.965 100.989,-124.24 90.1432,-114.75"/>
<polygon fill="black" stroke="black" points="92.3784,-112.055 82.5478,-108.104 87.7688,-117.323 92.3784,-112.055"/>
<g id="a_edge5&#45;headlabel"><a xlink:href="dir_000003_000004.html" target="_top" xlink:title="1">
<text text-anchor="middle" x="96.9532" y="-109.786" font-family="Helvetica,sans-Serif" font-size="10.00">1</text>
</a>
</g>
</g>
<!-- dir_d6d107984486c79e0c1e0c38780e7601&#45;&gt;dir_d44c64559bbebec7f509842c48db8b23 -->
<g id="edge6" class="edge"><title>dir_d6d107984486c79e0c1e0c38780e7601&#45;&gt;dir_d44c64559bbebec7f509842c48db8b23</title>
<path fill="none" stroke="black" d="M145.654,-143.871C149.403,-119.67 156.291,-75.2108 160.756,-46.3932"/>
<polygon fill="black" stroke="black" points="164.264,-46.6073 162.337,-36.1893 157.347,-45.5355 164.264,-46.6073"/>
<g id="a_edge6&#45;headlabel"><a xlink:href="dir_000003_000008.html" target="_top" xlink:title="3">
<text text-anchor="middle" x="166.52" y="-48.0942" font-family="Helvetica,sans-Serif" font-size="10.00">3</text>
</a>
</g>
</g>
<!-- dir_5a17396c6ee06cf41110d2e7bc9bd347&#45;&gt;dir_d44c64559bbebec7f509842c48db8b23 -->
<g id="edge3" class="edge"><title>dir_5a17396c6ee06cf41110d2e7bc9bd347&#45;&gt;dir_d44c64559bbebec7f509842c48db8b23</title>
<path fill="none" stroke="black" d="M87.952,-71.8761C101.042,-62.8931 117.26,-51.7625 131.436,-42.0341"/>
<polygon fill="black" stroke="black" points="133.687,-44.734 139.952,-36.1898 129.726,-38.9624 133.687,-44.734"/>
<g id="a_edge3&#45;headlabel"><a xlink:href="dir_000004_000008.html" target="_top" xlink:title="7">
<text text-anchor="middle" x="132.33" y="-46.609" font-family="Helvetica,sans-Serif" font-size="10.00">7</text>
</a>
</g>
</g>
<!-- dir_06ecf09adf175a7d29131d5569c50439 -->
<g id="node6" class="node"><title>dir_06ecf09adf175a7d29131d5569c50439</title>
<g id="a_node6"><a xlink:href="dir_06ecf09adf175a7d29131d5569c50439.html" target="_top" xlink:title="vorticity">
<polygon fill="white" stroke="black" points="326,-180 272,-180 272,-144 326,-144 326,-180"/>
<text text-anchor="middle" x="299" y="-159.5" font-family="Helvetica,sans-Serif" font-size="10.00">vorticity</text>
</a>
</g>
</g>
<!-- dir_06ecf09adf175a7d29131d5569c50439&#45;&gt;dir_d44c64559bbebec7f509842c48db8b23 -->
<g id="edge4" class="edge"><title>dir_06ecf09adf175a7d29131d5569c50439&#45;&gt;dir_d44c64559bbebec7f509842c48db8b23</title>
<path fill="none" stroke="black" d="M282.836,-143.871C259.294,-118.924 215.438,-72.4495 188.377,-43.7729"/>
<polygon fill="black" stroke="black" points="190.63,-41.0601 181.221,-36.1893 185.539,-45.8644 190.63,-41.0601"/>
<g id="a_edge4&#45;headlabel"><a xlink:href="dir_000005_000008.html" target="_top" xlink:title="6">
<text text-anchor="middle" x="195.162" y="-39.2258" font-family="Helvetica,sans-Serif" font-size="10.00">6</text>
</a>
</g>
</g>
</g>
</svg>
