<?xml version="1.0" encoding="UTF-8" standalone="no"?>
<!DOCTYPE svg PUBLIC "-//W3C//DTD SVG 1.1//EN"
 "http://www.w3.org/Graphics/SVG/1.1/DTD/svg11.dtd">
<!-- Generated by graphviz version 3.0.0 (0)
 -->
<!-- Title: Graphical Class Hierarchy Pages: 1 -->
<svg width="232pt" height="88pt"
 viewBox="0.00 0.00 232.00 88.00" xmlns="http://www.w3.org/2000/svg" xmlns:xlink="http://www.w3.org/1999/xlink">
<g id="graph0" class="graph" transform="scale(1 1) rotate(0) translate(4 84)">
<title>Graphical Class Hierarchy</title>
<polygon fill="white" stroke="transparent" points="-4,4 -4,-84 228,-84 228,4 -4,4"/>
<!-- Node0 -->
<g id="node1" class="node">
<title>Node0</title>
<g id="a_node1"><a xlink:href="de/d3e/classpetibm_1_1linsolver_1_1_lin_solver_base.html" target="_top" xlink:title="The abstract (base) class for different iterative solvers.">
<polygon fill="white" stroke="black" points="0,-24.5 0,-54.5 94,-54.5 94,-24.5 0,-24.5"/>
<text text-anchor="start" x="8" y="-42.5" font-family="Helvetica,sans-Serif" font-size="10.00">petibm::linsolver::</text>
<text text-anchor="middle" x="47" y="-31.5" font-family="Helvetica,sans-Serif" font-size="10.00">LinSolverBase</text>
</a>
</g>
</g>
<!-- Node1 -->
<g id="node2" class="node">
<title>Node1</title>
<g id="a_node2"><a xlink:href="df/d3a/classpetibm_1_1linsolver_1_1_lin_solver_amg_x.html" target="_top" xlink:title="Iterative solver using wrapper of AmgX.">
<polygon fill="white" stroke="black" points="130,-49.5 130,-79.5 224,-79.5 224,-49.5 130,-49.5"/>
<text text-anchor="start" x="138" y="-67.5" font-family="Helvetica,sans-Serif" font-size="10.00">petibm::linsolver::</text>
<text text-anchor="middle" x="177" y="-56.5" font-family="Helvetica,sans-Serif" font-size="10.00">LinSolverAmgX</text>
</a>
</g>
</g>
<!-- Node0&#45;&gt;Node1 -->
<g id="edge1" class="edge">
<title>Node0&#45;&gt;Node1</title>
<path fill="none" stroke="midnightblue" d="M104.16,-50.47C112.75,-52.15 121.52,-53.86 129.86,-55.49"/>
<polygon fill="midnightblue" stroke="midnightblue" points="104.7,-47.01 94.21,-48.53 103.35,-53.88 104.7,-47.01"/>
</g>
<!-- Node2 -->
<g id="node3" class="node">
<title>Node2</title>
<g id="a_node3"><a xlink:href="d8/dfe/classpetibm_1_1linsolver_1_1_lin_solver_k_s_p.html" target="_top" xlink:title="Iterative solver using PETSc KSP.">
<polygon fill="white" stroke="black" points="130,-0.5 130,-30.5 224,-30.5 224,-0.5 130,-0.5"/>
<text text-anchor="start" x="138" y="-18.5" font-family="Helvetica,sans-Serif" font-size="10.00">petibm::linsolver::</text>
<text text-anchor="middle" x="177" y="-7.5" font-family="Helvetica,sans-Serif" font-size="10.00">LinSolverKSP</text>
</a>
</g>
</g>
<!-- Node0&#45;&gt;Node2 -->
<g id="edge2" class="edge">
<title>Node0&#45;&gt;Node2</title>
<path fill="none" stroke="midnightblue" d="M104.16,-28.97C112.75,-27.36 121.52,-25.71 129.86,-24.15"/>
<polygon fill="midnightblue" stroke="midnightblue" points="103.39,-25.55 94.21,-30.84 104.68,-32.43 103.39,-25.55"/>
</g>
</g>
</svg>
