<?xml version="1.0" encoding="UTF-8" standalone="no"?>
<!DOCTYPE svg PUBLIC "-//W3C//DTD SVG 1.1//EN"
 "http://www.w3.org/Graphics/SVG/1.1/DTD/svg11.dtd">
<!-- Generated by graphviz version 3.0.0 (0)
 -->
<!-- Title: Graphical Class Hierarchy Pages: 1 -->
<svg width="308pt" height="66pt"
 viewBox="0.00 0.00 308.00 66.00" xmlns="http://www.w3.org/2000/svg" xmlns:xlink="http://www.w3.org/1999/xlink">
<g id="graph0" class="graph" transform="scale(1 1) rotate(0) translate(4 62)">
<title>Graphical Class Hierarchy</title>
<polygon fill="white" stroke="transparent" points="-4,4 -4,-62 304,-62 304,4 -4,4"/>
<!-- Node0 -->
<g id="node1" class="node">
<title>Node0</title>
<g id="a_node1"><a xlink:href="df/d8d/classpetibm_1_1misc_1_1_probe_base.html" target="_top" xlink:title="Abstract Base Class of a probe.">
<polygon fill="white" stroke="black" points="0,-19.5 0,-38.5 127,-38.5 127,-19.5 0,-19.5"/>
<text text-anchor="middle" x="63.5" y="-26.5" font-family="Helvetica,sans-Serif" font-size="10.00">petibm::misc::ProbeBase</text>
</a>
</g>
</g>
<!-- Node1 -->
<g id="node2" class="node">
<title>Node1</title>
<g id="a_node2"><a xlink:href="d0/d74/classpetibm_1_1misc_1_1_probe_point.html" target="_top" xlink:title="Probe class to monitor the solution at a single point.">
<polygon fill="white" stroke="black" points="168,-38.5 168,-57.5 295,-57.5 295,-38.5 168,-38.5"/>
<text text-anchor="middle" x="231.5" y="-45.5" font-family="Helvetica,sans-Serif" font-size="10.00">petibm::misc::ProbePoint</text>
</a>
</g>
</g>
<!-- Node0&#45;&gt;Node1 -->
<g id="edge1" class="edge">
<title>Node0&#45;&gt;Node1</title>
<path fill="none" stroke="midnightblue" d="M137.36,-37.34C147.55,-38.51 157.95,-39.7 167.93,-40.84"/>
<polygon fill="midnightblue" stroke="midnightblue" points="137.59,-33.84 127.26,-36.18 136.79,-40.8 137.59,-33.84"/>
</g>
<!-- Node2 -->
<g id="node3" class="node">
<title>Node2</title>
<g id="a_node3"><a xlink:href="db/da9/classpetibm_1_1misc_1_1_probe_volume.html" target="_top" xlink:title="Probe class to monitor a volume region of the domain.">
<polygon fill="white" stroke="black" points="163,-0.5 163,-19.5 300,-19.5 300,-0.5 163,-0.5"/>
<text text-anchor="middle" x="231.5" y="-7.5" font-family="Helvetica,sans-Serif" font-size="10.00">petibm::misc::ProbeVolume</text>
</a>
</g>
</g>
<!-- Node0&#45;&gt;Node2 -->
<g id="edge2" class="edge">
<title>Node0&#45;&gt;Node2</title>
<path fill="none" stroke="midnightblue" d="M137.21,-20.68C145.76,-19.7 154.46,-18.7 162.94,-17.73"/>
<polygon fill="midnightblue" stroke="midnightblue" points="136.79,-17.2 127.26,-21.82 137.59,-24.16 136.79,-17.2"/>
</g>
</g>
</svg>
