<?xml version="1.0" encoding="UTF-8" standalone="no"?>
<!DOCTYPE svg PUBLIC "-//W3C//DTD SVG 1.1//EN"
 "http://www.w3.org/Graphics/SVG/1.1/DTD/svg11.dtd">
<!-- Generated by graphviz version 3.0.0 (0)
 -->
<!-- Title: Graphical Class Hierarchy Pages: 1 -->
<svg width="294pt" height="186pt"
 viewBox="0.00 0.00 294.00 186.00" xmlns="http://www.w3.org/2000/svg" xmlns:xlink="http://www.w3.org/1999/xlink">
<g id="graph0" class="graph" transform="scale(1 1) rotate(0) translate(4 182)">
<title>Graphical Class Hierarchy</title>
<polygon fill="white" stroke="transparent" points="-4,4 -4,-182 290,-182 290,4 -4,4"/>
<!-- Node0 -->
<g id="node1" class="node">
<title>Node0</title>
<g id="a_node1"><a xlink:href="d6/d69/classpetibm_1_1boundary_1_1_single_boundary_base.html" target="_top" xlink:title="Base (abstract) class for ghost points &amp; BC on a single boundary.">
<polygon fill="white" stroke="black" points="0,-73.5 0,-103.5 125,-103.5 125,-73.5 0,-73.5"/>
<text text-anchor="start" x="8" y="-91.5" font-family="Helvetica,sans-Serif" font-size="10.00">petibm::boundary::Single</text>
<text text-anchor="middle" x="62.5" y="-80.5" font-family="Helvetica,sans-Serif" font-size="10.00">BoundaryBase</text>
</a>
</g>
</g>
<!-- Node1 -->
<g id="node2" class="node">
<title>Node1</title>
<g id="a_node2"><a xlink:href="db/dbb/classpetibm_1_1boundary_1_1_single_boundary_convective.html" target="_top" xlink:title="An implementation of SingleBoundaryBase for convective BC.">
<polygon fill="white" stroke="black" points="161,-147.5 161,-177.5 286,-177.5 286,-147.5 161,-147.5"/>
<text text-anchor="start" x="169" y="-165.5" font-family="Helvetica,sans-Serif" font-size="10.00">petibm::boundary::Single</text>
<text text-anchor="middle" x="223.5" y="-154.5" font-family="Helvetica,sans-Serif" font-size="10.00">BoundaryConvective</text>
</a>
</g>
</g>
<!-- Node0&#45;&gt;Node1 -->
<g id="edge1" class="edge">
<title>Node0&#45;&gt;Node1</title>
<path fill="none" stroke="midnightblue" d="M100.33,-108.51C118.4,-118.04 140.61,-129.32 161,-138.5 167.79,-141.56 175.1,-144.61 182.23,-147.46"/>
<polygon fill="midnightblue" stroke="midnightblue" points="101.76,-105.31 91.29,-103.71 98.48,-111.49 101.76,-105.31"/>
</g>
<!-- Node2 -->
<g id="node3" class="node">
<title>Node2</title>
<g id="a_node3"><a xlink:href="d6/d8f/classpetibm_1_1boundary_1_1_single_boundary_dirichlet.html" target="_top" xlink:title="An implementation of SingleBoundaryBase for Dirichlet BC.">
<polygon fill="white" stroke="black" points="161,-98.5 161,-128.5 286,-128.5 286,-98.5 161,-98.5"/>
<text text-anchor="start" x="169" y="-116.5" font-family="Helvetica,sans-Serif" font-size="10.00">petibm::boundary::Single</text>
<text text-anchor="middle" x="223.5" y="-105.5" font-family="Helvetica,sans-Serif" font-size="10.00">BoundaryDirichlet</text>
</a>
</g>
</g>
<!-- Node0&#45;&gt;Node2 -->
<g id="edge2" class="edge">
<title>Node0&#45;&gt;Node2</title>
<path fill="none" stroke="midnightblue" d="M135.32,-99.79C143.8,-101.13 152.41,-102.48 160.74,-103.79"/>
<polygon fill="midnightblue" stroke="midnightblue" points="135.85,-96.33 125.43,-98.24 134.76,-103.25 135.85,-96.33"/>
</g>
<!-- Node3 -->
<g id="node4" class="node">
<title>Node3</title>
<g id="a_node4"><a xlink:href="d9/d94/classpetibm_1_1boundary_1_1_single_boundary_neumann.html" target="_top" xlink:title="An implementation of SingleBoundaryBase for Neumann BC.">
<polygon fill="white" stroke="black" points="161,-49.5 161,-79.5 286,-79.5 286,-49.5 161,-49.5"/>
<text text-anchor="start" x="169" y="-67.5" font-family="Helvetica,sans-Serif" font-size="10.00">petibm::boundary::Single</text>
<text text-anchor="middle" x="223.5" y="-56.5" font-family="Helvetica,sans-Serif" font-size="10.00">BoundaryNeumann</text>
</a>
</g>
</g>
<!-- Node0&#45;&gt;Node3 -->
<g id="edge3" class="edge">
<title>Node0&#45;&gt;Node3</title>
<path fill="none" stroke="midnightblue" d="M135.59,-77.62C143.99,-76.35 152.5,-75.07 160.74,-73.82"/>
<polygon fill="midnightblue" stroke="midnightblue" points="134.79,-74.2 125.43,-79.15 135.84,-81.12 134.79,-74.2"/>
</g>
<!-- Node4 -->
<g id="node5" class="node">
<title>Node4</title>
<g id="a_node5"><a xlink:href="de/d58/classpetibm_1_1boundary_1_1_single_boundary_periodic.html" target="_top" xlink:title="An implementation of SingleBoundaryBase for periodic BC.">
<polygon fill="white" stroke="black" points="161,-0.5 161,-30.5 286,-30.5 286,-0.5 161,-0.5"/>
<text text-anchor="start" x="169" y="-18.5" font-family="Helvetica,sans-Serif" font-size="10.00">petibm::boundary::Single</text>
<text text-anchor="middle" x="223.5" y="-7.5" font-family="Helvetica,sans-Serif" font-size="10.00">BoundaryPeriodic</text>
</a>
</g>
</g>
<!-- Node0&#45;&gt;Node4 -->
<g id="edge4" class="edge">
<title>Node0&#45;&gt;Node4</title>
<path fill="none" stroke="midnightblue" d="M101.65,-68.93C119.53,-59.96 141.21,-49.38 161,-40.5 168.47,-37.15 176.52,-33.74 184.26,-30.55"/>
<polygon fill="midnightblue" stroke="midnightblue" points="100.03,-65.83 92.68,-73.46 103.19,-72.08 100.03,-65.83"/>
</g>
</g>
</svg>
