<?xml version="1.0" encoding="UTF-8" standalone="no"?>
<!DOCTYPE svg PUBLIC "-//W3C//DTD SVG 1.1//EN"
 "http://www.w3.org/Graphics/SVG/1.1/DTD/svg11.dtd">
<!-- Generated by graphviz version 2.38.0 (20140413.2041)
 -->
<!-- Title: Graphical Class Hierarchy Pages: 1 -->
<svg width="308pt" height="66pt"
 viewBox="0.00 0.00 308.00 66.00" xmlns="http://www.w3.org/2000/svg" xmlns:xlink="http://www.w3.org/1999/xlink">
<g id="graph0" class="graph" transform="scale(1 1) rotate(0) translate(4 62)">
<title>Graphical Class Hierarchy</title>
<polygon fill="white" stroke="none" points="-4,4 -4,-62 304,-62 304,4 -4,4"/>
<!-- Node1 -->
<g id="node1" class="node"><title>Node1</title>
<g id="a_node1"><a xlink:href="df/d8d/classpetibm_1_1misc_1_1_probe_base.html" target="_top" xlink:title="Abstract Base Class of a probe. ">
<polygon fill="white" stroke="black" points="0,-19.5 0,-38.5 127,-38.5 127,-19.5 0,-19.5"/>
<text text-anchor="middle" x="63.5" y="-26.5" font-family="Helvetica,sans-Serif" font-size="10.00">petibm::misc::ProbeBase</text>
</a>
</g>
</g>
<!-- Node2 -->
<g id="node2" class="node"><title>Node2</title>
<g id="a_node2"><a xlink:href="d0/d74/classpetibm_1_1misc_1_1_probe_point.html" target="_top" xlink:title="Probe class to monitor the solution at a single point. ">
<polygon fill="white" stroke="black" points="168,-38.5 168,-57.5 295,-57.5 295,-38.5 168,-38.5"/>
<text text-anchor="middle" x="231.5" y="-45.5" font-family="Helvetica,sans-Serif" font-size="10.00">petibm::misc::ProbePoint</text>
</a>
</g>
</g>
<!-- Node1&#45;&gt;Node2 -->
<g id="edge1" class="edge"><title>Node1&#45;&gt;Node2</title>
<path fill="none" stroke="midnightblue" d="M137.358,-37.3391C147.55,-38.5057 157.95,-39.6961 167.929,-40.8383"/>
<polygon fill="midnightblue" stroke="midnightblue" points="137.591,-33.843 127.257,-36.1831 136.795,-40.7976 137.591,-33.843"/>
</g>
<!-- Node3 -->
<g id="node3" class="node"><title>Node3</title>
<g id="a_node3"><a xlink:href="db/da9/classpetibm_1_1misc_1_1_probe_volume.html" target="_top" xlink:title="Probe class to monitor a volume region of the domain. ">
<polygon fill="white" stroke="black" points="163,-0.5 163,-19.5 300,-19.5 300,-0.5 163,-0.5"/>
<text text-anchor="middle" x="231.5" y="-7.5" font-family="Helvetica,sans-Serif" font-size="10.00">petibm::misc::ProbeVolume</text>
</a>
</g>
</g>
<!-- Node1&#45;&gt;Node3 -->
<g id="edge2" class="edge"><title>Node1&#45;&gt;Node3</title>
<path fill="none" stroke="midnightblue" d="M137.208,-20.678C145.762,-19.6989 154.463,-18.703 162.942,-17.7325"/>
<polygon fill="midnightblue" stroke="midnightblue" points="136.795,-17.2024 127.257,-21.8169 137.591,-24.157 136.795,-17.2024"/>
</g>
</g>
</svg>
