<?xml version="1.0" encoding="UTF-8" standalone="no"?>
<!DOCTYPE svg PUBLIC "-//W3C//DTD SVG 1.1//EN"
 "http://www.w3.org/Graphics/SVG/1.1/DTD/svg11.dtd">
<!-- Generated by graphviz version 2.40.1 (20161225.0304)
 -->
<!-- Title: Graphical Class Hierarchy Pages: 1 -->
<svg width="264pt" height="64pt"
 viewBox="0.00 0.00 264.42 64.00" xmlns="http://www.w3.org/2000/svg" xmlns:xlink="http://www.w3.org/1999/xlink">
<g id="graph0" class="graph" transform="scale(1 1) rotate(0) translate(4 60)">
<title>Graphical Class Hierarchy</title>
<polygon fill="#ffffff" stroke="transparent" points="-4,4 -4,-60 260.418,-60 260.418,4 -4,4"/>
<!-- Node0 -->
<g id="node1" class="node">
<title>Node0</title>
<g id="a_node1"><a xlink:href="d4/de8/class_navier_stokes_solver.html" target="_top" xlink:title="Solve the incompressible Navier&#45;Stokes equations with a projection method (Perot 1993). ">
<polygon fill="#ffffff" stroke="#000000" points="0,-18.5 0,-36.5 103.8125,-36.5 103.8125,-18.5 0,-18.5"/>
<text text-anchor="middle" x="51.9063" y="-24.5" font-family="Helvetica,sans-Serif" font-size="10.00" fill="#000000">NavierStokesSolver</text>
</a>
</g>
</g>
<!-- Node1 -->
<g id="node2" class="node">
<title>Node1</title>
<g id="a_node2"><a xlink:href="d4/d1d/class_decoupled_i_b_p_m_solver.html" target="_top" xlink:title="Immersed&#45;boundary method proposed by Li et. al. (2016). ">
<polygon fill="#ffffff" stroke="#000000" points="139.8125,-37.5 139.8125,-55.5 256.418,-55.5 256.418,-37.5 139.8125,-37.5"/>
<text text-anchor="middle" x="198.1152" y="-43.5" font-family="Helvetica,sans-Serif" font-size="10.00" fill="#000000">DecoupledIBPMSolver</text>
</a>
</g>
</g>
<!-- Node0&#45;&gt;Node1 -->
<g id="edge1" class="edge">
<title>Node0&#45;&gt;Node1</title>
<path fill="none" stroke="#006400" d="M113.7852,-35.5412C122.3421,-36.6532 131.1091,-37.7925 139.6023,-38.8962"/>
<polygon fill="#006400" stroke="#006400" points="114.2334,-32.0701 103.8657,-34.2522 113.3313,-39.0118 114.2334,-32.0701"/>
</g>
<!-- Node2 -->
<g id="node3" class="node">
<title>Node2</title>
<g id="a_node3"><a xlink:href="d4/d0c/class_taira_colonius_solver.html" target="_top" xlink:title="Immersed&#45;boundary method proposed by Taira and Colonius (2007). ">
<polygon fill="#ffffff" stroke="#000000" points="145.6499,-.5 145.6499,-18.5 250.5806,-18.5 250.5806,-.5 145.6499,-.5"/>
<text text-anchor="middle" x="198.1152" y="-6.5" font-family="Helvetica,sans-Serif" font-size="10.00" fill="#000000">TairaColoniusSolver</text>
</a>
</g>
</g>
<!-- Node0&#45;&gt;Node2 -->
<g id="edge2" class="edge">
<title>Node0&#45;&gt;Node2</title>
<path fill="none" stroke="#006400" d="M113.801,-19.88C124.2949,-18.5881 135.1045,-17.2573 145.3369,-15.9976"/>
<polygon fill="#006400" stroke="#006400" points="113.3631,-16.4074 103.8657,-21.1032 114.2185,-23.355 113.3631,-16.4074"/>
</g>
</g>
</svg>
