<?xml version="1.0" encoding="UTF-8" standalone="no"?>
<!DOCTYPE svg PUBLIC "-//W3C//DTD SVG 1.1//EN"
 "http://www.w3.org/Graphics/SVG/1.1/DTD/svg11.dtd">
<!-- Generated by graphviz version 2.38.0 (20140413.2041)
 -->
<!-- Title: Graphical Class Hierarchy Pages: 1 -->
<svg width="416pt" height="66pt"
 viewBox="0.00 0.00 416.00 66.00" xmlns="http://www.w3.org/2000/svg" xmlns:xlink="http://www.w3.org/1999/xlink">
<g id="graph0" class="graph" transform="scale(1 1) rotate(0) translate(4 62)">
<title>Graphical Class Hierarchy</title>
<polygon fill="white" stroke="none" points="-4,4 -4,-62 412,-62 412,4 -4,4"/>
<!-- Node1 -->
<g id="node1" class="node"><title>Node1</title>
<g id="a_node1"><a xlink:href="d4/de8/class_navier_stokes_solver.html" target="_top" xlink:title="Solve the incompressible Navier&#45;Stokes equations with a projection method (Perot 1993). ">
<polygon fill="white" stroke="black" points="0,-19.5 0,-38.5 104,-38.5 104,-19.5 0,-19.5"/>
<text text-anchor="middle" x="52" y="-26.5" font-family="Helvetica,sans-Serif" font-size="10.00">NavierStokesSolver</text>
</a>
</g>
</g>
<!-- Node2 -->
<g id="node2" class="node"><title>Node2</title>
<g id="a_node2"><a xlink:href="d4/d1d/class_decoupled_i_b_p_m_solver.html" target="_top" xlink:title="Immersed&#45;boundary method proposed by Li et. al. (2016). ">
<polygon fill="white" stroke="black" points="140,-38.5 140,-57.5 256,-57.5 256,-38.5 140,-38.5"/>
<text text-anchor="middle" x="198" y="-45.5" font-family="Helvetica,sans-Serif" font-size="10.00">DecoupledIBPMSolver</text>
</a>
</g>
</g>
<!-- Node1&#45;&gt;Node2 -->
<g id="edge1" class="edge"><title>Node1&#45;&gt;Node2</title>
<path fill="none" stroke="darkgreen" d="M114.291,-37.087C122.692,-38.1954 131.291,-39.3301 139.619,-40.4288"/>
<polygon fill="darkgreen" stroke="darkgreen" points="114.546,-33.5905 104.174,-35.7522 113.631,-40.5303 114.546,-33.5905"/>
</g>
<!-- Node4 -->
<g id="node4" class="node"><title>Node4</title>
<g id="a_node4"><a xlink:href="d2/dec/class_i_b_p_m_solver.html" target="_top" xlink:title="Immersed&#45;boundary method proposed by Taira and Colonius (2007). ">
<polygon fill="white" stroke="black" points="163.5,-0.5 163.5,-19.5 232.5,-19.5 232.5,-0.5 163.5,-0.5"/>
<text text-anchor="middle" x="198" y="-7.5" font-family="Helvetica,sans-Serif" font-size="10.00">IBPMSolver</text>
</a>
</g>
</g>
<!-- Node1&#45;&gt;Node4 -->
<g id="edge3" class="edge"><title>Node1&#45;&gt;Node4</title>
<path fill="none" stroke="darkgreen" d="M114.428,-20.895C131.108,-18.694 148.563,-16.391 163.105,-14.4723"/>
<polygon fill="darkgreen" stroke="darkgreen" points="113.631,-17.4697 104.174,-22.2478 114.546,-24.4095 113.631,-17.4697"/>
</g>
<!-- Node3 -->
<g id="node3" class="node"><title>Node3</title>
<g id="a_node3"><a xlink:href="dc/dbc/class_rigid_kinematics_solver.html" target="_top" xlink:title="Helper class to solve cases with moving rigid bodies using the decoupled IBPM. ">
<polygon fill="white" stroke="black" points="292,-38.5 292,-57.5 408,-57.5 408,-38.5 292,-38.5"/>
<text text-anchor="middle" x="350" y="-45.5" font-family="Helvetica,sans-Serif" font-size="10.00">RigidKinematicsSolver</text>
</a>
</g>
</g>
<!-- Node2&#45;&gt;Node3 -->
<g id="edge2" class="edge"><title>Node2&#45;&gt;Node3</title>
<path fill="none" stroke="darkgreen" d="M266.311,-48C274.728,-48 283.277,-48 291.525,-48"/>
<polygon fill="darkgreen" stroke="darkgreen" points="266.137,-44.5001 256.136,-48 266.136,-51.5001 266.137,-44.5001"/>
</g>
</g>
</svg>
