<?xml version="1.0" encoding="UTF-8" standalone="no"?>
<!DOCTYPE svg PUBLIC "-//W3C//DTD SVG 1.1//EN"
 "http://www.w3.org/Graphics/SVG/1.1/DTD/svg11.dtd">
<!-- Generated by graphviz version 3.0.0 (0)
 -->
<!-- Title: Graphical Class Hierarchy Pages: 1 -->
<svg width="276pt" height="186pt"
 viewBox="0.00 0.00 276.00 186.00" xmlns="http://www.w3.org/2000/svg" xmlns:xlink="http://www.w3.org/1999/xlink">
<g id="graph0" class="graph" transform="scale(1 1) rotate(0) translate(4 182)">
<title>Graphical Class Hierarchy</title>
<polygon fill="white" stroke="transparent" points="-4,4 -4,-182 272,-182 272,4 -4,4"/>
<!-- Node0 -->
<g id="node1" class="node">
<title>Node0</title>
<g id="a_node1"><a xlink:href="d8/d39/classpetibm_1_1timeintegration_1_1_time_integration_base.html" target="_top" xlink:title="Base (abstract) class that stores information of temporal integration.">
<polygon fill="white" stroke="black" points="0,-73.5 0,-103.5 116,-103.5 116,-73.5 0,-73.5"/>
<text text-anchor="start" x="8" y="-91.5" font-family="Helvetica,sans-Serif" font-size="10.00">petibm::timeintegration</text>
<text text-anchor="middle" x="58" y="-80.5" font-family="Helvetica,sans-Serif" font-size="10.00">::TimeIntegrationBase</text>
</a>
</g>
</g>
<!-- Node1 -->
<g id="node2" class="node">
<title>Node1</title>
<g id="a_node2"><a xlink:href="d7/db6/classpetibm_1_1timeintegration_1_1_adams___bashforth__2.html" target="_top" xlink:title="An implementation of TimeIntegrationBase for 2nd order Adams&#45;Bashforth.">
<polygon fill="white" stroke="black" points="152,-147.5 152,-177.5 268,-177.5 268,-147.5 152,-147.5"/>
<text text-anchor="start" x="160" y="-165.5" font-family="Helvetica,sans-Serif" font-size="10.00">petibm::timeintegration</text>
<text text-anchor="middle" x="210" y="-154.5" font-family="Helvetica,sans-Serif" font-size="10.00">::Adams_Bashforth_2</text>
</a>
</g>
</g>
<!-- Node0&#45;&gt;Node1 -->
<g id="edge1" class="edge">
<title>Node0&#45;&gt;Node1</title>
<path fill="none" stroke="midnightblue" d="M94.61,-108.67C111.76,-118.12 132.74,-129.29 152,-138.5 158.3,-141.51 165.07,-144.54 171.67,-147.38"/>
<polygon fill="midnightblue" stroke="midnightblue" points="95.96,-105.41 85.51,-103.62 92.56,-111.53 95.96,-105.41"/>
</g>
<!-- Node2 -->
<g id="node3" class="node">
<title>Node2</title>
<g id="a_node3"><a xlink:href="d4/d5f/classpetibm_1_1timeintegration_1_1_crank___nicolson.html" target="_top" xlink:title="An implementation of TimeIntegrationBase for 2nd order Crank&#45;Nicolson.">
<polygon fill="white" stroke="black" points="152,-98.5 152,-128.5 268,-128.5 268,-98.5 152,-98.5"/>
<text text-anchor="start" x="160" y="-116.5" font-family="Helvetica,sans-Serif" font-size="10.00">petibm::timeintegration</text>
<text text-anchor="middle" x="210" y="-105.5" font-family="Helvetica,sans-Serif" font-size="10.00">::Crank_Nicolson</text>
</a>
</g>
</g>
<!-- Node0&#45;&gt;Node2 -->
<g id="edge2" class="edge">
<title>Node0&#45;&gt;Node2</title>
<path fill="none" stroke="midnightblue" d="M126.03,-99.67C134.54,-101.09 143.19,-102.53 151.53,-103.92"/>
<polygon fill="midnightblue" stroke="midnightblue" points="126.58,-96.21 116.14,-98.02 125.42,-103.12 126.58,-96.21"/>
</g>
<!-- Node3 -->
<g id="node4" class="node">
<title>Node3</title>
<g id="a_node4"><a xlink:href="d7/d33/classpetibm_1_1timeintegration_1_1_euler___explicit.html" target="_top" xlink:title="An implementation of TimeIntegrationBase for 1st order explicit Euler.">
<polygon fill="white" stroke="black" points="152,-49.5 152,-79.5 268,-79.5 268,-49.5 152,-49.5"/>
<text text-anchor="start" x="160" y="-67.5" font-family="Helvetica,sans-Serif" font-size="10.00">petibm::timeintegration</text>
<text text-anchor="middle" x="210" y="-56.5" font-family="Helvetica,sans-Serif" font-size="10.00">::Euler_Explicit</text>
</a>
</g>
</g>
<!-- Node0&#45;&gt;Node3 -->
<g id="edge3" class="edge">
<title>Node0&#45;&gt;Node3</title>
<path fill="none" stroke="midnightblue" d="M126.03,-77.77C134.54,-76.41 143.19,-75.03 151.53,-73.7"/>
<polygon fill="midnightblue" stroke="midnightblue" points="125.46,-74.32 116.14,-79.36 126.56,-81.23 125.46,-74.32"/>
</g>
<!-- Node4 -->
<g id="node5" class="node">
<title>Node4</title>
<g id="a_node5"><a xlink:href="da/d48/classpetibm_1_1timeintegration_1_1_euler___implicit.html" target="_top" xlink:title="An implementation of TimeIntegrationBase for 1st order implicit Euler.">
<polygon fill="white" stroke="black" points="152,-0.5 152,-30.5 268,-30.5 268,-0.5 152,-0.5"/>
<text text-anchor="start" x="160" y="-18.5" font-family="Helvetica,sans-Serif" font-size="10.00">petibm::timeintegration</text>
<text text-anchor="middle" x="210" y="-7.5" font-family="Helvetica,sans-Serif" font-size="10.00">::Euler_Implicit</text>
</a>
</g>
</g>
<!-- Node0&#45;&gt;Node4 -->
<g id="edge4" class="edge">
<title>Node0&#45;&gt;Node4</title>
<path fill="none" stroke="midnightblue" d="M96.26,-68.59C113.15,-59.74 133.46,-49.34 152,-40.5 158.93,-37.2 166.39,-33.8 173.57,-30.62"/>
<polygon fill="midnightblue" stroke="midnightblue" points="94.48,-65.57 87.26,-73.33 97.74,-71.76 94.48,-65.57"/>
</g>
</g>
</svg>
