<?xml version="1.0" encoding="UTF-8" standalone="no"?>
<!DOCTYPE svg PUBLIC "-//W3C//DTD SVG 1.1//EN"
 "http://www.w3.org/Graphics/SVG/1.1/DTD/svg11.dtd">
<!-- Generated by graphviz version 3.0.0 (0)
 -->
<!-- Title: Graphical Class Hierarchy Pages: 1 -->
<svg width="416pt" height="66pt"
 viewBox="0.00 0.00 416.00 66.00" xmlns="http://www.w3.org/2000/svg" xmlns:xlink="http://www.w3.org/1999/xlink">
<g id="graph0" class="graph" transform="scale(1 1) rotate(0) translate(4 62)">
<title>Graphical Class Hierarchy</title>
<polygon fill="white" stroke="transparent" points="-4,4 -4,-62 412,-62 412,4 -4,4"/>
<!-- Node0 -->
<g id="node1" class="node">
<title>Node0</title>
<g id="a_node1"><a xlink:href="d4/de8/class_navier_stokes_solver.html" target="_top" xlink:title="Solve the incompressible Navier&#45;Stokes equations with a projection method (Perot 1993).">
<polygon fill="white" stroke="black" points="0,-19.5 0,-38.5 104,-38.5 104,-19.5 0,-19.5"/>
<text text-anchor="middle" x="52" y="-26.5" font-family="Helvetica,sans-Serif" font-size="10.00">NavierStokesSolver</text>
</a>
</g>
</g>
<!-- Node1 -->
<g id="node2" class="node">
<title>Node1</title>
<g id="a_node2"><a xlink:href="d4/d1d/class_decoupled_i_b_p_m_solver.html" target="_top" xlink:title="Immersed&#45;boundary method proposed by Li et. al. (2016).">
<polygon fill="white" stroke="black" points="140,-38.5 140,-57.5 256,-57.5 256,-38.5 140,-38.5"/>
<text text-anchor="middle" x="198" y="-45.5" font-family="Helvetica,sans-Serif" font-size="10.00">DecoupledIBPMSolver</text>
</a>
</g>
</g>
<!-- Node0&#45;&gt;Node1 -->
<g id="edge1" class="edge">
<title>Node0&#45;&gt;Node1</title>
<path fill="none" stroke="darkgreen" d="M114.29,-37.09C122.69,-38.2 131.29,-39.33 139.62,-40.43"/>
<polygon fill="darkgreen" stroke="darkgreen" points="114.55,-33.59 104.17,-35.75 113.63,-40.53 114.55,-33.59"/>
</g>
<!-- Node3 -->
<g id="node4" class="node">
<title>Node3</title>
<g id="a_node4"><a xlink:href="d2/dec/class_i_b_p_m_solver.html" target="_top" xlink:title="Immersed&#45;boundary method proposed by Taira and Colonius (2007).">
<polygon fill="white" stroke="black" points="163.5,-0.5 163.5,-19.5 232.5,-19.5 232.5,-0.5 163.5,-0.5"/>
<text text-anchor="middle" x="198" y="-7.5" font-family="Helvetica,sans-Serif" font-size="10.00">IBPMSolver</text>
</a>
</g>
</g>
<!-- Node0&#45;&gt;Node3 -->
<g id="edge3" class="edge">
<title>Node0&#45;&gt;Node3</title>
<path fill="none" stroke="darkgreen" d="M114.43,-20.89C131.11,-18.69 148.56,-16.39 163.1,-14.47"/>
<polygon fill="darkgreen" stroke="darkgreen" points="113.63,-17.47 104.17,-22.25 114.55,-24.41 113.63,-17.47"/>
</g>
<!-- Node2 -->
<g id="node3" class="node">
<title>Node2</title>
<g id="a_node3"><a xlink:href="dc/dbc/class_rigid_kinematics_solver.html" target="_top" xlink:title="Helper class to solve cases with moving rigid bodies using the decoupled IBPM.">
<polygon fill="white" stroke="black" points="292,-38.5 292,-57.5 408,-57.5 408,-38.5 292,-38.5"/>
<text text-anchor="middle" x="350" y="-45.5" font-family="Helvetica,sans-Serif" font-size="10.00">RigidKinematicsSolver</text>
</a>
</g>
</g>
<!-- Node1&#45;&gt;Node2 -->
<g id="edge2" class="edge">
<title>Node1&#45;&gt;Node2</title>
<path fill="none" stroke="darkgreen" d="M266.31,-48C274.73,-48 283.28,-48 291.53,-48"/>
<polygon fill="darkgreen" stroke="darkgreen" points="266.14,-44.5 256.14,-48 266.14,-51.5 266.14,-44.5"/>
</g>
</g>
</svg>
