<?xml version="1.0" encoding="UTF-8" standalone="no"?>
<!DOCTYPE svg PUBLIC "-//W3C//DTD SVG 1.1//EN"
 "http://www.w3.org/Graphics/SVG/1.1/DTD/svg11.dtd">
<!-- Generated by graphviz version 2.40.1 (20161225.0304)
 -->
<!-- Title: Graphical Class Hierarchy Pages: 1 -->
<svg width="232pt" height="84pt"
 viewBox="0.00 0.00 231.62 84.00" xmlns="http://www.w3.org/2000/svg" xmlns:xlink="http://www.w3.org/1999/xlink">
<g id="graph0" class="graph" transform="scale(1 1) rotate(0) translate(4 80)">
<title>Graphical Class Hierarchy</title>
<polygon fill="#ffffff" stroke="transparent" points="-4,4 -4,-80 227.6152,-80 227.6152,4 -4,4"/>
<!-- Node0 -->
<g id="node1" class="node">
<title>Node0</title>
<g id="a_node1"><a xlink:href="de/d3e/classpetibm_1_1linsolver_1_1_lin_solver_base.html" target="_top" xlink:title="The abstract (base) class for different iterative solvers. ">
<polygon fill="#ffffff" stroke="#000000" points="0,-23.5 0,-51.5 93.8076,-51.5 93.8076,-23.5 0,-23.5"/>
<text text-anchor="start" x="8" y="-39.5" font-family="Helvetica,sans-Serif" font-size="10.00" fill="#000000">petibm::linsolver::</text>
<text text-anchor="middle" x="46.9038" y="-29.5" font-family="Helvetica,sans-Serif" font-size="10.00" fill="#000000">LinSolverBase</text>
</a>
</g>
</g>
<!-- Node1 -->
<g id="node2" class="node">
<title>Node1</title>
<g id="a_node2"><a xlink:href="df/d3a/classpetibm_1_1linsolver_1_1_lin_solver_amg_x.html" target="_top" xlink:title="Iterative solver using wrapper of AmgX. ">
<polygon fill="#ffffff" stroke="#000000" points="129.8076,-47.5 129.8076,-75.5 223.6152,-75.5 223.6152,-47.5 129.8076,-47.5"/>
<text text-anchor="start" x="137.8076" y="-63.5" font-family="Helvetica,sans-Serif" font-size="10.00" fill="#000000">petibm::linsolver::</text>
<text text-anchor="middle" x="176.7114" y="-53.5" font-family="Helvetica,sans-Serif" font-size="10.00" fill="#000000">LinSolverAmgX</text>
</a>
</g>
</g>
<!-- Node0&#45;&gt;Node1 -->
<g id="edge1" class="edge">
<title>Node0&#45;&gt;Node1</title>
<path fill="none" stroke="#191970" d="M104.0777,-48.0708C112.6503,-49.6558 121.4054,-51.2745 129.7332,-52.8142"/>
<polygon fill="#191970" stroke="#191970" points="104.6042,-44.6089 94.1345,-46.2324 103.3315,-51.4923 104.6042,-44.6089"/>
</g>
<!-- Node2 -->
<g id="node3" class="node">
<title>Node2</title>
<g id="a_node3"><a xlink:href="d8/dfe/classpetibm_1_1linsolver_1_1_lin_solver_k_s_p.html" target="_top" xlink:title="Iterative solver using PETSc KSP. ">
<polygon fill="#ffffff" stroke="#000000" points="129.8076,-.5 129.8076,-28.5 223.6152,-28.5 223.6152,-.5 129.8076,-.5"/>
<text text-anchor="start" x="137.8076" y="-16.5" font-family="Helvetica,sans-Serif" font-size="10.00" fill="#000000">petibm::linsolver::</text>
<text text-anchor="middle" x="176.7114" y="-6.5" font-family="Helvetica,sans-Serif" font-size="10.00" fill="#000000">LinSolverKSP</text>
</a>
</g>
</g>
<!-- Node0&#45;&gt;Node2 -->
<g id="edge2" class="edge">
<title>Node0&#45;&gt;Node2</title>
<path fill="none" stroke="#191970" d="M104.0777,-27.3696C112.6503,-25.8507 121.4054,-24.2994 129.7332,-22.8238"/>
<polygon fill="#191970" stroke="#191970" points="103.3705,-23.9403 94.1345,-29.1314 104.5918,-30.833 103.3705,-23.9403"/>
</g>
</g>
</svg>
