<?xml version="1.0" encoding="UTF-8" standalone="no"?>
<!DOCTYPE svg PUBLIC "-//W3C//DTD SVG 1.1//EN"
 "http://www.w3.org/Graphics/SVG/1.1/DTD/svg11.dtd">
<!-- Generated by graphviz version 2.40.1 (20161225.0304)
 -->
<!-- Title: Graphical Class Hierarchy Pages: 1 -->
<svg width="297pt" height="178pt"
 viewBox="0.00 0.00 297.25 178.00" xmlns="http://www.w3.org/2000/svg" xmlns:xlink="http://www.w3.org/1999/xlink">
<g id="graph0" class="graph" transform="scale(1 1) rotate(0) translate(4 174)">
<title>Graphical Class Hierarchy</title>
<polygon fill="#ffffff" stroke="transparent" points="-4,4 -4,-174 293.25,-174 293.25,4 -4,4"/>
<!-- Node0 -->
<g id="node1" class="node">
<title>Node0</title>
<g id="a_node1"><a xlink:href="d6/d69/classpetibm_1_1boundary_1_1_single_boundary_base.html" target="_top" xlink:title="Base (abstract) class for ghost points &amp; BC on a single boundary. ">
<polygon fill="#ffffff" stroke="#000000" points="0,-70.5 0,-98.5 126.625,-98.5 126.625,-70.5 0,-70.5"/>
<text text-anchor="start" x="8" y="-86.5" font-family="Helvetica,sans-Serif" font-size="10.00" fill="#000000">petibm::boundary::Single</text>
<text text-anchor="middle" x="63.3125" y="-76.5" font-family="Helvetica,sans-Serif" font-size="10.00" fill="#000000">BoundaryBase</text>
</a>
</g>
</g>
<!-- Node1 -->
<g id="node2" class="node">
<title>Node1</title>
<g id="a_node2"><a xlink:href="db/dbb/classpetibm_1_1boundary_1_1_single_boundary_convective.html" target="_top" xlink:title="An implementation of SingleBoundaryBase for convective BC. ">
<polygon fill="#ffffff" stroke="#000000" points="162.625,-141.5 162.625,-169.5 289.25,-169.5 289.25,-141.5 162.625,-141.5"/>
<text text-anchor="start" x="170.625" y="-157.5" font-family="Helvetica,sans-Serif" font-size="10.00" fill="#000000">petibm::boundary::Single</text>
<text text-anchor="middle" x="225.9375" y="-147.5" font-family="Helvetica,sans-Serif" font-size="10.00" fill="#000000">BoundaryConvective</text>
</a>
</g>
</g>
<!-- Node0&#45;&gt;Node1 -->
<g id="edge1" class="edge">
<title>Node0&#45;&gt;Node1</title>
<path fill="none" stroke="#191970" d="M99.4034,-103.0383C118.0686,-112.3449 141.3435,-123.519 162.625,-132.5 169.8439,-135.5464 177.6208,-138.5737 185.1692,-141.3831"/>
<polygon fill="#191970" stroke="#191970" points="100.8767,-99.8616 90.3696,-98.5007 97.7347,-106.1169 100.8767,-99.8616"/>
</g>
<!-- Node2 -->
<g id="node3" class="node">
<title>Node2</title>
<g id="a_node3"><a xlink:href="d6/d8f/classpetibm_1_1boundary_1_1_single_boundary_dirichlet.html" target="_top" xlink:title="An implementation of SingleBoundaryBase for Dirichlet BC. ">
<polygon fill="#ffffff" stroke="#000000" points="162.625,-94.5 162.625,-122.5 289.25,-122.5 289.25,-94.5 162.625,-94.5"/>
<text text-anchor="start" x="170.625" y="-110.5" font-family="Helvetica,sans-Serif" font-size="10.00" fill="#000000">petibm::boundary::Single</text>
<text text-anchor="middle" x="225.9375" y="-100.5" font-family="Helvetica,sans-Serif" font-size="10.00" fill="#000000">BoundaryDirichlet</text>
</a>
</g>
</g>
<!-- Node0&#45;&gt;Node2 -->
<g id="edge2" class="edge">
<title>Node0&#45;&gt;Node2</title>
<path fill="none" stroke="#191970" d="M136.6882,-95.3287C145.3035,-96.6001 154.0387,-97.8893 162.5021,-99.1383"/>
<polygon fill="#191970" stroke="#191970" points="137.0571,-91.8453 126.6532,-93.8477 136.0351,-98.7703 137.0571,-91.8453"/>
</g>
<!-- Node3 -->
<g id="node4" class="node">
<title>Node3</title>
<g id="a_node4"><a xlink:href="d9/d94/classpetibm_1_1boundary_1_1_single_boundary_neumann.html" target="_top" xlink:title="An implementation of SingleBoundaryBase for Neumann BC. ">
<polygon fill="#ffffff" stroke="#000000" points="162.625,-47.5 162.625,-75.5 289.25,-75.5 289.25,-47.5 162.625,-47.5"/>
<text text-anchor="start" x="170.625" y="-63.5" font-family="Helvetica,sans-Serif" font-size="10.00" fill="#000000">petibm::boundary::Single</text>
<text text-anchor="middle" x="225.9375" y="-53.5" font-family="Helvetica,sans-Serif" font-size="10.00" fill="#000000">BoundaryNeumann</text>
</a>
</g>
</g>
<!-- Node0&#45;&gt;Node3 -->
<g id="edge3" class="edge">
<title>Node0&#45;&gt;Node3</title>
<path fill="none" stroke="#191970" d="M136.6882,-74.1225C145.3035,-72.904 154.0387,-71.6686 162.5021,-70.4716"/>
<polygon fill="#191970" stroke="#191970" points="136.0645,-70.6758 126.6532,-75.5417 137.0449,-77.6068 136.0645,-70.6758"/>
</g>
<!-- Node4 -->
<g id="node5" class="node">
<title>Node4</title>
<g id="a_node5"><a xlink:href="de/d58/classpetibm_1_1boundary_1_1_single_boundary_periodic.html" target="_top" xlink:title="An implementation of SingleBoundaryBase for periodic BC. ">
<polygon fill="#ffffff" stroke="#000000" points="162.625,-.5 162.625,-28.5 289.25,-28.5 289.25,-.5 162.625,-.5"/>
<text text-anchor="start" x="170.625" y="-16.5" font-family="Helvetica,sans-Serif" font-size="10.00" fill="#000000">petibm::boundary::Single</text>
<text text-anchor="middle" x="225.9375" y="-6.5" font-family="Helvetica,sans-Serif" font-size="10.00" fill="#000000">BoundaryPeriodic</text>
</a>
</g>
</g>
<!-- Node0&#45;&gt;Node4 -->
<g id="edge4" class="edge">
<title>Node0&#45;&gt;Node4</title>
<path fill="none" stroke="#191970" d="M101.3871,-66.0892C119.7553,-57.407 142.1902,-47.0927 162.625,-38.5 170.6436,-35.1282 179.3167,-31.7004 187.5958,-28.5306"/>
<polygon fill="#191970" stroke="#191970" points="99.714,-63.0091 92.1845,-70.4629 102.7188,-69.3314 99.714,-63.0091"/>
</g>
</g>
</svg>
