<?xml version="1.0" encoding="UTF-8" standalone="no"?>
<!DOCTYPE svg PUBLIC "-//W3C//DTD SVG 1.1//EN"
 "http://www.w3.org/Graphics/SVG/1.1/DTD/svg11.dtd">
<!-- Generated by graphviz version 3.0.0 (0)
 -->
<!-- Title: Graphical Class Hierarchy Pages: 1 -->
<svg width="311pt" height="66pt"
 viewBox="0.00 0.00 311.00 66.00" xmlns="http://www.w3.org/2000/svg" xmlns:xlink="http://www.w3.org/1999/xlink">
<g id="graph0" class="graph" transform="scale(1 1) rotate(0) translate(4 62)">
<title>Graphical Class Hierarchy</title>
<polygon fill="white" stroke="transparent" points="-4,4 -4,-62 307,-62 307,4 -4,4"/>
<!-- Node0 -->
<g id="node1" class="node">
<title>Node0</title>
<g id="a_node1"><a xlink:href="dc/d7b/classpetibm_1_1misc_1_1_lin_interp_base.html" target="_top" xlink:title="Abstract Base Class of a linear interpolation object.">
<polygon fill="white" stroke="black" points="0,-19.5 0,-38.5 139,-38.5 139,-19.5 0,-19.5"/>
<text text-anchor="middle" x="69.5" y="-26.5" font-family="Helvetica,sans-Serif" font-size="10.00">petibm::misc::LinInterpBase</text>
</a>
</g>
</g>
<!-- Node1 -->
<g id="node2" class="node">
<title>Node1</title>
<g id="a_node2"><a xlink:href="de/d82/classpetibm_1_1misc_1_1_bi_lin_interp.html" target="_top" xlink:title="Class to perform a bilinear interpolation at a point in a 3D domain.">
<polygon fill="white" stroke="black" points="176.5,-38.5 176.5,-57.5 301.5,-57.5 301.5,-38.5 176.5,-38.5"/>
<text text-anchor="middle" x="239" y="-45.5" font-family="Helvetica,sans-Serif" font-size="10.00">petibm::misc::BiLinInterp</text>
</a>
</g>
</g>
<!-- Node0&#45;&gt;Node1 -->
<g id="edge1" class="edge">
<title>Node0&#45;&gt;Node1</title>
<path fill="none" stroke="midnightblue" d="M149.05,-37.91C158.26,-38.95 167.55,-40.01 176.48,-41.02"/>
<polygon fill="midnightblue" stroke="midnightblue" points="149.44,-34.43 139.11,-36.78 148.65,-41.39 149.44,-34.43"/>
</g>
<!-- Node2 -->
<g id="node3" class="node">
<title>Node2</title>
<g id="a_node3"><a xlink:href="d4/da3/classpetibm_1_1misc_1_1_tri_lin_interp.html" target="_top" xlink:title="Class to perform a trilinear interpolation at a point in a 3D domain.">
<polygon fill="white" stroke="black" points="175,-0.5 175,-19.5 303,-19.5 303,-0.5 175,-0.5"/>
<text text-anchor="middle" x="239" y="-7.5" font-family="Helvetica,sans-Serif" font-size="10.00">petibm::misc::TriLinInterp</text>
</a>
</g>
</g>
<!-- Node0&#45;&gt;Node2 -->
<g id="edge2" class="edge">
<title>Node0&#45;&gt;Node2</title>
<path fill="none" stroke="midnightblue" d="M149.18,-20.08C157.79,-19.1 166.49,-18.11 174.88,-17.16"/>
<polygon fill="midnightblue" stroke="midnightblue" points="148.65,-16.61 139.11,-21.22 149.44,-23.57 148.65,-16.61"/>
</g>
</g>
</svg>
