<?xml version="1.0" encoding="UTF-8" standalone="no"?>
<!DOCTYPE svg PUBLIC "-//W3C//DTD SVG 1.1//EN"
 "http://www.w3.org/Graphics/SVG/1.1/DTD/svg11.dtd">
<!-- Generated by graphviz version 2.38.0 (20140413.2041)
 -->
<!-- Title: Graphical Class Hierarchy Pages: 1 -->
<svg width="276pt" height="186pt"
 viewBox="0.00 0.00 276.00 186.00" xmlns="http://www.w3.org/2000/svg" xmlns:xlink="http://www.w3.org/1999/xlink">
<g id="graph0" class="graph" transform="scale(1 1) rotate(0) translate(4 182)">
<title>Graphical Class Hierarchy</title>
<polygon fill="white" stroke="none" points="-4,4 -4,-182 272,-182 272,4 -4,4"/>
<!-- Node1 -->
<g id="node1" class="node"><title>Node1</title>
<g id="a_node1"><a xlink:href="d8/d39/classpetibm_1_1timeintegration_1_1_time_integration_base.html" target="_top" xlink:title="Base (abstract) class that stores information of temporal integration. ">
<polygon fill="white" stroke="black" points="0,-73.5 0,-103.5 116,-103.5 116,-73.5 0,-73.5"/>
<text text-anchor="start" x="8" y="-91.5" font-family="Helvetica,sans-Serif" font-size="10.00">petibm::timeintegration</text>
<text text-anchor="middle" x="58" y="-80.5" font-family="Helvetica,sans-Serif" font-size="10.00">::TimeIntegrationBase</text>
</a>
</g>
</g>
<!-- Node2 -->
<g id="node2" class="node"><title>Node2</title>
<g id="a_node2"><a xlink:href="d7/db6/classpetibm_1_1timeintegration_1_1_adams___bashforth__2.html" target="_top" xlink:title="An implementation of TimeIntegrationBase for 2nd order Adams&#45;Bashforth. ">
<polygon fill="white" stroke="black" points="152,-147.5 152,-177.5 268,-177.5 268,-147.5 152,-147.5"/>
<text text-anchor="start" x="160" y="-165.5" font-family="Helvetica,sans-Serif" font-size="10.00">petibm::timeintegration</text>
<text text-anchor="middle" x="210" y="-154.5" font-family="Helvetica,sans-Serif" font-size="10.00">::Adams_Bashforth_2</text>
</a>
</g>
</g>
<!-- Node1&#45;&gt;Node2 -->
<g id="edge1" class="edge"><title>Node1&#45;&gt;Node2</title>
<path fill="none" stroke="midnightblue" d="M94.6132,-108.67C111.764,-118.119 132.743,-129.294 152,-138.5 158.297,-141.51 165.071,-144.539 171.673,-147.383"/>
<polygon fill="midnightblue" stroke="midnightblue" points="95.9566,-105.413 85.5143,-103.622 92.5605,-111.534 95.9566,-105.413"/>
</g>
<!-- Node3 -->
<g id="node3" class="node"><title>Node3</title>
<g id="a_node3"><a xlink:href="d4/d5f/classpetibm_1_1timeintegration_1_1_crank___nicolson.html" target="_top" xlink:title="An implementation of TimeIntegrationBase for 2nd order Crank&#45;Nicolson. ">
<polygon fill="white" stroke="black" points="152,-98.5 152,-128.5 268,-128.5 268,-98.5 152,-98.5"/>
<text text-anchor="start" x="160" y="-116.5" font-family="Helvetica,sans-Serif" font-size="10.00">petibm::timeintegration</text>
<text text-anchor="middle" x="210" y="-105.5" font-family="Helvetica,sans-Serif" font-size="10.00">::Crank_Nicolson</text>
</a>
</g>
</g>
<!-- Node1&#45;&gt;Node3 -->
<g id="edge2" class="edge"><title>Node1&#45;&gt;Node3</title>
<path fill="none" stroke="midnightblue" d="M126.033,-99.6722C134.54,-101.09 143.186,-102.531 151.525,-103.921"/>
<polygon fill="midnightblue" stroke="midnightblue" points="126.576,-96.2144 116.136,-98.0227 125.425,-103.119 126.576,-96.2144"/>
</g>
<!-- Node4 -->
<g id="node4" class="node"><title>Node4</title>
<g id="a_node4"><a xlink:href="d7/d33/classpetibm_1_1timeintegration_1_1_euler___explicit.html" target="_top" xlink:title="An implementation of TimeIntegrationBase for 1st order explicit Euler. ">
<polygon fill="white" stroke="black" points="152,-49.5 152,-79.5 268,-79.5 268,-49.5 152,-49.5"/>
<text text-anchor="start" x="160" y="-67.5" font-family="Helvetica,sans-Serif" font-size="10.00">petibm::timeintegration</text>
<text text-anchor="middle" x="210" y="-56.5" font-family="Helvetica,sans-Serif" font-size="10.00">::Euler_Explicit</text>
</a>
</g>
</g>
<!-- Node1&#45;&gt;Node4 -->
<g id="edge3" class="edge"><title>Node1&#45;&gt;Node4</title>
<path fill="none" stroke="midnightblue" d="M126.033,-77.7747C134.54,-76.4135 143.186,-75.0302 151.525,-73.6959"/>
<polygon fill="midnightblue" stroke="midnightblue" points="125.458,-74.3221 116.136,-79.3582 126.564,-81.2342 125.458,-74.3221"/>
</g>
<!-- Node5 -->
<g id="node5" class="node"><title>Node5</title>
<g id="a_node5"><a xlink:href="da/d48/classpetibm_1_1timeintegration_1_1_euler___implicit.html" target="_top" xlink:title="An implementation of TimeIntegrationBase for 1st order implicit Euler. ">
<polygon fill="white" stroke="black" points="152,-0.5 152,-30.5 268,-30.5 268,-0.5 152,-0.5"/>
<text text-anchor="start" x="160" y="-18.5" font-family="Helvetica,sans-Serif" font-size="10.00">petibm::timeintegration</text>
<text text-anchor="middle" x="210" y="-7.5" font-family="Helvetica,sans-Serif" font-size="10.00">::Euler_Implicit</text>
</a>
</g>
</g>
<!-- Node1&#45;&gt;Node5 -->
<g id="edge4" class="edge"><title>Node1&#45;&gt;Node5</title>
<path fill="none" stroke="midnightblue" d="M96.2601,-68.5866C113.153,-59.7354 133.457,-49.341 152,-40.5 158.925,-37.1982 166.394,-33.8048 173.571,-30.6247"/>
<polygon fill="midnightblue" stroke="midnightblue" points="94.4771,-65.5698 87.2591,-73.3254 97.7382,-71.7638 94.4771,-65.5698"/>
</g>
</g>
</svg>
