<?xml version="1.0" encoding="UTF-8" standalone="no"?>
<!DOCTYPE svg PUBLIC "-//W3C//DTD SVG 1.1//EN"
 "http://www.w3.org/Graphics/SVG/1.1/DTD/svg11.dtd">
<!-- Generated by graphviz version 2.40.1 (20161225.0304)
 -->
<!-- Title: petibm::timeintegration::Crank_Nicolson Pages: 1 -->
<svg width="125pt" height="102pt"
 viewBox="0.00 0.00 125.16 102.00" xmlns="http://www.w3.org/2000/svg" xmlns:xlink="http://www.w3.org/1999/xlink">
<g id="graph0" class="graph" transform="scale(1 1) rotate(0) translate(4 98)">
<title>petibm::timeintegration::Crank_Nicolson</title>
<polygon fill="#ffffff" stroke="transparent" points="-4,4 -4,-98 121.1621,-98 121.1621,4 -4,4"/>
<!-- Node0 -->
<g id="node1" class="node">
<title>Node0</title>
<polygon fill="#bfbfbf" stroke="#000000" points="0,-.5 0,-28.5 117.1621,-28.5 117.1621,-.5 0,-.5"/>
<text text-anchor="start" x="8" y="-16.5" font-family="Helvetica,sans-Serif" font-size="10.00" fill="#000000">petibm::timeintegration</text>
<text text-anchor="middle" x="58.5811" y="-6.5" font-family="Helvetica,sans-Serif" font-size="10.00" fill="#000000">::Crank_Nicolson</text>
</g>
<!-- Node1 -->
<g id="node2" class="node">
<title>Node1</title>
<g id="a_node2"><a xlink:href="../../d8/d39/classpetibm_1_1timeintegration_1_1_time_integration_base.html" target="_top" xlink:title="Base (abstract) class that stores information of temporal integration. ">
<polygon fill="#ffffff" stroke="#000000" points="0,-65.5 0,-93.5 117.1621,-93.5 117.1621,-65.5 0,-65.5"/>
<text text-anchor="start" x="8" y="-81.5" font-family="Helvetica,sans-Serif" font-size="10.00" fill="#000000">petibm::timeintegration</text>
<text text-anchor="middle" x="58.5811" y="-71.5" font-family="Helvetica,sans-Serif" font-size="10.00" fill="#000000">::TimeIntegrationBase</text>
</a>
</g>
</g>
<!-- Node1&#45;&gt;Node0 -->
<g id="edge1" class="edge">
<title>Node1&#45;&gt;Node0</title>
<path fill="none" stroke="#191970" d="M58.5811,-55.1081C58.5811,-46.1539 58.5811,-36.3227 58.5811,-28.5765"/>
<polygon fill="#191970" stroke="#191970" points="55.0812,-55.3959 58.5811,-65.396 62.0812,-55.396 55.0812,-55.3959"/>
</g>
</g>
</svg>
