<?xml version="1.0" encoding="UTF-8" standalone="no"?>
<!DOCTYPE svg PUBLIC "-//W3C//DTD SVG 1.1//EN"
 "http://www.w3.org/Graphics/SVG/1.1/DTD/svg11.dtd">
<!-- Generated by graphviz version 3.0.0 (0)
 -->
<!-- Title: PetIBM building blocks Pages: 1 -->
<svg width="295pt" height="347pt"
 viewBox="0.00 0.00 295.00 346.50" xmlns="http://www.w3.org/2000/svg" xmlns:xlink="http://www.w3.org/1999/xlink">
<g id="graph0" class="graph" transform="scale(1 1) rotate(0) translate(4 342.5)">
<title>PetIBM building blocks</title>
<polygon fill="white" stroke="transparent" points="-4,4 -4,-342.5 291,-342.5 291,4 -4,4"/>
<!-- Node2 -->
<g id="node1" class="node">
<title>Node2</title>
<g id="a_node1"><a xlink:href="../../d0/d1a/group__body_module.html" target="_top" xlink:title="Objects related to immersed&#45;boundary bodies.">
<polygon fill="white" stroke="black" points="287,-338.5 153,-338.5 153,-319.5 287,-319.5 287,-338.5"/>
<text text-anchor="middle" x="220" y="-326.5" font-family="Helvetica,sans-Serif" font-size="10.00">Immersed&#45;boundary bodies</text>
</a>
</g>
</g>
<!-- Node3 -->
<g id="node2" class="node">
<title>Node3</title>
<g id="a_node2"><a xlink:href="../../d1/d84/group__boundary_module.html" target="_top" xlink:title="Objects handling boundary conditions with ghost point schemes.">
<polygon fill="white" stroke="black" points="283.5,-301 156.5,-301 156.5,-271 283.5,-271 283.5,-301"/>
<text text-anchor="start" x="164.5" y="-289" font-family="Helvetica,sans-Serif" font-size="10.00">Boundaries and boundary</text>
<text text-anchor="middle" x="220" y="-278" font-family="Helvetica,sans-Serif" font-size="10.00"> conditions</text>
</a>
</g>
</g>
<!-- Node4 -->
<g id="node3" class="node">
<title>Node4</title>
<g id="a_node3"><a xlink:href="../../d8/df7/group__linsolver.html" target="_top" xlink:title="Interfaces to different libraries of linear solvers.">
<polygon fill="white" stroke="black" points="258.5,-252.5 181.5,-252.5 181.5,-233.5 258.5,-233.5 258.5,-252.5"/>
<text text-anchor="middle" x="220" y="-240.5" font-family="Helvetica,sans-Serif" font-size="10.00">Linear solvers</text>
</a>
</g>
</g>
<!-- Node5 -->
<g id="node4" class="node">
<title>Node5</title>
<g id="a_node4"><a xlink:href="../../d7/d24/group__mesh_module.html" target="_top" xlink:title="Objects for meshes and domain decompositions.">
<polygon fill="white" stroke="black" points="257.5,-215.5 182.5,-215.5 182.5,-196.5 257.5,-196.5 257.5,-215.5"/>
<text text-anchor="middle" x="220" y="-203.5" font-family="Helvetica,sans-Serif" font-size="10.00">Mesh objects</text>
</a>
</g>
</g>
<!-- Node6 -->
<g id="node5" class="node">
<title>Node6</title>
<g id="a_node5"><a xlink:href="../../df/d44/group__misc_module.html" target="_top" xlink:title="Collections of the namespaces containing rarely used functions.">
<polygon fill="white" stroke="black" points="281,-178.5 159,-178.5 159,-159.5 281,-159.5 281,-178.5"/>
<text text-anchor="middle" x="220" y="-166.5" font-family="Helvetica,sans-Serif" font-size="10.00">Miscellaneous functions</text>
</a>
</g>
</g>
<!-- Node7 -->
<g id="node6" class="node">
<title>Node7</title>
<g id="a_node6"><a xlink:href="../../d5/d01/group__operator_module.html" target="_top" xlink:title="Matrices &amp; Operators used in Perot&#39;s framework (1993, 2002).">
<polygon fill="white" stroke="black" points="267.5,-141.5 172.5,-141.5 172.5,-122.5 267.5,-122.5 267.5,-141.5"/>
<text text-anchor="middle" x="220" y="-129.5" font-family="Helvetica,sans-Serif" font-size="10.00">Operator factories</text>
</a>
</g>
</g>
<!-- Node1 -->
<g id="node7" class="node">
<title>Node1</title>
<g id="a_node7"><a xlink:title=" ">
<polygon fill="#bfbfbf" stroke="black" points="117,-178.5 0,-178.5 0,-159.5 117,-159.5 117,-178.5"/>
<text text-anchor="middle" x="58.5" y="-166.5" font-family="Helvetica,sans-Serif" font-size="10.00">PetIBM building blocks</text>
</a>
</g>
</g>
<!-- Node1&#45;&gt;Node2 -->
<g id="edge1" class="edge">
<title>Node1&#45;&gt;Node2</title>
<path fill="none" stroke="black" d="M66.94,-188.02C79.81,-218.43 109.14,-277.84 153,-310 158.29,-313.88 164.35,-316.97 170.61,-319.43"/>
<polygon fill="black" stroke="black" points="70.1,-186.5 63.08,-178.57 63.62,-189.15 70.1,-186.5"/>
</g>
<!-- Node1&#45;&gt;Node3 -->
<g id="edge2" class="edge">
<title>Node1&#45;&gt;Node3</title>
<path fill="none" stroke="black" d="M73.02,-186.46C89.78,-207.07 120.19,-241.17 153,-262 158.25,-265.33 164.03,-268.29 169.91,-270.89"/>
<polygon fill="black" stroke="black" points="75.67,-184.17 66.7,-178.53 70.19,-188.54 75.67,-184.17"/>
</g>
<!-- Node1&#45;&gt;Node4 -->
<g id="edge3" class="edge">
<title>Node1&#45;&gt;Node4</title>
<path fill="none" stroke="black" d="M81.06,-184.24C99.45,-196.67 126.97,-213.91 153,-225 161.96,-228.82 171.95,-232.04 181.39,-234.65"/>
<polygon fill="black" stroke="black" points="83.04,-181.36 72.81,-178.58 79.07,-187.13 83.04,-181.36"/>
</g>
<!-- Node1&#45;&gt;Node5 -->
<g id="edge4" class="edge">
<title>Node1&#45;&gt;Node5</title>
<path fill="none" stroke="black" d="M110.35,-180.8C133.78,-186.23 161.06,-192.56 182.42,-197.51"/>
<polygon fill="black" stroke="black" points="111.11,-177.38 100.58,-178.53 109.53,-184.2 111.11,-177.38"/>
</g>
<!-- Node1&#45;&gt;Node6 -->
<g id="edge5" class="edge">
<title>Node1&#45;&gt;Node6</title>
<path fill="none" stroke="black" d="M127.4,-169C137.84,-169 148.56,-169 158.81,-169"/>
<polygon fill="black" stroke="black" points="127.08,-165.5 117.08,-169 127.08,-172.5 127.08,-165.5"/>
</g>
<!-- Node1&#45;&gt;Node7 -->
<g id="edge6" class="edge">
<title>Node1&#45;&gt;Node7</title>
<path fill="none" stroke="black" d="M110.32,-157.21C132.09,-152.16 157.2,-146.34 177.79,-141.56"/>
<polygon fill="black" stroke="black" points="109.53,-153.8 100.58,-159.47 111.11,-160.62 109.53,-153.8"/>
</g>
<!-- Node8 -->
<g id="node8" class="node">
<title>Node8</title>
<g id="a_node8"><a xlink:href="../../dd/df7/group__solution_module.html" target="_top" xlink:title="Simple structures to hold flow field solutions.">
<polygon fill="white" stroke="black" points="263,-104.5 177,-104.5 177,-85.5 263,-85.5 263,-104.5"/>
<text text-anchor="middle" x="220" y="-92.5" font-family="Helvetica,sans-Serif" font-size="10.00">Solution holders</text>
</a>
</g>
</g>
<!-- Node1&#45;&gt;Node8 -->
<g id="edge7" class="edge">
<title>Node1&#45;&gt;Node8</title>
<path fill="none" stroke="black" d="M81.71,-153.77C100.15,-141.67 127.39,-125.01 153,-114 161.43,-110.37 170.77,-107.21 179.69,-104.56"/>
<polygon fill="black" stroke="black" points="79.55,-151 73.17,-159.46 83.44,-156.83 79.55,-151"/>
</g>
<!-- Node9 -->
<g id="node9" class="node">
<title>Node9</title>
<g id="a_node9"><a xlink:href="../../d1/d8b/group__time_module.html" target="_top" xlink:title="Objects holding informations of time&#45;integration schemes.">
<polygon fill="white" stroke="black" points="284.5,-67.5 155.5,-67.5 155.5,-48.5 284.5,-48.5 284.5,-67.5"/>
<text text-anchor="middle" x="220" y="-55.5" font-family="Helvetica,sans-Serif" font-size="10.00">Time&#45;integration schemes</text>
</a>
</g>
</g>
<!-- Node1&#45;&gt;Node9 -->
<g id="edge8" class="edge">
<title>Node1&#45;&gt;Node9</title>
<path fill="none" stroke="black" d="M72.82,-151.35C89.4,-130.59 119.62,-96.5 153,-77 159.59,-73.15 167.01,-70.04 174.43,-67.53"/>
<polygon fill="black" stroke="black" points="69.97,-149.31 66.58,-159.35 75.49,-153.61 69.97,-149.31"/>
</g>
<!-- Node10 -->
<g id="node10" class="node">
<title>Node10</title>
<g id="a_node10"><a xlink:href="../../dd/d8f/group__type.html" target="_top" xlink:title="Useful user&#45;defined types in PetIBM.">
<polygon fill="white" stroke="black" points="269.5,-30 170.5,-30 170.5,0 269.5,0 269.5,-30"/>
<text text-anchor="start" x="178.5" y="-18" font-family="Helvetica,sans-Serif" font-size="10.00">User&#45;defined types</text>
<text text-anchor="middle" x="220" y="-7" font-family="Helvetica,sans-Serif" font-size="10.00"> in PetIBM</text>
</a>
</g>
</g>
<!-- Node1&#45;&gt;Node10 -->
<g id="edge9" class="edge">
<title>Node1&#45;&gt;Node10</title>
<path fill="none" stroke="black" d="M68.47,-150.42C82.73,-122.7 113.08,-70.53 153,-40 158.26,-35.98 164.23,-32.54 170.39,-29.62"/>
<polygon fill="black" stroke="black" points="65.3,-148.93 63.96,-159.44 71.56,-152.06 65.3,-148.93"/>
</g>
</g>
</svg>
