<?xml version="1.0" encoding="UTF-8" standalone="no"?>
<!DOCTYPE svg PUBLIC "-//W3C//DTD SVG 1.1//EN"
 "http://www.w3.org/Graphics/SVG/1.1/DTD/svg11.dtd">
<!-- Generated by graphviz version 2.38.0 (20140413.2041)
 -->
<!-- Title: PetIBM building blocks Pages: 1 -->
<svg width="295pt" height="356pt"
 viewBox="0.00 0.00 295.00 355.50" xmlns="http://www.w3.org/2000/svg" xmlns:xlink="http://www.w3.org/1999/xlink">
<g id="graph0" class="graph" transform="scale(1 1) rotate(0) translate(4 351.5)">
<title>PetIBM building blocks</title>
<polygon fill="white" stroke="none" points="-4,4 -4,-351.5 291,-351.5 291,4 -4,4"/>
<!-- Node3 -->
<g id="node1" class="node"><title>Node3</title>
<g id="a_node1"><a xlink:href="../../d8/df7/group__linsolver.html" target="_top" xlink:title="Interfaces to different libraries of linear solvers. ">
<polygon fill="white" stroke="black" points="181.5,-328 181.5,-347 258.5,-347 258.5,-328 181.5,-328"/>
<text text-anchor="middle" x="220" y="-335" font-family="Helvetica,sans-Serif" font-size="10.00">Linear solvers</text>
</a>
</g>
</g>
<!-- Node7 -->
<g id="node2" class="node"><title>Node7</title>
<g id="a_node2"><a xlink:href="../../dd/df7/group__solution_module.html" target="_top" xlink:title="Simple structures to hold flow field solutions. ">
<polygon fill="white" stroke="black" points="177,-290 177,-309 263,-309 263,-290 177,-290"/>
<text text-anchor="middle" x="220" y="-297" font-family="Helvetica,sans-Serif" font-size="10.00">Solution holders</text>
</a>
</g>
</g>
<!-- Node6 -->
<g id="node3" class="node"><title>Node6</title>
<g id="a_node3"><a xlink:href="../../d5/d01/group__operator_module.html" target="_top" xlink:title="Matrices &amp; Operators used in Perot&#39;s framework (1993, 2002). ">
<polygon fill="white" stroke="black" points="172.5,-252 172.5,-271 267.5,-271 267.5,-252 172.5,-252"/>
<text text-anchor="middle" x="220" y="-259" font-family="Helvetica,sans-Serif" font-size="10.00">Operator factories</text>
</a>
</g>
</g>
<!-- Node0 -->
<g id="node4" class="node"><title>Node0</title>
<polygon fill="#bfbfbf" stroke="black" points="0,-170 0,-189 117,-189 117,-170 0,-170"/>
<text text-anchor="middle" x="58.5" y="-177" font-family="Helvetica,sans-Serif" font-size="10.00">PetIBM building blocks</text>
</g>
<!-- Node0&#45;&gt;Node3 -->
<g id="edge3" class="edge"><title>Node0&#45;&gt;Node3</title>
<path fill="none" stroke="black" d="M67.2044,-198.69C80.2784,-228.798 109.679,-286.949 153,-318.5 161.289,-324.537 171.457,-328.662 181.307,-331.479"/>
<polygon fill="black" stroke="black" points="70.3609,-197.167 63.2647,-189.3 63.9059,-199.875 70.3609,-197.167"/>
</g>
<!-- Node0&#45;&gt;Node7 -->
<g id="edge7" class="edge"><title>Node0&#45;&gt;Node7</title>
<path fill="none" stroke="black" d="M71.4732,-197.572C87.4274,-220.252 117.775,-258.8 153,-280.5 160.208,-284.94 168.494,-288.379 176.707,-291.03"/>
<polygon fill="black" stroke="black" points="74.2653,-195.455 65.7234,-189.187 68.4923,-199.414 74.2653,-195.455"/>
</g>
<!-- Node0&#45;&gt;Node6 -->
<g id="edge6" class="edge"><title>Node0&#45;&gt;Node6</title>
<path fill="none" stroke="black" d="M79.2535,-195.511C97.4604,-209.589 125.715,-229.767 153,-242.5 160.888,-246.181 169.644,-249.307 178.131,-251.896"/>
<polygon fill="black" stroke="black" points="81.1935,-192.584 71.1709,-189.149 76.864,-198.084 81.1935,-192.584"/>
</g>
<!-- Node5 -->
<g id="node5" class="node"><title>Node5</title>
<g id="a_node5"><a xlink:href="../../df/d44/group__misc_module.html" target="_top" xlink:title="Collections of the namespaces containing rarely used functions. ">
<polygon fill="white" stroke="black" points="159,-214 159,-233 281,-233 281,-214 159,-214"/>
<text text-anchor="middle" x="220" y="-221" font-family="Helvetica,sans-Serif" font-size="10.00">Miscellaneous functions</text>
</a>
</g>
</g>
<!-- Node0&#45;&gt;Node5 -->
<g id="edge5" class="edge"><title>Node0&#45;&gt;Node5</title>
<path fill="none" stroke="black" d="M103.898,-191.748C129.363,-198.772 160.855,-207.46 184.458,-213.971"/>
<polygon fill="black" stroke="black" points="104.68,-188.333 94.1091,-189.047 102.818,-195.081 104.68,-188.333"/>
</g>
<!-- Node9 -->
<g id="node6" class="node"><title>Node9</title>
<g id="a_node6"><a xlink:href="../../dd/d8f/group__type.html" target="_top" xlink:title="Useful user&#45;defined types in PetIBM. ">
<polygon fill="white" stroke="black" points="170.5,-164.5 170.5,-194.5 269.5,-194.5 269.5,-164.5 170.5,-164.5"/>
<text text-anchor="start" x="178.5" y="-182.5" font-family="Helvetica,sans-Serif" font-size="10.00">User&#45;defined types</text>
<text text-anchor="middle" x="220" y="-171.5" font-family="Helvetica,sans-Serif" font-size="10.00"> in PetIBM</text>
</a>
</g>
</g>
<!-- Node0&#45;&gt;Node9 -->
<g id="edge9" class="edge"><title>Node0&#45;&gt;Node9</title>
<path fill="none" stroke="black" d="M127.48,-179.5C141.924,-179.5 156.895,-179.5 170.441,-179.5"/>
<polygon fill="black" stroke="black" points="127.083,-176 117.083,-179.5 127.083,-183 127.083,-176"/>
</g>
<!-- Node8 -->
<g id="node7" class="node"><title>Node8</title>
<g id="a_node7"><a xlink:href="../../d1/d8b/group__time_module.html" target="_top" xlink:title="Objects holding informations of time&#45;integration schemes. ">
<polygon fill="white" stroke="black" points="155.5,-126 155.5,-145 284.5,-145 284.5,-126 155.5,-126"/>
<text text-anchor="middle" x="220" y="-133" font-family="Helvetica,sans-Serif" font-size="10.00">Time&#45;integration schemes</text>
</a>
</g>
</g>
<!-- Node0&#45;&gt;Node8 -->
<g id="edge8" class="edge"><title>Node0&#45;&gt;Node8</title>
<path fill="none" stroke="black" d="M103.898,-167.252C129.363,-160.228 160.855,-151.54 184.458,-145.029"/>
<polygon fill="black" stroke="black" points="102.818,-163.919 94.1091,-169.953 104.68,-170.667 102.818,-163.919"/>
</g>
<!-- Node1 -->
<g id="node8" class="node"><title>Node1</title>
<g id="a_node8"><a xlink:href="../../d0/d1a/group__body_module.html" target="_top" xlink:title="Objects related to immersed&#45;boundary bodies. ">
<polygon fill="white" stroke="black" points="153,-88 153,-107 287,-107 287,-88 153,-88"/>
<text text-anchor="middle" x="220" y="-95" font-family="Helvetica,sans-Serif" font-size="10.00">Immersed&#45;boundary bodies</text>
</a>
</g>
</g>
<!-- Node0&#45;&gt;Node1 -->
<g id="edge1" class="edge"><title>Node0&#45;&gt;Node1</title>
<path fill="none" stroke="black" d="M79.2535,-163.489C97.4604,-149.411 125.715,-129.233 153,-116.5 160.888,-112.819 169.644,-109.693 178.131,-107.104"/>
<polygon fill="black" stroke="black" points="76.864,-160.916 71.1709,-169.851 81.1935,-166.416 76.864,-160.916"/>
</g>
<!-- Node4 -->
<g id="node9" class="node"><title>Node4</title>
<g id="a_node9"><a xlink:href="../../d7/d24/group__mesh_module.html" target="_top" xlink:title="Objects for meshes and domain decompositions. ">
<polygon fill="white" stroke="black" points="182.5,-50 182.5,-69 257.5,-69 257.5,-50 182.5,-50"/>
<text text-anchor="middle" x="220" y="-57" font-family="Helvetica,sans-Serif" font-size="10.00">Mesh objects</text>
</a>
</g>
</g>
<!-- Node0&#45;&gt;Node4 -->
<g id="edge4" class="edge"><title>Node0&#45;&gt;Node4</title>
<path fill="none" stroke="black" d="M71.4732,-161.428C87.4274,-138.748 117.775,-100.2 153,-78.5 161.832,-73.0591 172.284,-69.122 182.234,-66.2948"/>
<polygon fill="black" stroke="black" points="68.4923,-159.586 65.7234,-169.813 74.2653,-163.545 68.4923,-159.586"/>
</g>
<!-- Node2 -->
<g id="node10" class="node"><title>Node2</title>
<g id="a_node10"><a xlink:href="../../d1/d84/group__boundary_module.html" target="_top" xlink:title="Objects handling boundary conditions with ghost point schemes. ">
<polygon fill="white" stroke="black" points="156.5,-0.5 156.5,-30.5 283.5,-30.5 283.5,-0.5 156.5,-0.5"/>
<text text-anchor="start" x="164.5" y="-18.5" font-family="Helvetica,sans-Serif" font-size="10.00">Boundaries and boundary</text>
<text text-anchor="middle" x="220" y="-7.5" font-family="Helvetica,sans-Serif" font-size="10.00"> conditions</text>
</a>
</g>
</g>
<!-- Node0&#45;&gt;Node2 -->
<g id="edge2" class="edge"><title>Node0&#45;&gt;Node2</title>
<path fill="none" stroke="black" d="M67.5167,-160.721C81.0215,-131.179 111.005,-73.7962 153,-40.5 157.801,-36.6938 163.244,-33.4207 168.895,-30.6177"/>
<polygon fill="black" stroke="black" points="64.2899,-159.363 63.4344,-169.924 70.6886,-162.202 64.2899,-159.363"/>
</g>
</g>
</svg>
