<?xml version="1.0" encoding="UTF-8" standalone="no"?>
<!DOCTYPE svg PUBLIC "-//W3C//DTD SVG 1.1//EN"
 "http://www.w3.org/Graphics/SVG/1.1/DTD/svg11.dtd">
<!-- Generated by graphviz version 2.40.1 (20161225.0304)
 -->
<!-- Title: PetIBM building blocks Pages: 1 -->
<svg width="299pt" height="343pt"
 viewBox="0.00 0.00 298.89 343.00" xmlns="http://www.w3.org/2000/svg" xmlns:xlink="http://www.w3.org/1999/xlink">
<g id="graph0" class="graph" transform="scale(1 1) rotate(0) translate(4 339)">
<title>PetIBM building blocks</title>
<polygon fill="#ffffff" stroke="transparent" points="-4,4 -4,-339 294.8906,-339 294.8906,4 -4,4"/>
<!-- Node3 -->
<g id="node1" class="node">
<title>Node3</title>
<g id="a_node1"><a xlink:href="../../d8/df7/group__linsolver.html" target="_top" xlink:title="Interfaces to different libraries of linear solvers. ">
<polygon fill="#ffffff" stroke="#000000" points="182.9009,-316.5 182.9009,-334.5 261.1519,-334.5 261.1519,-316.5 182.9009,-316.5"/>
<text text-anchor="middle" x="222.0264" y="-322.5" font-family="Helvetica,sans-Serif" font-size="10.00" fill="#000000">Linear solvers</text>
</a>
</g>
</g>
<!-- Node7 -->
<g id="node2" class="node">
<title>Node7</title>
<g id="a_node2"><a xlink:href="../../dd/df7/group__solution_module.html" target="_top" xlink:title="Simple and useful structures for holding solutions. ">
<polygon fill="#ffffff" stroke="#000000" points="178.1694,-279.5 178.1694,-297.5 265.8833,-297.5 265.8833,-279.5 178.1694,-279.5"/>
<text text-anchor="middle" x="222.0264" y="-285.5" font-family="Helvetica,sans-Serif" font-size="10.00" fill="#000000">Solution holders</text>
</a>
</g>
</g>
<!-- Node6 -->
<g id="node3" class="node">
<title>Node6</title>
<g id="a_node3"><a xlink:href="../../d5/d01/group__operator_module.html" target="_top" xlink:title="Matrices &amp; Operators used in Perot&#39;s framework (1993, 2002). ">
<polygon fill="#ffffff" stroke="#000000" points="174.0093,-242.5 174.0093,-260.5 270.0435,-260.5 270.0435,-242.5 174.0093,-242.5"/>
<text text-anchor="middle" x="222.0264" y="-248.5" font-family="Helvetica,sans-Serif" font-size="10.00" fill="#000000">Operator factories</text>
</a>
</g>
</g>
<!-- Node0 -->
<g id="node4" class="node">
<title>Node0</title>
<polygon fill="#bfbfbf" stroke="#000000" points="0,-163.5 0,-181.5 117.1621,-181.5 117.1621,-163.5 0,-163.5"/>
<text text-anchor="middle" x="58.5811" y="-169.5" font-family="Helvetica,sans-Serif" font-size="10.00" fill="#000000">PetIBM building blocks</text>
</g>
<!-- Node0&#45;&gt;Node3 -->
<g id="edge3" class="edge">
<title>Node0&#45;&gt;Node3</title>
<path fill="none" stroke="#000000" d="M66.4802,-191.2228C79.8679,-220.6267 109.8483,-277.3774 153.1621,-307.5 161.8869,-313.5677 172.5213,-317.59 182.7977,-320.2564"/>
<polygon fill="#000000" stroke="#000000" points="69.534,-189.4722 62.3047,-181.727 63.1261,-192.29 69.534,-189.4722"/>
</g>
<!-- Node0&#45;&gt;Node7 -->
<g id="edge7" class="edge">
<title>Node0&#45;&gt;Node7</title>
<path fill="none" stroke="#000000" d="M70.5398,-189.8187C86.7107,-211.9054 117.6467,-249.7192 153.1621,-270.5 160.7347,-274.9309 169.4039,-278.2886 177.9789,-280.8275"/>
<polygon fill="#000000" stroke="#000000" points="73.3821,-187.7762 64.7233,-181.6708 67.6848,-191.8433 73.3821,-187.7762"/>
</g>
<!-- Node0&#45;&gt;Node6 -->
<g id="edge6" class="edge">
<title>Node0&#45;&gt;Node6</title>
<path fill="none" stroke="#000000" d="M78.2958,-187.8836C96.7294,-201.5991 125.4937,-221.3347 153.1621,-233.5 161.1937,-237.0313 170.0673,-239.9885 178.698,-242.4182"/>
<polygon fill="#000000" stroke="#000000" points="80.2107,-184.9432 70.1265,-181.6936 75.9832,-190.5226 80.2107,-184.9432"/>
</g>
<!-- Node5 -->
<g id="node5" class="node">
<title>Node5</title>
<g id="a_node5"><a xlink:href="../../df/d44/group__misc_module.html" target="_top" xlink:title="Collections of the namespaces containing rarely used functions. ">
<polygon fill="#ffffff" stroke="#000000" points="160.9429,-205.5 160.9429,-223.5 283.1099,-223.5 283.1099,-205.5 160.9429,-205.5"/>
<text text-anchor="middle" x="222.0264" y="-211.5" font-family="Helvetica,sans-Serif" font-size="10.00" fill="#000000">Miscellaneous functions</text>
</a>
</g>
</g>
<!-- Node0&#45;&gt;Node5 -->
<g id="edge5" class="edge">
<title>Node0&#45;&gt;Node5</title>
<path fill="none" stroke="#000000" d="M103.3612,-184.007C129.618,-190.7541 162.3188,-199.1572 186.7396,-205.4325"/>
<polygon fill="#000000" stroke="#000000" points="104.2006,-180.6091 93.6442,-181.5101 102.4584,-187.3888 104.2006,-180.6091"/>
</g>
<!-- Node9 -->
<g id="node6" class="node">
<title>Node9</title>
<g id="a_node6"><a xlink:href="../../dd/d8f/group__type.html" target="_top" xlink:title="Useful user&#45;defined types in PetIBM. ">
<polygon fill="#ffffff" stroke="#000000" points="172.061,-158.5 172.061,-186.5 271.9917,-186.5 271.9917,-158.5 172.061,-158.5"/>
<text text-anchor="start" x="180.061" y="-174.5" font-family="Helvetica,sans-Serif" font-size="10.00" fill="#000000">User&#45;defined types</text>
<text text-anchor="middle" x="222.0264" y="-164.5" font-family="Helvetica,sans-Serif" font-size="10.00" fill="#000000"> in PetIBM</text>
</a>
</g>
</g>
<!-- Node0&#45;&gt;Node9 -->
<g id="edge9" class="edge">
<title>Node0&#45;&gt;Node9</title>
<path fill="none" stroke="#000000" d="M127.7587,-172.5C142.6156,-172.5 158.0392,-172.5 172.0019,-172.5"/>
<polygon fill="#000000" stroke="#000000" points="127.5886,-169.0001 117.5886,-172.5 127.5885,-176.0001 127.5886,-169.0001"/>
</g>
<!-- Node8 -->
<g id="node7" class="node">
<title>Node8</title>
<g id="a_node7"><a xlink:href="../../d1/d8b/group__time_module.html" target="_top" xlink:title="Objects holding informations of time&#45;integration schemes. ">
<polygon fill="#ffffff" stroke="#000000" points="156.6875,-121.5 156.6875,-139.5 287.3652,-139.5 287.3652,-121.5 156.6875,-121.5"/>
<text text-anchor="middle" x="222.0264" y="-127.5" font-family="Helvetica,sans-Serif" font-size="10.00" fill="#000000">Time&#45;integration schemes</text>
</a>
</g>
</g>
<!-- Node0&#45;&gt;Node8 -->
<g id="edge8" class="edge">
<title>Node0&#45;&gt;Node8</title>
<path fill="none" stroke="#000000" d="M103.3612,-160.993C129.618,-154.2459 162.3188,-145.8428 186.7396,-139.5675"/>
<polygon fill="#000000" stroke="#000000" points="102.4584,-157.6112 93.6442,-163.4899 104.2006,-164.3909 102.4584,-157.6112"/>
</g>
<!-- Node1 -->
<g id="node8" class="node">
<title>Node1</title>
<g id="a_node8"><a xlink:href="../../d0/d1a/group__body_module.html" target="_top" xlink:title="Objects related to immersed&#45;boundary bodies. ">
<polygon fill="#ffffff" stroke="#000000" points="153.1621,-84.5 153.1621,-102.5 290.8906,-102.5 290.8906,-84.5 153.1621,-84.5"/>
<text text-anchor="middle" x="222.0264" y="-90.5" font-family="Helvetica,sans-Serif" font-size="10.00" fill="#000000">Immersed&#45;boundary bodies</text>
</a>
</g>
</g>
<!-- Node0&#45;&gt;Node1 -->
<g id="edge1" class="edge">
<title>Node0&#45;&gt;Node1</title>
<path fill="none" stroke="#000000" d="M78.6844,-157.2498C97.1833,-143.8405 125.8157,-124.6224 153.1621,-112.5 162.0059,-108.5796 171.8535,-105.2844 181.2722,-102.5972"/>
<polygon fill="#000000" stroke="#000000" points="76.4382,-154.5574 70.4672,-163.3094 80.5928,-160.1913 76.4382,-154.5574"/>
</g>
<!-- Node4 -->
<g id="node9" class="node">
<title>Node4</title>
<g id="a_node9"><a xlink:href="../../d7/d24/group__mesh_module.html" target="_top" xlink:title="Objects for meshes and domain decompositions. ">
<polygon fill="#ffffff" stroke="#000000" points="184.5684,-47.5 184.5684,-65.5 259.4844,-65.5 259.4844,-47.5 184.5684,-47.5"/>
<text text-anchor="middle" x="222.0264" y="-53.5" font-family="Helvetica,sans-Serif" font-size="10.00" fill="#000000">Mesh objects</text>
</a>
</g>
</g>
<!-- Node0&#45;&gt;Node4 -->
<g id="edge4" class="edge">
<title>Node0&#45;&gt;Node4</title>
<path fill="none" stroke="#000000" d="M70.8419,-155.144C87.1624,-133.326 118.0778,-96.2272 153.1621,-75.5 162.6656,-69.8855 173.8844,-65.8784 184.4773,-63.0396"/>
<polygon fill="#000000" stroke="#000000" points="67.8366,-153.325 64.7714,-163.4667 73.492,-157.45 67.8366,-153.325"/>
</g>
<!-- Node2 -->
<g id="node10" class="node">
<title>Node2</title>
<g id="a_node10"><a xlink:href="../../d1/d84/group__boundary_module.html" target="_top" xlink:title="Objects handling boundary conditions with ghost point schemes. ">
<polygon fill="#ffffff" stroke="#000000" points="156.7607,-.5 156.7607,-28.5 287.292,-28.5 287.292,-.5 156.7607,-.5"/>
<text text-anchor="start" x="164.7607" y="-16.5" font-family="Helvetica,sans-Serif" font-size="10.00" fill="#000000">Boundaries and boundary</text>
<text text-anchor="middle" x="222.0264" y="-6.5" font-family="Helvetica,sans-Serif" font-size="10.00" fill="#000000"> conditions</text>
</a>
</g>
</g>
<!-- Node0&#45;&gt;Node2 -->
<g id="edge2" class="edge">
<title>Node0&#45;&gt;Node2</title>
<path fill="none" stroke="#000000" d="M67.008,-153.8968C80.9405,-125.141 111.4385,-69.9401 153.1621,-38.5 158.319,-34.6141 164.1543,-31.324 170.193,-28.5465"/>
<polygon fill="#000000" stroke="#000000" points="63.7208,-152.6626 62.6344,-163.2016 70.0559,-155.6404 63.7208,-152.6626"/>
</g>
</g>
</svg>
