<?xml version="1.0" encoding="UTF-8" standalone="no"?>
<!DOCTYPE svg PUBLIC "-//W3C//DTD SVG 1.1//EN"
 "http://www.w3.org/Graphics/SVG/1.1/DTD/svg11.dtd">
<!-- Generated by graphviz version 2.38.0 (20140413.2041)
 -->
<!-- Title: petibm::linsolver::LinSolverBase Pages: 1 -->
<svg width="214pt" height="106pt"
 viewBox="0.00 0.00 214.00 106.00" xmlns="http://www.w3.org/2000/svg" xmlns:xlink="http://www.w3.org/1999/xlink">
<g id="graph0" class="graph" transform="scale(1 1) rotate(0) translate(4 102)">
<title>petibm::linsolver::LinSolverBase</title>
<polygon fill="white" stroke="none" points="-4,4 -4,-102 210,-102 210,4 -4,4"/>
<!-- Node1 -->
<g id="node1" class="node"><title>Node1</title>
<polygon fill="#bfbfbf" stroke="black" points="56,-67.5 56,-97.5 150,-97.5 150,-67.5 56,-67.5"/>
<text text-anchor="start" x="64" y="-85.5" font-family="Helvetica,sans-Serif" font-size="10.00">petibm::linsolver::</text>
<text text-anchor="middle" x="103" y="-74.5" font-family="Helvetica,sans-Serif" font-size="10.00">LinSolverBase</text>
</g>
<!-- Node2 -->
<g id="node2" class="node"><title>Node2</title>
<g id="a_node2"><a xlink:href="../../df/d3a/classpetibm_1_1linsolver_1_1_lin_solver_amg_x.html" target="_top" xlink:title="Iterative solver using wrapper of AmgX. ">
<polygon fill="white" stroke="black" points="0,-0.5 0,-30.5 94,-30.5 94,-0.5 0,-0.5"/>
<text text-anchor="start" x="8" y="-18.5" font-family="Helvetica,sans-Serif" font-size="10.00">petibm::linsolver::</text>
<text text-anchor="middle" x="47" y="-7.5" font-family="Helvetica,sans-Serif" font-size="10.00">LinSolverAmgX</text>
</a>
</g>
</g>
<!-- Node1&#45;&gt;Node2 -->
<g id="edge1" class="edge"><title>Node1&#45;&gt;Node2</title>
<path fill="none" stroke="midnightblue" d="M84.2496,-59.7362C75.964,-50.119 66.4611,-39.0888 59.1275,-30.5765"/>
<polygon fill="midnightblue" stroke="midnightblue" points="81.6701,-62.1044 90.8488,-67.396 86.9733,-57.5354 81.6701,-62.1044"/>
</g>
<!-- Node3 -->
<g id="node3" class="node"><title>Node3</title>
<g id="a_node3"><a xlink:href="../../d8/dfe/classpetibm_1_1linsolver_1_1_lin_solver_k_s_p.html" target="_top" xlink:title="Iterative solver using PETSc KSP. ">
<polygon fill="white" stroke="black" points="112,-0.5 112,-30.5 206,-30.5 206,-0.5 112,-0.5"/>
<text text-anchor="start" x="120" y="-18.5" font-family="Helvetica,sans-Serif" font-size="10.00">petibm::linsolver::</text>
<text text-anchor="middle" x="159" y="-7.5" font-family="Helvetica,sans-Serif" font-size="10.00">LinSolverKSP</text>
</a>
</g>
</g>
<!-- Node1&#45;&gt;Node3 -->
<g id="edge2" class="edge"><title>Node1&#45;&gt;Node3</title>
<path fill="none" stroke="midnightblue" d="M121.75,-59.7362C130.036,-50.119 139.539,-39.0888 146.873,-30.5765"/>
<polygon fill="midnightblue" stroke="midnightblue" points="119.027,-57.5354 115.151,-67.396 124.33,-62.1044 119.027,-57.5354"/>
</g>
</g>
</svg>
