<?xml version="1.0" encoding="UTF-8" standalone="no"?>
<!DOCTYPE svg PUBLIC "-//W3C//DTD SVG 1.1//EN"
 "http://www.w3.org/Graphics/SVG/1.1/DTD/svg11.dtd">
<!-- Generated by graphviz version 2.40.1 (20161225.0304)
 -->
<!-- Title: petibm::linsolver::LinSolverBase Pages: 1 -->
<svg width="214pt" height="102pt"
 viewBox="0.00 0.00 213.81 102.00" xmlns="http://www.w3.org/2000/svg" xmlns:xlink="http://www.w3.org/1999/xlink">
<g id="graph0" class="graph" transform="scale(1 1) rotate(0) translate(4 98)">
<title>petibm::linsolver::LinSolverBase</title>
<polygon fill="#ffffff" stroke="transparent" points="-4,4 -4,-98 209.8076,-98 209.8076,4 -4,4"/>
<!-- Node0 -->
<g id="node1" class="node">
<title>Node0</title>
<polygon fill="#bfbfbf" stroke="#000000" points="56,-65.5 56,-93.5 149.8076,-93.5 149.8076,-65.5 56,-65.5"/>
<text text-anchor="start" x="64" y="-81.5" font-family="Helvetica,sans-Serif" font-size="10.00" fill="#000000">petibm::linsolver::</text>
<text text-anchor="middle" x="102.9038" y="-71.5" font-family="Helvetica,sans-Serif" font-size="10.00" fill="#000000">LinSolverBase</text>
</g>
<!-- Node1 -->
<g id="node2" class="node">
<title>Node1</title>
<g id="a_node2"><a xlink:href="../../df/d3a/classpetibm_1_1linsolver_1_1_lin_solver_amg_x.html" target="_top" xlink:title="Iterative solver using wrapper of AmgX. ">
<polygon fill="#ffffff" stroke="#000000" points="0,-.5 0,-28.5 93.8076,-28.5 93.8076,-.5 0,-.5"/>
<text text-anchor="start" x="8" y="-16.5" font-family="Helvetica,sans-Serif" font-size="10.00" fill="#000000">petibm::linsolver::</text>
<text text-anchor="middle" x="46.9038" y="-6.5" font-family="Helvetica,sans-Serif" font-size="10.00" fill="#000000">LinSolverAmgX</text>
</a>
</g>
</g>
<!-- Node0&#45;&gt;Node1 -->
<g id="edge1" class="edge">
<title>Node0&#45;&gt;Node1</title>
<path fill="none" stroke="#191970" d="M84.1534,-57.7362C75.8679,-48.119 66.3649,-37.0888 59.0313,-28.5765"/>
<polygon fill="#191970" stroke="#191970" points="81.5739,-60.1044 90.7526,-65.396 86.8772,-55.5354 81.5739,-60.1044"/>
</g>
<!-- Node2 -->
<g id="node3" class="node">
<title>Node2</title>
<g id="a_node3"><a xlink:href="../../d8/dfe/classpetibm_1_1linsolver_1_1_lin_solver_k_s_p.html" target="_top" xlink:title="Iterative solver using PETSc KSP. ">
<polygon fill="#ffffff" stroke="#000000" points="112,-.5 112,-28.5 205.8076,-28.5 205.8076,-.5 112,-.5"/>
<text text-anchor="start" x="120" y="-16.5" font-family="Helvetica,sans-Serif" font-size="10.00" fill="#000000">petibm::linsolver::</text>
<text text-anchor="middle" x="158.9038" y="-6.5" font-family="Helvetica,sans-Serif" font-size="10.00" fill="#000000">LinSolverKSP</text>
</a>
</g>
</g>
<!-- Node0&#45;&gt;Node2 -->
<g id="edge2" class="edge">
<title>Node0&#45;&gt;Node2</title>
<path fill="none" stroke="#191970" d="M121.6542,-57.7362C129.9398,-48.119 139.4427,-37.0888 146.7764,-28.5765"/>
<polygon fill="#191970" stroke="#191970" points="118.9305,-55.5354 115.055,-65.396 124.2337,-60.1044 118.9305,-55.5354"/>
</g>
</g>
</svg>
