<?xml version="1.0" encoding="UTF-8" standalone="no"?>
<!DOCTYPE svg PUBLIC "-//W3C//DTD SVG 1.1//EN"
 "http://www.w3.org/Graphics/SVG/1.1/DTD/svg11.dtd">
<!-- Generated by graphviz version 2.40.1 (20161225.0304)
 -->
<!-- Title: petibm::boundary::SingleBoundaryPeriodic Pages: 1 -->
<svg width="135pt" height="102pt"
 viewBox="0.00 0.00 134.62 102.00" xmlns="http://www.w3.org/2000/svg" xmlns:xlink="http://www.w3.org/1999/xlink">
<g id="graph0" class="graph" transform="scale(1 1) rotate(0) translate(4 98)">
<title>petibm::boundary::SingleBoundaryPeriodic</title>
<polygon fill="#ffffff" stroke="transparent" points="-4,4 -4,-98 130.625,-98 130.625,4 -4,4"/>
<!-- Node0 -->
<g id="node1" class="node">
<title>Node0</title>
<polygon fill="#bfbfbf" stroke="#000000" points="0,-.5 0,-28.5 126.625,-28.5 126.625,-.5 0,-.5"/>
<text text-anchor="start" x="8" y="-16.5" font-family="Helvetica,sans-Serif" font-size="10.00" fill="#000000">petibm::boundary::Single</text>
<text text-anchor="middle" x="63.3125" y="-6.5" font-family="Helvetica,sans-Serif" font-size="10.00" fill="#000000">BoundaryPeriodic</text>
</g>
<!-- Node1 -->
<g id="node2" class="node">
<title>Node1</title>
<g id="a_node2"><a xlink:href="../../d6/d69/classpetibm_1_1boundary_1_1_single_boundary_base.html" target="_top" xlink:title="Base (abstract) class for ghost points &amp; BC on a single boundary. ">
<polygon fill="#ffffff" stroke="#000000" points="0,-65.5 0,-93.5 126.625,-93.5 126.625,-65.5 0,-65.5"/>
<text text-anchor="start" x="8" y="-81.5" font-family="Helvetica,sans-Serif" font-size="10.00" fill="#000000">petibm::boundary::Single</text>
<text text-anchor="middle" x="63.3125" y="-71.5" font-family="Helvetica,sans-Serif" font-size="10.00" fill="#000000">BoundaryBase</text>
</a>
</g>
</g>
<!-- Node1&#45;&gt;Node0 -->
<g id="edge1" class="edge">
<title>Node1&#45;&gt;Node0</title>
<path fill="none" stroke="#191970" d="M63.3125,-55.1081C63.3125,-46.1539 63.3125,-36.3227 63.3125,-28.5765"/>
<polygon fill="#191970" stroke="#191970" points="59.8126,-55.3959 63.3125,-65.396 66.8126,-55.396 59.8126,-55.3959"/>
</g>
</g>
</svg>
