<?xml version="1.0" encoding="UTF-8" standalone="no"?>
<!DOCTYPE svg PUBLIC "-//W3C//DTD SVG 1.1//EN"
 "http://www.w3.org/Graphics/SVG/1.1/DTD/svg11.dtd">
<!-- Generated by graphviz version 2.38.0 (20140413.2041)
 -->
<!-- Title: Flow solvers and utilities Pages: 1 -->
<svg width="289pt" height="225pt"
 viewBox="0.00 0.00 289.00 225.00" xmlns="http://www.w3.org/2000/svg" xmlns:xlink="http://www.w3.org/1999/xlink">
<g id="graph0" class="graph" transform="scale(1 1) rotate(0) translate(4 221)">
<title>Flow solvers and utilities</title>
<polygon fill="white" stroke="none" points="-4,4 -4,-221 285,-221 285,4 -4,4"/>
<!-- Node5 -->
<g id="node1" class="node"><title>Node5</title>
<g id="a_node1"><a xlink:href="../../d7/db7/group__vorticity.html" target="_top" xlink:title="A post&#45;processing utility that calculates vorticity fields. ">
<polygon fill="white" stroke="black" points="164.5,-186.5 164.5,-216.5 277.5,-216.5 277.5,-186.5 164.5,-186.5"/>
<text text-anchor="start" x="172.5" y="-204.5" font-family="Helvetica,sans-Serif" font-size="10.00">Post&#45;processing utility</text>
<text text-anchor="middle" x="221" y="-193.5" font-family="Helvetica,sans-Serif" font-size="10.00">: vorticity</text>
</a>
</g>
</g>
<!-- Node0 -->
<g id="node2" class="node"><title>Node0</title>
<polygon fill="#bfbfbf" stroke="black" points="0,-94 0,-113 125,-113 125,-94 0,-94"/>
<text text-anchor="middle" x="62.5" y="-101" font-family="Helvetica,sans-Serif" font-size="10.00">Flow solvers and utilities</text>
</g>
<!-- Node0&#45;&gt;Node5 -->
<g id="edge5" class="edge"><title>Node0&#45;&gt;Node5</title>
<path fill="none" stroke="black" d="M82.0409,-119.947C100.924,-136.107 131.537,-160.717 161,-177.5 166.669,-180.729 172.859,-183.745 179.028,-186.474"/>
<polygon fill="black" stroke="black" points="84.0834,-117.086 74.2365,-113.175 79.4957,-122.373 84.0834,-117.086"/>
</g>
<!-- Node1 -->
<g id="node3" class="node"><title>Node1</title>
<g id="a_node3"><a xlink:href="../../df/db8/group__createxdmf.html" target="_top" xlink:title="A post&#45;processing utility that creates XDMF files for visualization. ">
<polygon fill="white" stroke="black" points="164.5,-137.5 164.5,-167.5 277.5,-167.5 277.5,-137.5 164.5,-137.5"/>
<text text-anchor="start" x="172.5" y="-155.5" font-family="Helvetica,sans-Serif" font-size="10.00">Post&#45;processing utility</text>
<text text-anchor="middle" x="221" y="-144.5" font-family="Helvetica,sans-Serif" font-size="10.00">: createxdmf</text>
</a>
</g>
</g>
<!-- Node0&#45;&gt;Node1 -->
<g id="edge1" class="edge"><title>Node0&#45;&gt;Node1</title>
<path fill="none" stroke="black" d="M103.843,-116.131C124.645,-122.645 150.161,-130.633 171.974,-137.463"/>
<polygon fill="black" stroke="black" points="104.635,-112.712 94.0463,-113.064 102.544,-119.392 104.635,-112.712"/>
</g>
<!-- Node2 -->
<g id="node4" class="node"><title>Node2</title>
<g id="a_node4"><a xlink:href="../../d0/d4b/group__decoupledibpm.html" target="_top" xlink:title="Implementation of parallel decoupled IBPM solver (Li et. al. 2016). ">
<polygon fill="white" stroke="black" points="161,-88.5 161,-118.5 281,-118.5 281,-88.5 161,-88.5"/>
<text text-anchor="start" x="169" y="-106.5" font-family="Helvetica,sans-Serif" font-size="10.00">Decoupled IBPM solver</text>
<text text-anchor="middle" x="221" y="-95.5" font-family="Helvetica,sans-Serif" font-size="10.00"> (Li et. al. 2016)</text>
</a>
</g>
</g>
<!-- Node0&#45;&gt;Node2 -->
<g id="edge2" class="edge"><title>Node0&#45;&gt;Node2</title>
<path fill="none" stroke="black" d="M135.605,-103.5C144.071,-103.5 152.634,-103.5 160.893,-103.5"/>
<polygon fill="black" stroke="black" points="135.353,-100 125.353,-103.5 135.353,-107 135.353,-100"/>
</g>
<!-- Node4 -->
<g id="node5" class="node"><title>Node4</title>
<g id="a_node5"><a xlink:href="../../dc/d6a/group__nssolver.html" target="_top" xlink:title="Implementation of parallel Navier&#45;Stokes solver. ">
<polygon fill="white" stroke="black" points="167,-50 167,-69 275,-69 275,-50 167,-50"/>
<text text-anchor="middle" x="221" y="-57" font-family="Helvetica,sans-Serif" font-size="10.00">Navier&#45;Stokes solver</text>
</a>
</g>
</g>
<!-- Node0&#45;&gt;Node4 -->
<g id="edge4" class="edge"><title>Node0&#45;&gt;Node4</title>
<path fill="none" stroke="black" d="M107.395,-91.1588C132.322,-84.1507 163.051,-75.5112 186.108,-69.0287"/>
<polygon fill="black" stroke="black" points="106.138,-87.8767 97.4582,-93.9527 108.032,-94.6154 106.138,-87.8767"/>
</g>
<!-- Node3 -->
<g id="node6" class="node"><title>Node3</title>
<g id="a_node6"><a xlink:href="../../d3/d01/group__ibpm.html" target="_top" xlink:title="Implementation of parallel IBPM solver (Taira &amp; Colonius 2007). ">
<polygon fill="white" stroke="black" points="172,-0.5 172,-30.5 270,-30.5 270,-0.5 172,-0.5"/>
<text text-anchor="start" x="180" y="-18.5" font-family="Helvetica,sans-Serif" font-size="10.00">IBPM solver (Taira</text>
<text text-anchor="middle" x="221" y="-7.5" font-family="Helvetica,sans-Serif" font-size="10.00"> &amp; Colonius 2007)</text>
</a>
</g>
</g>
<!-- Node0&#45;&gt;Node3 -->
<g id="edge3" class="edge"><title>Node0&#45;&gt;Node3</title>
<path fill="none" stroke="black" d="M84.993,-88.0692C104.326,-74.5685 133.789,-54.9173 161,-40.5 167.586,-37.0104 174.766,-33.635 181.778,-30.553"/>
<polygon fill="black" stroke="black" points="82.7736,-85.3515 76.6192,-93.9755 86.8084,-91.0717 82.7736,-85.3515"/>
</g>
</g>
</svg>
