<?xml version="1.0" encoding="UTF-8" standalone="no"?>
<!DOCTYPE svg PUBLIC "-//W3C//DTD SVG 1.1//EN"
 "http://www.w3.org/Graphics/SVG/1.1/DTD/svg11.dtd">
<!-- Generated by graphviz version 2.40.1 (20161225.0304)
 -->
<!-- Title: Flow solvers and utilities Pages: 1 -->
<svg width="289pt" height="215pt"
 viewBox="0.00 0.00 288.87 215.00" xmlns="http://www.w3.org/2000/svg" xmlns:xlink="http://www.w3.org/1999/xlink">
<g id="graph0" class="graph" transform="scale(1 1) rotate(0) translate(4 211)">
<title>Flow solvers and utilities</title>
<polygon fill="#ffffff" stroke="transparent" points="-4,4 -4,-211 284.8662,-211 284.8662,4 -4,4"/>
<!-- Node5 -->
<g id="node1" class="node">
<title>Node5</title>
<g id="a_node1"><a xlink:href="../../d7/db7/group__vorticity.html" target="_top" xlink:title="A post&#45;processing utility that calculates vorticity fields. ">
<polygon fill="#ffffff" stroke="#000000" points="163.9897,-178.5 163.9897,-206.5 277.2505,-206.5 277.2505,-178.5 163.9897,-178.5"/>
<text text-anchor="start" x="171.9897" y="-194.5" font-family="Helvetica,sans-Serif" font-size="10.00" fill="#000000">Post&#45;processing utility</text>
<text text-anchor="middle" x="220.6201" y="-184.5" font-family="Helvetica,sans-Serif" font-size="10.00" fill="#000000">: vorticity</text>
</a>
</g>
</g>
<!-- Node0 -->
<g id="node2" class="node">
<title>Node0</title>
<polygon fill="#bfbfbf" stroke="#000000" points="0,-89.5 0,-107.5 124.374,-107.5 124.374,-89.5 0,-89.5"/>
<text text-anchor="middle" x="62.187" y="-95.5" font-family="Helvetica,sans-Serif" font-size="10.00" fill="#000000">Flow solvers and utilities</text>
</g>
<!-- Node0&#45;&gt;Node5 -->
<g id="edge5" class="edge">
<title>Node0&#45;&gt;Node5</title>
<path fill="none" stroke="#000000" d="M80.6083,-114.0898C99.6447,-129.6383 130.6828,-153.4573 160.374,-169.5 166.3824,-172.7464 172.9481,-175.7516 179.4643,-178.4463"/>
<polygon fill="#000000" stroke="#000000" points="82.6886,-111.2682 72.7544,-107.5856 78.2238,-116.6595 82.6886,-111.2682"/>
</g>
<!-- Node4 -->
<g id="node3" class="node">
<title>Node4</title>
<g id="a_node3"><a xlink:href="../../d1/d9d/group__tairacolonius.html" target="_top" xlink:title="Implementation of parallel IBPM solver (Taira &amp; Colonius 2007). ">
<polygon fill="#ffffff" stroke="#000000" points="171.7778,-131.5 171.7778,-159.5 269.4624,-159.5 269.4624,-131.5 171.7778,-131.5"/>
<text text-anchor="start" x="179.7778" y="-147.5" font-family="Helvetica,sans-Serif" font-size="10.00" fill="#000000">IBPM solver (Taira</text>
<text text-anchor="middle" x="220.6201" y="-137.5" font-family="Helvetica,sans-Serif" font-size="10.00" fill="#000000"> &amp; Colonius 2007)</text>
</a>
</g>
</g>
<!-- Node0&#45;&gt;Node4 -->
<g id="edge4" class="edge">
<title>Node0&#45;&gt;Node4</title>
<path fill="none" stroke="#000000" d="M102.5598,-110.4768C124.1252,-116.8743 150.7947,-124.7859 173.3264,-131.4701"/>
<polygon fill="#000000" stroke="#000000" points="103.317,-107.0507 92.7345,-107.5621 101.3261,-113.7617 103.317,-107.0507"/>
</g>
<!-- Node1 -->
<g id="node4" class="node">
<title>Node1</title>
<g id="a_node4"><a xlink:href="../../df/db8/group__createxdmf.html" target="_top" xlink:title="A post&#45;processing utility that creates XDMF files for visualization. ">
<polygon fill="#ffffff" stroke="#000000" points="163.9897,-84.5 163.9897,-112.5 277.2505,-112.5 277.2505,-84.5 163.9897,-84.5"/>
<text text-anchor="start" x="171.9897" y="-100.5" font-family="Helvetica,sans-Serif" font-size="10.00" fill="#000000">Post&#45;processing utility</text>
<text text-anchor="middle" x="220.6201" y="-90.5" font-family="Helvetica,sans-Serif" font-size="10.00" fill="#000000">: createxdmf</text>
</a>
</g>
</g>
<!-- Node0&#45;&gt;Node1 -->
<g id="edge1" class="edge">
<title>Node0&#45;&gt;Node1</title>
<path fill="none" stroke="#000000" d="M134.8692,-98.5C144.5976,-98.5 154.4583,-98.5 163.8591,-98.5"/>
<polygon fill="#000000" stroke="#000000" points="134.804,-95.0001 124.804,-98.5 134.8039,-102.0001 134.804,-95.0001"/>
</g>
<!-- Node2 -->
<g id="node5" class="node">
<title>Node2</title>
<g id="a_node5"><a xlink:href="../../d0/d4b/group__decoupledibpm.html" target="_top" xlink:title="Implementation of parallel decoupled IBPM solver (Li et. al. 2016). ">
<polygon fill="#ffffff" stroke="#000000" points="160.374,-37.5 160.374,-65.5 280.8662,-65.5 280.8662,-37.5 160.374,-37.5"/>
<text text-anchor="start" x="168.374" y="-53.5" font-family="Helvetica,sans-Serif" font-size="10.00" fill="#000000">Decoupled IBPM solver</text>
<text text-anchor="middle" x="220.6201" y="-43.5" font-family="Helvetica,sans-Serif" font-size="10.00" fill="#000000"> (Li et. al. 2016)</text>
</a>
</g>
</g>
<!-- Node0&#45;&gt;Node2 -->
<g id="edge2" class="edge">
<title>Node0&#45;&gt;Node2</title>
<path fill="none" stroke="#000000" d="M102.5598,-86.5232C124.1252,-80.1257 150.7947,-72.2141 173.3264,-65.5299"/>
<polygon fill="#000000" stroke="#000000" points="101.3261,-83.2383 92.7345,-89.4379 103.317,-89.9493 101.3261,-83.2383"/>
</g>
<!-- Node3 -->
<g id="node6" class="node">
<title>Node3</title>
<g id="a_node6"><a xlink:href="../../dc/d6a/group__nssolver.html" target="_top" xlink:title="Implementation of parallel Navier&#45;Stokes solver. ">
<polygon fill="#ffffff" stroke="#000000" points="166.4946,-.5 166.4946,-18.5 274.7456,-18.5 274.7456,-.5 166.4946,-.5"/>
<text text-anchor="middle" x="220.6201" y="-6.5" font-family="Helvetica,sans-Serif" font-size="10.00" fill="#000000">Navier&#45;Stokes solver</text>
</a>
</g>
</g>
<!-- Node0&#45;&gt;Node3 -->
<g id="edge3" class="edge">
<title>Node0&#45;&gt;Node3</title>
<path fill="none" stroke="#000000" d="M80.4548,-82.7812C99.3706,-67.1779 130.3157,-43.4832 160.374,-28.5 168.2263,-24.5859 177.0543,-21.2626 185.4814,-18.5431"/>
<polygon fill="#000000" stroke="#000000" points="78.0702,-80.2132 72.6567,-89.3206 82.5681,-85.5769 78.0702,-80.2132"/>
</g>
</g>
</svg>
