<?xml version="1.0" encoding="UTF-8" standalone="no"?>
<!DOCTYPE svg PUBLIC "-//W3C//DTD SVG 1.1//EN"
 "http://www.w3.org/Graphics/SVG/1.1/DTD/svg11.dtd">
<!-- Generated by graphviz version 3.0.0 (0)
 -->
<!-- Title: Flow solvers and utilities Pages: 1 -->
<svg width="289pt" height="268pt"
 viewBox="0.00 0.00 289.00 268.00" xmlns="http://www.w3.org/2000/svg" xmlns:xlink="http://www.w3.org/1999/xlink">
<g id="graph0" class="graph" transform="scale(1 1) rotate(0) translate(4 264)">
<title>Flow solvers and utilities</title>
<polygon fill="white" stroke="transparent" points="-4,4 -4,-264 285,-264 285,4 -4,4"/>
<!-- Node1 -->
<g id="node1" class="node">
<title>Node1</title>
<g id="a_node1"><a xlink:title="Flow solvers and utilities.">
<polygon fill="#bfbfbf" stroke="black" points="125,-136.5 0,-136.5 0,-117.5 125,-117.5 125,-136.5"/>
<text text-anchor="middle" x="62.5" y="-124.5" font-family="Helvetica,sans-Serif" font-size="10.00">Flow solvers and utilities</text>
</a>
</g>
</g>
<!-- Node2 -->
<g id="node2" class="node">
<title>Node2</title>
<g id="a_node2"><a xlink:href="../../df/db8/group__createxdmf.html" target="_top" xlink:title="A post&#45;processing utility that creates XDMF files for visualization.">
<polygon fill="white" stroke="black" points="277.5,-260 164.5,-260 164.5,-230 277.5,-230 277.5,-260"/>
<text text-anchor="start" x="172.5" y="-248" font-family="Helvetica,sans-Serif" font-size="10.00">Post&#45;processing utility</text>
<text text-anchor="middle" x="221" y="-237" font-family="Helvetica,sans-Serif" font-size="10.00">: createxdmf</text>
</a>
</g>
</g>
<!-- Node1&#45;&gt;Node2 -->
<g id="edge1" class="edge">
<title>Node1&#45;&gt;Node2</title>
<path fill="none" stroke="black" d="M77.89,-144.45C95.63,-165.05 127.57,-199.25 161,-221 166.1,-224.32 171.73,-227.32 177.43,-229.98"/>
<polygon fill="black" stroke="black" points="80.53,-142.15 71.4,-136.78 75.18,-146.68 80.53,-142.15"/>
</g>
<!-- Node3 -->
<g id="node3" class="node">
<title>Node3</title>
<g id="a_node3"><a xlink:href="../../d0/d4b/group__decoupledibpm.html" target="_top" xlink:title="Implementation of parallel decoupled IBPM solver (Li et. al. 2016).">
<polygon fill="white" stroke="black" points="281,-212 161,-212 161,-182 281,-182 281,-212"/>
<text text-anchor="start" x="169" y="-200" font-family="Helvetica,sans-Serif" font-size="10.00">Decoupled IBPM solver</text>
<text text-anchor="middle" x="221" y="-189" font-family="Helvetica,sans-Serif" font-size="10.00"> (Li et. al. 2016)</text>
</a>
</g>
</g>
<!-- Node1&#45;&gt;Node3 -->
<g id="edge2" class="edge">
<title>Node1&#45;&gt;Node3</title>
<path fill="none" stroke="black" d="M92.31,-141.1C111.62,-150.42 137.69,-162.77 161,-173 167.78,-175.98 175.06,-179.04 182.1,-181.94"/>
<polygon fill="black" stroke="black" points="93.67,-137.87 83.15,-136.66 90.62,-144.17 93.67,-137.87"/>
</g>
<!-- Node4 -->
<g id="node4" class="node">
<title>Node4</title>
<g id="a_node4"><a xlink:href="../../d3/d01/group__ibpm.html" target="_top" xlink:title="Implementation of parallel IBPM solver (Taira &amp; Colonius 2007).">
<polygon fill="white" stroke="black" points="270,-164 172,-164 172,-134 270,-134 270,-164"/>
<text text-anchor="start" x="180" y="-152" font-family="Helvetica,sans-Serif" font-size="10.00">IBPM solver (Taira</text>
<text text-anchor="middle" x="221" y="-141" font-family="Helvetica,sans-Serif" font-size="10.00"> &amp; Colonius 2007)</text>
</a>
</g>
</g>
<!-- Node1&#45;&gt;Node4 -->
<g id="edge3" class="edge">
<title>Node1&#45;&gt;Node4</title>
<path fill="none" stroke="black" d="M135.55,-137.13C147.77,-138.85 160.19,-140.59 171.62,-142.2"/>
<polygon fill="black" stroke="black" points="135.74,-133.62 125.35,-135.69 134.77,-140.55 135.74,-133.62"/>
</g>
<!-- Node5 -->
<g id="node5" class="node">
<title>Node5</title>
<g id="a_node5"><a xlink:href="../../dc/d6a/group__nssolver.html" target="_top" xlink:title="Implementation of parallel Navier&#45;Stokes solver.">
<polygon fill="white" stroke="black" points="275,-115.5 167,-115.5 167,-96.5 275,-96.5 275,-115.5"/>
<text text-anchor="middle" x="221" y="-103.5" font-family="Helvetica,sans-Serif" font-size="10.00">Navier&#45;Stokes solver</text>
</a>
</g>
</g>
<!-- Node1&#45;&gt;Node5 -->
<g id="edge4" class="edge">
<title>Node1&#45;&gt;Node5</title>
<path fill="none" stroke="black" d="M135.38,-117.35C145.92,-115.94 156.61,-114.51 166.69,-113.15"/>
<polygon fill="black" stroke="black" points="134.8,-113.9 125.35,-118.7 135.73,-120.84 134.8,-113.9"/>
</g>
<!-- Node6 -->
<g id="node6" class="node">
<title>Node6</title>
<g id="a_node6"><a xlink:href="../../d7/db7/group__vorticity.html" target="_top" xlink:title="A post&#45;processing utility that calculates vorticity fields.">
<polygon fill="white" stroke="black" points="277.5,-78 164.5,-78 164.5,-48 277.5,-48 277.5,-78"/>
<text text-anchor="start" x="172.5" y="-66" font-family="Helvetica,sans-Serif" font-size="10.00">Post&#45;processing utility</text>
<text text-anchor="middle" x="221" y="-55" font-family="Helvetica,sans-Serif" font-size="10.00">: vorticity</text>
</a>
</g>
</g>
<!-- Node1&#45;&gt;Node6 -->
<g id="edge5" class="edge">
<title>Node1&#45;&gt;Node6</title>
<path fill="none" stroke="black" d="M96.49,-113.51C121.9,-103.12 157.02,-88.76 183.31,-78"/>
<polygon fill="black" stroke="black" points="94.86,-110.39 86.93,-117.42 97.51,-116.87 94.86,-110.39"/>
</g>
<!-- Node7 -->
<g id="node7" class="node">
<title>Node7</title>
<g id="a_node7"><a xlink:href="../../d2/ddd/group__writemesh.html" target="_top" xlink:title="A pre&#45;processing utility that creates a mesh and writes the gridline coordinates to a HDF5 file.">
<polygon fill="white" stroke="black" points="275,-30 167,-30 167,0 275,0 275,-30"/>
<text text-anchor="start" x="175" y="-18" font-family="Helvetica,sans-Serif" font-size="10.00">Pre&#45;processing utility</text>
<text text-anchor="middle" x="221" y="-7" font-family="Helvetica,sans-Serif" font-size="10.00">: writemesh</text>
</a>
</g>
</g>
<!-- Node1&#45;&gt;Node7 -->
<g id="edge6" class="edge">
<title>Node1&#45;&gt;Node7</title>
<path fill="none" stroke="black" d="M78.92,-109.87C97.03,-90.57 128.72,-59.25 161,-39 166.25,-35.71 172.02,-32.71 177.84,-30.03"/>
<polygon fill="black" stroke="black" points="76.24,-107.61 72.03,-117.34 81.38,-112.36 76.24,-107.61"/>
</g>
</g>
</svg>
