<?xml version="1.0" encoding="UTF-8" standalone="no"?>
<!DOCTYPE svg PUBLIC "-//W3C//DTD SVG 1.1//EN"
 "http://www.w3.org/Graphics/SVG/1.1/DTD/svg11.dtd">
<!-- Generated by graphviz version 2.38.0 (20140413.2041)
 -->
<!-- Title: Flow solvers and utilities Pages: 1 -->
<svg width="289pt" height="274pt"
 viewBox="0.00 0.00 289.00 274.00" xmlns="http://www.w3.org/2000/svg" xmlns:xlink="http://www.w3.org/1999/xlink">
<g id="graph0" class="graph" transform="scale(1 1) rotate(0) translate(4 270)">
<title>Flow solvers and utilities</title>
<polygon fill="white" stroke="none" points="-4,4 -4,-270 285,-270 285,4 -4,4"/>
<!-- Node5 -->
<g id="node1" class="node"><title>Node5</title>
<g id="a_node1"><a xlink:href="../../d7/db7/group__vorticity.html" target="_top" xlink:title="A post&#45;processing utility that calculates vorticity fields. ">
<polygon fill="white" stroke="black" points="164.5,-235.5 164.5,-265.5 277.5,-265.5 277.5,-235.5 164.5,-235.5"/>
<text text-anchor="start" x="172.5" y="-253.5" font-family="Helvetica,sans-Serif" font-size="10.00">Post&#45;processing utility</text>
<text text-anchor="middle" x="221" y="-242.5" font-family="Helvetica,sans-Serif" font-size="10.00">: vorticity</text>
</a>
</g>
</g>
<!-- Node0 -->
<g id="node2" class="node"><title>Node0</title>
<polygon fill="#bfbfbf" stroke="black" points="0,-118 0,-137 125,-137 125,-118 0,-118"/>
<text text-anchor="middle" x="62.5" y="-125" font-family="Helvetica,sans-Serif" font-size="10.00">Flow solvers and utilities</text>
</g>
<!-- Node0&#45;&gt;Node5 -->
<g id="edge5" class="edge"><title>Node0&#45;&gt;Node5</title>
<path fill="none" stroke="black" d="M77.1514,-145.261C94.5856,-166.93 126.638,-203.509 161,-226.5 165.963,-229.821 171.457,-232.808 177.038,-235.456"/>
<polygon fill="black" stroke="black" points="79.7535,-142.909 70.81,-137.228 74.2593,-147.246 79.7535,-142.909"/>
</g>
<!-- Node6 -->
<g id="node3" class="node"><title>Node6</title>
<g id="a_node3"><a xlink:href="../../d2/ddd/group__writemesh.html" target="_top" xlink:title="A pre&#45;processing utility that creates a mesh and writes the gridline coordinates to a HDF5 file...">
<polygon fill="white" stroke="black" points="167,-186.5 167,-216.5 275,-216.5 275,-186.5 167,-186.5"/>
<text text-anchor="start" x="175" y="-204.5" font-family="Helvetica,sans-Serif" font-size="10.00">Pre&#45;processing utility</text>
<text text-anchor="middle" x="221" y="-193.5" font-family="Helvetica,sans-Serif" font-size="10.00">: writemesh</text>
</a>
</g>
</g>
<!-- Node0&#45;&gt;Node6 -->
<g id="edge6" class="edge"><title>Node0&#45;&gt;Node6</title>
<path fill="none" stroke="black" d="M89.7608,-141.759C109.212,-152.125 136.482,-166.253 161,-177.5 167.634,-180.543 174.768,-183.612 181.705,-186.492"/>
<polygon fill="black" stroke="black" points="91.3533,-138.641 80.8863,-137.001 88.0458,-144.811 91.3533,-138.641"/>
</g>
<!-- Node1 -->
<g id="node4" class="node"><title>Node1</title>
<g id="a_node4"><a xlink:href="../../df/db8/group__createxdmf.html" target="_top" xlink:title="A post&#45;processing utility that creates XDMF files for visualization. ">
<polygon fill="white" stroke="black" points="164.5,-137.5 164.5,-167.5 277.5,-167.5 277.5,-137.5 164.5,-137.5"/>
<text text-anchor="start" x="172.5" y="-155.5" font-family="Helvetica,sans-Serif" font-size="10.00">Post&#45;processing utility</text>
<text text-anchor="middle" x="221" y="-144.5" font-family="Helvetica,sans-Serif" font-size="10.00">: createxdmf</text>
</a>
</g>
</g>
<!-- Node0&#45;&gt;Node1 -->
<g id="edge1" class="edge"><title>Node0&#45;&gt;Node1</title>
<path fill="none" stroke="black" d="M133.08,-138.615C143.57,-140.291 154.271,-142 164.415,-143.621"/>
<polygon fill="black" stroke="black" points="133.539,-135.144 123.112,-137.023 132.435,-142.056 133.539,-135.144"/>
</g>
<!-- Node2 -->
<g id="node5" class="node"><title>Node2</title>
<g id="a_node5"><a xlink:href="../../d0/d4b/group__decoupledibpm.html" target="_top" xlink:title="Implementation of parallel decoupled IBPM solver (Li et. al. 2016). ">
<polygon fill="white" stroke="black" points="161,-88.5 161,-118.5 281,-118.5 281,-88.5 161,-88.5"/>
<text text-anchor="start" x="169" y="-106.5" font-family="Helvetica,sans-Serif" font-size="10.00">Decoupled IBPM solver</text>
<text text-anchor="middle" x="221" y="-95.5" font-family="Helvetica,sans-Serif" font-size="10.00"> (Li et. al. 2016)</text>
</a>
</g>
</g>
<!-- Node0&#45;&gt;Node2 -->
<g id="edge2" class="edge"><title>Node0&#45;&gt;Node2</title>
<path fill="none" stroke="black" d="M135.326,-116.485C143.883,-115.173 152.543,-113.845 160.893,-112.564"/>
<polygon fill="black" stroke="black" points="134.707,-113.039 125.353,-118.015 135.768,-119.958 134.707,-113.039"/>
</g>
<!-- Node4 -->
<g id="node6" class="node"><title>Node4</title>
<g id="a_node6"><a xlink:href="../../dc/d6a/group__nssolver.html" target="_top" xlink:title="Implementation of parallel Navier&#45;Stokes solver. ">
<polygon fill="white" stroke="black" points="167,-50 167,-69 275,-69 275,-50 167,-50"/>
<text text-anchor="middle" x="221" y="-57" font-family="Helvetica,sans-Serif" font-size="10.00">Navier&#45;Stokes solver</text>
</a>
</g>
</g>
<!-- Node0&#45;&gt;Node4 -->
<g id="edge4" class="edge"><title>Node0&#45;&gt;Node4</title>
<path fill="none" stroke="black" d="M90.2566,-113.147C109.606,-103.061 136.539,-89.6162 161,-79.5 170.095,-75.7386 180.179,-72.1241 189.4,-69.0274"/>
<polygon fill="black" stroke="black" points="88.3676,-110.186 81.1474,-117.94 91.6269,-116.381 88.3676,-110.186"/>
</g>
<!-- Node3 -->
<g id="node7" class="node"><title>Node3</title>
<g id="a_node7"><a xlink:href="../../d3/d01/group__ibpm.html" target="_top" xlink:title="Implementation of parallel IBPM solver (Taira &amp; Colonius 2007). ">
<polygon fill="white" stroke="black" points="172,-0.5 172,-30.5 270,-30.5 270,-0.5 172,-0.5"/>
<text text-anchor="start" x="180" y="-18.5" font-family="Helvetica,sans-Serif" font-size="10.00">IBPM solver (Taira</text>
<text text-anchor="middle" x="221" y="-7.5" font-family="Helvetica,sans-Serif" font-size="10.00"> &amp; Colonius 2007)</text>
</a>
</g>
</g>
<!-- Node0&#45;&gt;Node3 -->
<g id="edge3" class="edge"><title>Node0&#45;&gt;Node3</title>
<path fill="none" stroke="black" d="M79.3005,-110.36C97.5405,-91.3431 129.139,-60.6831 161,-40.5 166.733,-36.8685 173.083,-33.5482 179.432,-30.597"/>
<polygon fill="black" stroke="black" points="76.6596,-108.059 72.3394,-117.733 81.7495,-112.865 76.6596,-108.059"/>
</g>
</g>
</svg>
