<?xml version="1.0" encoding="UTF-8" standalone="no"?>
<!DOCTYPE svg PUBLIC "-//W3C//DTD SVG 1.1//EN"
 "http://www.w3.org/Graphics/SVG/1.1/DTD/svg11.dtd">
<!-- Generated by graphviz version 2.40.1 (20161225.0304)
 -->
<!-- Title: petibm::timeintegration::TimeIntegrationBase Pages: 1 -->
<svg width="278pt" height="178pt"
 viewBox="0.00 0.00 278.32 178.00" xmlns="http://www.w3.org/2000/svg" xmlns:xlink="http://www.w3.org/1999/xlink">
<g id="graph0" class="graph" transform="scale(1 1) rotate(0) translate(4 174)">
<title>petibm::timeintegration::TimeIntegrationBase</title>
<polygon fill="#ffffff" stroke="transparent" points="-4,4 -4,-174 274.3242,-174 274.3242,4 -4,4"/>
<!-- Node0 -->
<g id="node1" class="node">
<title>Node0</title>
<polygon fill="#bfbfbf" stroke="#000000" points="0,-70.5 0,-98.5 117.1621,-98.5 117.1621,-70.5 0,-70.5"/>
<text text-anchor="start" x="8" y="-86.5" font-family="Helvetica,sans-Serif" font-size="10.00" fill="#000000">petibm::timeintegration</text>
<text text-anchor="middle" x="58.5811" y="-76.5" font-family="Helvetica,sans-Serif" font-size="10.00" fill="#000000">::TimeIntegrationBase</text>
</g>
<!-- Node1 -->
<g id="node2" class="node">
<title>Node1</title>
<g id="a_node2"><a xlink:href="../../d7/db6/classpetibm_1_1timeintegration_1_1_adams___bashforth__2.html" target="_top" xlink:title="An implementation of TimeIntegrationBase for 2nd order Adams&#45;Bashforth. ">
<polygon fill="#ffffff" stroke="#000000" points="153.1621,-141.5 153.1621,-169.5 270.3242,-169.5 270.3242,-141.5 153.1621,-141.5"/>
<text text-anchor="start" x="161.1621" y="-157.5" font-family="Helvetica,sans-Serif" font-size="10.00" fill="#000000">petibm::timeintegration</text>
<text text-anchor="middle" x="211.7432" y="-147.5" font-family="Helvetica,sans-Serif" font-size="10.00" fill="#000000">::Adams_Bashforth_2</text>
</a>
</g>
</g>
<!-- Node0&#45;&gt;Node1 -->
<g id="edge1" class="edge">
<title>Node0&#45;&gt;Node1</title>
<path fill="none" stroke="#191970" d="M94.0651,-103.5214C111.6493,-112.6863 133.3178,-123.5933 153.1621,-132.5 159.9404,-135.5423 167.2511,-138.5912 174.3329,-141.4285"/>
<polygon fill="#191970" stroke="#191970" points="95.2347,-100.1824 84.7538,-98.6327 91.9807,-106.3802 95.2347,-100.1824"/>
</g>
<!-- Node2 -->
<g id="node3" class="node">
<title>Node2</title>
<g id="a_node3"><a xlink:href="../../d4/d5f/classpetibm_1_1timeintegration_1_1_crank___nicolson.html" target="_top" xlink:title="An implementation of TimeIntegrationBase for 2nd order Crank&#45;Nicolson. ">
<polygon fill="#ffffff" stroke="#000000" points="153.1621,-94.5 153.1621,-122.5 270.3242,-122.5 270.3242,-94.5 153.1621,-94.5"/>
<text text-anchor="start" x="161.1621" y="-110.5" font-family="Helvetica,sans-Serif" font-size="10.00" fill="#000000">petibm::timeintegration</text>
<text text-anchor="middle" x="211.7432" y="-100.5" font-family="Helvetica,sans-Serif" font-size="10.00" fill="#000000">::Crank_Nicolson</text>
</a>
</g>
</g>
<!-- Node0&#45;&gt;Node2 -->
<g id="edge2" class="edge">
<title>Node0&#45;&gt;Node2</title>
<path fill="none" stroke="#191970" d="M127.3669,-95.2785C135.9661,-96.626 144.6977,-97.9942 153.122,-99.3143"/>
<polygon fill="#191970" stroke="#191970" points="127.7808,-91.8007 117.3595,-93.7104 126.6971,-98.7164 127.7808,-91.8007"/>
</g>
<!-- Node3 -->
<g id="node4" class="node">
<title>Node3</title>
<g id="a_node4"><a xlink:href="../../d7/d33/classpetibm_1_1timeintegration_1_1_euler___explicit.html" target="_top" xlink:title="An implementation of TimeIntegrationBase for 1st order explicit Euler. ">
<polygon fill="#ffffff" stroke="#000000" points="153.1621,-47.5 153.1621,-75.5 270.3242,-75.5 270.3242,-47.5 153.1621,-47.5"/>
<text text-anchor="start" x="161.1621" y="-63.5" font-family="Helvetica,sans-Serif" font-size="10.00" fill="#000000">petibm::timeintegration</text>
<text text-anchor="middle" x="211.7432" y="-53.5" font-family="Helvetica,sans-Serif" font-size="10.00" fill="#000000">::Euler_Explicit</text>
</a>
</g>
</g>
<!-- Node0&#45;&gt;Node3 -->
<g id="edge3" class="edge">
<title>Node0&#45;&gt;Node3</title>
<path fill="none" stroke="#191970" d="M127.3669,-74.1706C135.9661,-72.8793 144.6977,-71.5681 153.122,-70.303"/>
<polygon fill="#191970" stroke="#191970" points="126.7288,-70.7271 117.3595,-75.6734 127.7684,-77.6495 126.7288,-70.7271"/>
</g>
<!-- Node4 -->
<g id="node5" class="node">
<title>Node4</title>
<g id="a_node5"><a xlink:href="../../da/d48/classpetibm_1_1timeintegration_1_1_euler___implicit.html" target="_top" xlink:title="An implementation of TimeIntegrationBase for 1st order implicit Euler. ">
<polygon fill="#ffffff" stroke="#000000" points="153.1621,-.5 153.1621,-28.5 270.3242,-28.5 270.3242,-.5 153.1621,-.5"/>
<text text-anchor="start" x="161.1621" y="-16.5" font-family="Helvetica,sans-Serif" font-size="10.00" fill="#000000">petibm::timeintegration</text>
<text text-anchor="middle" x="211.7432" y="-6.5" font-family="Helvetica,sans-Serif" font-size="10.00" fill="#000000">::Euler_Implicit</text>
</a>
</g>
</g>
<!-- Node0&#45;&gt;Node4 -->
<g id="edge4" class="edge">
<title>Node0&#45;&gt;Node4</title>
<path fill="none" stroke="#191970" d="M95.7211,-65.7576C113.0538,-57.1863 134.0369,-47.058 153.1621,-38.5 160.5859,-35.178 168.6127,-31.7712 176.2735,-28.6062"/>
<polygon fill="#191970" stroke="#191970" points="93.8995,-62.7544 86.5023,-70.3394 97.015,-69.0229 93.8995,-62.7544"/>
</g>
</g>
</svg>
