<?xml version="1.0" encoding="UTF-8" standalone="no"?>
<!DOCTYPE svg PUBLIC "-//W3C//DTD SVG 1.1//EN"
 "http://www.w3.org/Graphics/SVG/1.1/DTD/svg11.dtd">
<!-- Generated by graphviz version 3.0.0 (0)
 -->
<!-- Title: NavierStokesSolver Pages: 1 -->
<svg width="212pt" height="140pt"
 viewBox="0.00 0.00 211.50 140.00" xmlns="http://www.w3.org/2000/svg" xmlns:xlink="http://www.w3.org/1999/xlink">
<g id="graph0" class="graph" transform="scale(1 1) rotate(0) translate(4 136)">
<title>NavierStokesSolver</title>
<polygon fill="white" stroke="transparent" points="-4,4 -4,-136 207.5,-136 207.5,4 -4,4"/>
<!-- Node1 -->
<g id="node1" class="node">
<title>Node1</title>
<g id="a_node1"><a xlink:title="Solve the incompressible Navier&#45;Stokes equations with a projection method (Perot 1993).">
<polygon fill="#bfbfbf" stroke="black" points="61,-112.5 61,-131.5 165,-131.5 165,-112.5 61,-112.5"/>
<text text-anchor="middle" x="113" y="-119.5" font-family="Helvetica,sans-Serif" font-size="10.00">NavierStokesSolver</text>
</a>
</g>
</g>
<!-- Node2 -->
<g id="node2" class="node">
<title>Node2</title>
<g id="a_node2"><a xlink:href="../../d4/d1d/class_decoupled_i_b_p_m_solver.html" target="_top" xlink:title="Immersed&#45;boundary method proposed by Li et. al. (2016).">
<polygon fill="white" stroke="black" points="0,-56.5 0,-75.5 116,-75.5 116,-56.5 0,-56.5"/>
<text text-anchor="middle" x="58" y="-63.5" font-family="Helvetica,sans-Serif" font-size="10.00">DecoupledIBPMSolver</text>
</a>
</g>
</g>
<!-- Node1&#45;&gt;Node2 -->
<g id="edge1" class="edge">
<title>Node1&#45;&gt;Node2</title>
<path fill="none" stroke="darkgreen" d="M96.71,-105C86.96,-95.43 74.95,-83.64 66.91,-75.75"/>
<polygon fill="darkgreen" stroke="darkgreen" points="94.33,-107.57 103.92,-112.08 99.23,-102.58 94.33,-107.57"/>
</g>
<!-- Node4 -->
<g id="node4" class="node">
<title>Node4</title>
<g id="a_node4"><a xlink:href="../../d2/dec/class_i_b_p_m_solver.html" target="_top" xlink:title="Immersed&#45;boundary method proposed by Taira and Colonius (2007).">
<polygon fill="white" stroke="black" points="134.5,-56.5 134.5,-75.5 203.5,-75.5 203.5,-56.5 134.5,-56.5"/>
<text text-anchor="middle" x="169" y="-63.5" font-family="Helvetica,sans-Serif" font-size="10.00">IBPMSolver</text>
</a>
</g>
</g>
<!-- Node1&#45;&gt;Node4 -->
<g id="edge3" class="edge">
<title>Node1&#45;&gt;Node4</title>
<path fill="none" stroke="darkgreen" d="M129.33,-105.25C139.26,-95.67 151.59,-83.79 159.84,-75.83"/>
<polygon fill="darkgreen" stroke="darkgreen" points="126.77,-102.86 122,-112.32 131.63,-107.9 126.77,-102.86"/>
</g>
<!-- Node3 -->
<g id="node3" class="node">
<title>Node3</title>
<g id="a_node3"><a xlink:href="../../dc/dbc/class_rigid_kinematics_solver.html" target="_top" xlink:title="Helper class to solve cases with moving rigid bodies using the decoupled IBPM.">
<polygon fill="white" stroke="black" points="0,-0.5 0,-19.5 116,-19.5 116,-0.5 0,-0.5"/>
<text text-anchor="middle" x="58" y="-7.5" font-family="Helvetica,sans-Serif" font-size="10.00">RigidKinematicsSolver</text>
</a>
</g>
</g>
<!-- Node2&#45;&gt;Node3 -->
<g id="edge2" class="edge">
<title>Node2&#45;&gt;Node3</title>
<path fill="none" stroke="darkgreen" d="M58,-45.8C58,-36.91 58,-26.78 58,-19.75"/>
<polygon fill="darkgreen" stroke="darkgreen" points="54.5,-46.08 58,-56.08 61.5,-46.08 54.5,-46.08"/>
</g>
</g>
</svg>
