<?xml version="1.0" encoding="UTF-8" standalone="no"?>
<!DOCTYPE svg PUBLIC "-//W3C//DTD SVG 1.1//EN"
 "http://www.w3.org/Graphics/SVG/1.1/DTD/svg11.dtd">
<!-- Generated by graphviz version 2.38.0 (20140413.2041)
 -->
<!-- Title: NavierStokesSolver Pages: 1 -->
<svg width="212pt" height="140pt"
 viewBox="0.00 0.00 211.50 140.00" xmlns="http://www.w3.org/2000/svg" xmlns:xlink="http://www.w3.org/1999/xlink">
<g id="graph0" class="graph" transform="scale(1 1) rotate(0) translate(4 136)">
<title>NavierStokesSolver</title>
<polygon fill="white" stroke="none" points="-4,4 -4,-136 207.5,-136 207.5,4 -4,4"/>
<!-- Node1 -->
<g id="node1" class="node"><title>Node1</title>
<polygon fill="#bfbfbf" stroke="black" points="61,-112.5 61,-131.5 165,-131.5 165,-112.5 61,-112.5"/>
<text text-anchor="middle" x="113" y="-119.5" font-family="Helvetica,sans-Serif" font-size="10.00">NavierStokesSolver</text>
</g>
<!-- Node2 -->
<g id="node2" class="node"><title>Node2</title>
<g id="a_node2"><a xlink:href="../../d4/d1d/class_decoupled_i_b_p_m_solver.html" target="_top" xlink:title="Immersed&#45;boundary method proposed by Li et. al. (2016). ">
<polygon fill="white" stroke="black" points="-7.10543e-15,-56.5 -7.10543e-15,-75.5 116,-75.5 116,-56.5 -7.10543e-15,-56.5"/>
<text text-anchor="middle" x="58" y="-63.5" font-family="Helvetica,sans-Serif" font-size="10.00">DecoupledIBPMSolver</text>
</a>
</g>
</g>
<!-- Node1&#45;&gt;Node2 -->
<g id="edge1" class="edge"><title>Node1&#45;&gt;Node2</title>
<path fill="none" stroke="darkgreen" d="M96.7062,-105.002C86.9594,-95.4329 74.947,-83.6389 66.9131,-75.7511"/>
<polygon fill="darkgreen" stroke="darkgreen" points="94.3301,-107.575 103.918,-112.083 99.2343,-102.58 94.3301,-107.575"/>
</g>
<!-- Node4 -->
<g id="node4" class="node"><title>Node4</title>
<g id="a_node4"><a xlink:href="../../d2/dec/class_i_b_p_m_solver.html" target="_top" xlink:title="Immersed&#45;boundary method proposed by Taira and Colonius (2007). ">
<polygon fill="white" stroke="black" points="134.5,-56.5 134.5,-75.5 203.5,-75.5 203.5,-56.5 134.5,-56.5"/>
<text text-anchor="middle" x="169" y="-63.5" font-family="Helvetica,sans-Serif" font-size="10.00">IBPMSolver</text>
</a>
</g>
</g>
<!-- Node1&#45;&gt;Node4 -->
<g id="edge3" class="edge"><title>Node1&#45;&gt;Node4</title>
<path fill="none" stroke="darkgreen" d="M129.33,-105.253C139.265,-95.6731 151.588,-83.7906 159.839,-75.8339"/>
<polygon fill="darkgreen" stroke="darkgreen" points="126.766,-102.863 121.997,-112.324 131.625,-107.902 126.766,-102.863"/>
</g>
<!-- Node3 -->
<g id="node3" class="node"><title>Node3</title>
<g id="a_node3"><a xlink:href="../../dc/dbc/class_rigid_kinematics_solver.html" target="_top" xlink:title="Helper class to solve cases with moving rigid bodies using the decoupled IBPM. ">
<polygon fill="white" stroke="black" points="-7.10543e-15,-0.5 -7.10543e-15,-19.5 116,-19.5 116,-0.5 -7.10543e-15,-0.5"/>
<text text-anchor="middle" x="58" y="-7.5" font-family="Helvetica,sans-Serif" font-size="10.00">RigidKinematicsSolver</text>
</a>
</g>
</g>
<!-- Node2&#45;&gt;Node3 -->
<g id="edge2" class="edge"><title>Node2&#45;&gt;Node3</title>
<path fill="none" stroke="darkgreen" d="M58,-45.8045C58,-36.9102 58,-26.7798 58,-19.7511"/>
<polygon fill="darkgreen" stroke="darkgreen" points="54.5001,-46.083 58,-56.083 61.5001,-46.083 54.5001,-46.083"/>
</g>
</g>
</svg>
