<?xml version="1.0" encoding="UTF-8" standalone="no"?>
<!DOCTYPE svg PUBLIC "-//W3C//DTD SVG 1.1//EN"
 "http://www.w3.org/Graphics/SVG/1.1/DTD/svg11.dtd">
<!-- Generated by graphviz version 2.40.1 (20161225.0304)
 -->
<!-- Title: NavierStokesSolver Pages: 1 -->
<svg width="248pt" height="82pt"
 viewBox="0.00 0.00 247.77 82.00" xmlns="http://www.w3.org/2000/svg" xmlns:xlink="http://www.w3.org/1999/xlink">
<g id="graph0" class="graph" transform="scale(1 1) rotate(0) translate(4 78)">
<title>NavierStokesSolver</title>
<polygon fill="#ffffff" stroke="transparent" points="-4,4 -4,-78 243.7681,-78 243.7681,4 -4,4"/>
<!-- Node0 -->
<g id="node1" class="node">
<title>Node0</title>
<polygon fill="#bfbfbf" stroke="#000000" points="70.3965,-55.5 70.3965,-73.5 174.209,-73.5 174.209,-55.5 70.3965,-55.5"/>
<text text-anchor="middle" x="122.3027" y="-61.5" font-family="Helvetica,sans-Serif" font-size="10.00" fill="#000000">NavierStokesSolver</text>
</g>
<!-- Node1 -->
<g id="node2" class="node">
<title>Node1</title>
<g id="a_node2"><a xlink:href="../../d4/d1d/class_decoupled_i_b_p_m_solver.html" target="_top" xlink:title="Immersed&#45;boundary method proposed by Li et. al. (2016). ">
<polygon fill="#ffffff" stroke="#000000" points="0,-.5 0,-18.5 116.6055,-18.5 116.6055,-.5 0,-.5"/>
<text text-anchor="middle" x="58.3027" y="-6.5" font-family="Helvetica,sans-Serif" font-size="10.00" fill="#000000">DecoupledIBPMSolver</text>
</a>
</g>
</g>
<!-- Node0&#45;&gt;Node1 -->
<g id="edge1" class="edge">
<title>Node0&#45;&gt;Node1</title>
<path fill="none" stroke="#006400" d="M104.1125,-48.8678C92.8086,-39.1535 78.6599,-26.9944 69.1006,-18.7795"/>
<polygon fill="#006400" stroke="#006400" points="101.869,-51.5546 111.7344,-55.4179 106.4314,-46.2457 101.869,-51.5546"/>
</g>
<!-- Node2 -->
<g id="node3" class="node">
<title>Node2</title>
<g id="a_node3"><a xlink:href="../../d4/d0c/class_taira_colonius_solver.html" target="_top" xlink:title="Immersed&#45;boundary method proposed by Taira and Colonius (2007). ">
<polygon fill="#ffffff" stroke="#000000" points="134.8374,-.5 134.8374,-18.5 239.7681,-18.5 239.7681,-.5 134.8374,-.5"/>
<text text-anchor="middle" x="187.3027" y="-6.5" font-family="Helvetica,sans-Serif" font-size="10.00" fill="#000000">TairaColoniusSolver</text>
</a>
</g>
</g>
<!-- Node0&#45;&gt;Node2 -->
<g id="edge2" class="edge">
<title>Node0&#45;&gt;Node2</title>
<path fill="none" stroke="#006400" d="M140.7772,-48.8678C152.2577,-39.1535 166.6275,-26.9944 176.3361,-18.7795"/>
<polygon fill="#006400" stroke="#006400" points="138.4092,-46.2866 133.0362,-55.4179 142.9309,-51.6303 138.4092,-46.2866"/>
</g>
</g>
</svg>
