<?xml version="1.0" encoding="UTF-8" standalone="no"?>
<!DOCTYPE svg PUBLIC "-//W3C//DTD SVG 1.1//EN"
 "http://www.w3.org/Graphics/SVG/1.1/DTD/svg11.dtd">
<!-- Generated by graphviz version 2.38.0 (20140413.2041)
 -->
<!-- Title: petibm::misc::LinInterpBase Pages: 1 -->
<svg width="280pt" height="84pt"
 viewBox="0.00 0.00 279.50 84.00" xmlns="http://www.w3.org/2000/svg" xmlns:xlink="http://www.w3.org/1999/xlink">
<g id="graph0" class="graph" transform="scale(1 1) rotate(0) translate(4 80)">
<title>petibm::misc::LinInterpBase</title>
<polygon fill="white" stroke="none" points="-4,4 -4,-80 275.5,-80 275.5,4 -4,4"/>
<!-- Node1 -->
<g id="node1" class="node"><title>Node1</title>
<polygon fill="#bfbfbf" stroke="black" points="65,-56.5 65,-75.5 204,-75.5 204,-56.5 65,-56.5"/>
<text text-anchor="middle" x="134.5" y="-63.5" font-family="Helvetica,sans-Serif" font-size="10.00">petibm::misc::LinInterpBase</text>
</g>
<!-- Node2 -->
<g id="node2" class="node"><title>Node2</title>
<g id="a_node2"><a xlink:href="../../de/d82/classpetibm_1_1misc_1_1_bi_lin_interp.html" target="_top" xlink:title="Class to perform a bilinear interpolation at a point in a 3D domain. ">
<polygon fill="white" stroke="black" points="0,-0.5 0,-19.5 125,-19.5 125,-0.5 0,-0.5"/>
<text text-anchor="middle" x="62.5" y="-7.5" font-family="Helvetica,sans-Serif" font-size="10.00">petibm::misc::BiLinInterp</text>
</a>
</g>
</g>
<!-- Node1&#45;&gt;Node2 -->
<g id="edge1" class="edge"><title>Node1&#45;&gt;Node2</title>
<path fill="none" stroke="midnightblue" d="M114.634,-50.1008C101.677,-40.3824 85.2026,-28.0269 74.2785,-19.8339"/>
<polygon fill="midnightblue" stroke="midnightblue" points="112.832,-53.1239 122.932,-56.324 117.032,-47.5239 112.832,-53.1239"/>
</g>
<!-- Node3 -->
<g id="node3" class="node"><title>Node3</title>
<g id="a_node3"><a xlink:href="../../d4/da3/classpetibm_1_1misc_1_1_tri_lin_interp.html" target="_top" xlink:title="Class to perform a trilinear interpolation at a point in a 3D domain. ">
<polygon fill="white" stroke="black" points="143.5,-0.5 143.5,-19.5 271.5,-19.5 271.5,-0.5 143.5,-0.5"/>
<text text-anchor="middle" x="207.5" y="-7.5" font-family="Helvetica,sans-Serif" font-size="10.00">petibm::misc::TriLinInterp</text>
</a>
</g>
</g>
<!-- Node1&#45;&gt;Node3 -->
<g id="edge2" class="edge"><title>Node1&#45;&gt;Node3</title>
<path fill="none" stroke="midnightblue" d="M154.642,-50.1008C167.779,-40.3824 184.482,-28.0269 195.558,-19.8339"/>
<polygon fill="midnightblue" stroke="midnightblue" points="152.187,-47.5631 146.229,-56.324 156.35,-53.1907 152.187,-47.5631"/>
</g>
</g>
</svg>
