<?xml version="1.0" encoding="UTF-8" standalone="no"?>
<!DOCTYPE svg PUBLIC "-//W3C//DTD SVG 1.1//EN"
 "http://www.w3.org/Graphics/SVG/1.1/DTD/svg11.dtd">
<!-- Generated by graphviz version 3.0.0 (0)
 -->
<!-- Title: petibm::timeintegration::Euler_Explicit Pages: 1 -->
<svg width="124pt" height="106pt"
 viewBox="0.00 0.00 124.00 106.00" xmlns="http://www.w3.org/2000/svg" xmlns:xlink="http://www.w3.org/1999/xlink">
<g id="graph0" class="graph" transform="scale(1 1) rotate(0) translate(4 102)">
<title>petibm::timeintegration::Euler_Explicit</title>
<polygon fill="white" stroke="transparent" points="-4,4 -4,-102 120,-102 120,4 -4,4"/>
<!-- Node1 -->
<g id="node1" class="node">
<title>Node1</title>
<g id="a_node1"><a xlink:title="An implementation of TimeIntegrationBase for 1st order explicit Euler.">
<polygon fill="#bfbfbf" stroke="black" points="0,-0.5 0,-30.5 116,-30.5 116,-0.5 0,-0.5"/>
<text text-anchor="start" x="8" y="-18.5" font-family="Helvetica,sans-Serif" font-size="10.00">petibm::timeintegration</text>
<text text-anchor="middle" x="58" y="-7.5" font-family="Helvetica,sans-Serif" font-size="10.00">::Euler_Explicit</text>
</a>
</g>
</g>
<!-- Node2 -->
<g id="node2" class="node">
<title>Node2</title>
<g id="a_node2"><a xlink:href="../../d8/d39/classpetibm_1_1timeintegration_1_1_time_integration_base.html" target="_top" xlink:title="Base (abstract) class that stores information of temporal integration.">
<polygon fill="white" stroke="black" points="0,-67.5 0,-97.5 116,-97.5 116,-67.5 0,-67.5"/>
<text text-anchor="start" x="8" y="-85.5" font-family="Helvetica,sans-Serif" font-size="10.00">petibm::timeintegration</text>
<text text-anchor="middle" x="58" y="-74.5" font-family="Helvetica,sans-Serif" font-size="10.00">::TimeIntegrationBase</text>
</a>
</g>
</g>
<!-- Node2&#45;&gt;Node1 -->
<g id="edge1" class="edge">
<title>Node2&#45;&gt;Node1</title>
<path fill="none" stroke="midnightblue" d="M58,-57.11C58,-48.15 58,-38.32 58,-30.58"/>
<polygon fill="midnightblue" stroke="midnightblue" points="54.5,-57.4 58,-67.4 61.5,-57.4 54.5,-57.4"/>
</g>
</g>
</svg>
