<?xml version="1.0" encoding="UTF-8" standalone="no"?>
<!DOCTYPE svg PUBLIC "-//W3C//DTD SVG 1.1//EN"
 "http://www.w3.org/Graphics/SVG/1.1/DTD/svg11.dtd">
<!-- Generated by graphviz version 2.38.0 (20140413.2041)
 -->
<!-- Title: petibm::boundary::SingleBoundaryBase Pages: 1 -->
<svg width="294pt" height="186pt"
 viewBox="0.00 0.00 294.00 186.00" xmlns="http://www.w3.org/2000/svg" xmlns:xlink="http://www.w3.org/1999/xlink">
<g id="graph0" class="graph" transform="scale(1 1) rotate(0) translate(4 182)">
<title>petibm::boundary::SingleBoundaryBase</title>
<polygon fill="white" stroke="none" points="-4,4 -4,-182 290,-182 290,4 -4,4"/>
<!-- Node1 -->
<g id="node1" class="node"><title>Node1</title>
<polygon fill="#bfbfbf" stroke="black" points="0,-73.5 0,-103.5 125,-103.5 125,-73.5 0,-73.5"/>
<text text-anchor="start" x="8" y="-91.5" font-family="Helvetica,sans-Serif" font-size="10.00">petibm::boundary::Single</text>
<text text-anchor="middle" x="62.5" y="-80.5" font-family="Helvetica,sans-Serif" font-size="10.00">BoundaryBase</text>
</g>
<!-- Node2 -->
<g id="node2" class="node"><title>Node2</title>
<g id="a_node2"><a xlink:href="../../db/dbb/classpetibm_1_1boundary_1_1_single_boundary_convective.html" target="_top" xlink:title="An implementation of SingleBoundaryBase for convective BC. ">
<polygon fill="white" stroke="black" points="161,-147.5 161,-177.5 286,-177.5 286,-147.5 161,-147.5"/>
<text text-anchor="start" x="169" y="-165.5" font-family="Helvetica,sans-Serif" font-size="10.00">petibm::boundary::Single</text>
<text text-anchor="middle" x="223.5" y="-154.5" font-family="Helvetica,sans-Serif" font-size="10.00">BoundaryConvective</text>
</a>
</g>
</g>
<!-- Node1&#45;&gt;Node2 -->
<g id="edge1" class="edge"><title>Node1&#45;&gt;Node2</title>
<path fill="none" stroke="midnightblue" d="M100.33,-108.509C118.4,-118.036 140.615,-129.324 161,-138.5 167.793,-141.558 175.102,-144.61 182.226,-147.463"/>
<polygon fill="midnightblue" stroke="midnightblue" points="101.764,-105.308 91.2906,-103.708 98.4805,-111.49 101.764,-105.308"/>
</g>
<!-- Node3 -->
<g id="node3" class="node"><title>Node3</title>
<g id="a_node3"><a xlink:href="../../d6/d8f/classpetibm_1_1boundary_1_1_single_boundary_dirichlet.html" target="_top" xlink:title="An implementation of SingleBoundaryBase for Dirichlet BC. ">
<polygon fill="white" stroke="black" points="161,-98.5 161,-128.5 286,-128.5 286,-98.5 161,-98.5"/>
<text text-anchor="start" x="169" y="-116.5" font-family="Helvetica,sans-Serif" font-size="10.00">petibm::boundary::Single</text>
<text text-anchor="middle" x="223.5" y="-105.5" font-family="Helvetica,sans-Serif" font-size="10.00">BoundaryDirichlet</text>
</a>
</g>
</g>
<!-- Node1&#45;&gt;Node3 -->
<g id="edge2" class="edge"><title>Node1&#45;&gt;Node3</title>
<path fill="none" stroke="midnightblue" d="M135.315,-99.7917C143.803,-101.126 152.408,-102.479 160.74,-103.789"/>
<polygon fill="midnightblue" stroke="midnightblue" points="135.851,-96.333 125.429,-98.2372 134.764,-103.248 135.851,-96.333"/>
</g>
<!-- Node4 -->
<g id="node4" class="node"><title>Node4</title>
<g id="a_node4"><a xlink:href="../../d9/d94/classpetibm_1_1boundary_1_1_single_boundary_neumann.html" target="_top" xlink:title="An implementation of SingleBoundaryBase for Neumann BC. ">
<polygon fill="white" stroke="black" points="161,-49.5 161,-79.5 286,-79.5 286,-49.5 161,-49.5"/>
<text text-anchor="start" x="169" y="-67.5" font-family="Helvetica,sans-Serif" font-size="10.00">petibm::boundary::Single</text>
<text text-anchor="middle" x="223.5" y="-56.5" font-family="Helvetica,sans-Serif" font-size="10.00">BoundaryNeumann</text>
</a>
</g>
</g>
<!-- Node1&#45;&gt;Node4 -->
<g id="edge3" class="edge"><title>Node1&#45;&gt;Node4</title>
<path fill="none" stroke="midnightblue" d="M135.592,-77.6182C143.99,-76.3506 152.499,-75.0662 160.74,-73.8222"/>
<polygon fill="midnightblue" stroke="midnightblue" points="134.794,-74.1988 125.429,-79.1523 135.839,-81.1204 134.794,-74.1988"/>
</g>
<!-- Node5 -->
<g id="node5" class="node"><title>Node5</title>
<g id="a_node5"><a xlink:href="../../de/d58/classpetibm_1_1boundary_1_1_single_boundary_periodic.html" target="_top" xlink:title="An implementation of SingleBoundaryBase for periodic BC. ">
<polygon fill="white" stroke="black" points="161,-0.5 161,-30.5 286,-30.5 286,-0.5 161,-0.5"/>
<text text-anchor="start" x="169" y="-18.5" font-family="Helvetica,sans-Serif" font-size="10.00">petibm::boundary::Single</text>
<text text-anchor="middle" x="223.5" y="-7.5" font-family="Helvetica,sans-Serif" font-size="10.00">BoundaryPeriodic</text>
</a>
</g>
</g>
<!-- Node1&#45;&gt;Node5 -->
<g id="edge4" class="edge"><title>Node1&#45;&gt;Node5</title>
<path fill="none" stroke="midnightblue" d="M101.654,-68.9311C119.533,-59.9639 141.211,-49.3797 161,-40.5 168.466,-37.1499 176.521,-33.7351 184.265,-30.5491"/>
<polygon fill="midnightblue" stroke="midnightblue" points="100.034,-65.8281 92.6803,-73.4554 103.185,-72.0786 100.034,-65.8281"/>
</g>
</g>
</svg>
